<svg width="48" height="48" viewBox="0 0 48 48" fill="none" xmlns="http://www.w3.org/2000/svg">
<path fill-rule="evenodd" clip-rule="evenodd" d="M23.1569 0C35.946 0 46.3136 10.3679 46.3136 23.1569C46.3136 26.7367 45.5013 30.1269 44.0506 33.1527L47.4503 36.5524C48.183 37.2851 48.183 38.4729 47.4503 39.2059C46.7176 39.9383 45.5298 39.9383 44.7971 39.2059L42.0874 36.4958C41.6842 37.0668 41.2552 37.6186 40.8031 38.1499L44.127 41.474C44.8596 42.2067 44.8596 43.3946 44.127 44.127C43.3943 44.8599 42.2065 44.8599 41.4738 44.127L38.1499 40.8034C37.6186 41.2552 37.0668 41.6842 36.4958 42.0876L39.2056 44.7974C39.9383 45.5298 39.9383 46.7179 39.2056 47.4503C38.4729 48.1832 37.2851 48.1832 36.5524 47.4503L33.1527 44.0506C30.1266 45.5013 26.7367 46.3136 23.1569 46.3136C10.3679 46.3136 0 35.946 0 23.1569C0 10.3679 10.3679 0 23.1569 0Z" fill="black"/>
<path fill-rule="evenodd" clip-rule="evenodd" d="M23.1569 6.96181C32.1011 6.96181 39.3521 14.2126 39.3521 23.157C39.3521 32.1013 32.1011 39.352 23.1569 39.352C14.2127 39.352 6.96167 32.1013 6.96167 23.157C6.96167 14.2126 14.2127 6.96181 23.1569 6.96181Z" fill="white"/>
<path fill-rule="evenodd" clip-rule="evenodd" d="M23.1569 12.4799C29.0537 12.4799 33.8339 17.2601 33.8339 23.1569C33.8339 29.0537 29.0537 33.8339 23.1569 33.8339C17.2601 33.8339 12.4799 29.0537 12.4799 23.1569C12.4799 17.2601 17.2601 12.4799 23.1569 12.4799Z" fill="#52B69A"/>
<path fill-rule="evenodd" clip-rule="evenodd" d="M17.0939 13.5604C19.0452 13.5604 20.6273 15.1423 20.6273 17.0939C20.6273 19.0453 19.0452 20.6271 17.0939 20.6271C15.1425 20.6271 13.5604 19.0453 13.5604 17.0939C13.5604 15.1423 15.1425 13.5604 17.0939 13.5604Z" fill="white"/>
<path fill-rule="evenodd" clip-rule="evenodd" d="M23.1568 18.1549C25.9193 18.1549 28.159 20.3943 28.159 23.157C28.159 25.9195 25.9193 28.1589 23.1568 28.1589C20.3941 28.1589 18.1547 25.9195 18.1547 23.157C18.1547 20.3943 20.3941 18.1549 23.1568 18.1549Z" fill="black"/>
</svg>
