<svg width="32" height="32" viewBox="0 0 32 32" fill="none" xmlns="http://www.w3.org/2000/svg">
<path fill-rule="evenodd" clip-rule="evenodd" d="M15.438 0C23.964 0 30.8758 6.91191 30.8758 15.438C30.8758 17.8245 30.3342 20.0846 29.3671 22.1018L31.6335 24.3683C32.122 24.8567 32.122 25.6486 31.6335 26.1372C31.1451 26.6255 30.3532 26.6255 29.8648 26.1372L28.0583 24.3306C27.7894 24.7112 27.5035 25.0791 27.2021 25.4333L29.418 27.6494C29.9064 28.1378 29.9064 28.9297 29.418 29.418C28.9295 29.9066 28.1376 29.9066 27.6492 29.418L25.4333 27.2022C25.0791 27.5035 24.7112 27.7894 24.3306 28.0584L26.1371 29.8649C26.6255 30.3532 26.6255 31.1453 26.1371 31.6335C25.6486 32.1222 24.8567 32.1222 24.3683 31.6335L22.1018 29.3671C20.0844 30.3342 17.8245 30.8758 15.438 30.8758C6.91191 30.8758 0 23.964 0 15.438C0 6.91191 6.91191 0 15.438 0Z" fill="white"/>
<path fill-rule="evenodd" clip-rule="evenodd" d="M15.4375 4.64091C21.4003 4.64091 26.2343 9.47475 26.2343 15.4377C26.2343 21.4005 21.4003 26.2344 15.4375 26.2344C9.47469 26.2344 4.64067 21.4005 4.64067 15.4377C4.64067 9.47475 9.47469 4.64091 15.4375 4.64091Z" fill="#090909"/>
<path fill-rule="evenodd" clip-rule="evenodd" d="M15.4383 8.32066C19.3695 8.32066 22.5563 11.5075 22.5563 15.4387C22.5563 19.3699 19.3695 22.5566 15.4383 22.5566C11.5071 22.5566 8.32036 19.3699 8.32036 15.4387C8.32036 11.5075 11.5071 8.32066 15.4383 8.32066Z" fill="#52B69A"/>
<path fill-rule="evenodd" clip-rule="evenodd" d="M11.3959 9.04086C12.6968 9.04086 13.7515 10.0954 13.7515 11.3965C13.7515 12.6974 12.6968 13.752 11.3959 13.752C10.095 13.752 9.04027 12.6974 9.04027 11.3965C9.04027 10.0954 10.095 9.04086 11.3959 9.04086Z" fill="white"/>
<path fill-rule="evenodd" clip-rule="evenodd" d="M15.4383 12.1041C17.28 12.1041 18.7731 13.597 18.7731 15.4389C18.7731 17.2805 17.28 18.7734 15.4383 18.7734C13.5965 18.7734 12.1036 17.2805 12.1036 15.4389C12.1036 13.597 13.5965 12.1041 15.4383 12.1041Z" fill="black"/>
</svg>
