<svg width="200" height="48" viewBox="0 0 200 48" fill="none" xmlns="http://www.w3.org/2000/svg">
<path fill-rule="evenodd" clip-rule="evenodd" d="M23.1569 7.62939e-06C35.946 7.62939e-06 46.3136 10.3679 46.3136 23.157C46.3136 26.7367 45.5013 30.1269 44.0506 33.1527L47.4503 36.5524C48.183 37.2851 48.183 38.4729 47.4503 39.2059C46.7176 39.9383 45.5298 39.9383 44.7971 39.2059L42.0874 36.4959C41.6842 37.0668 41.2552 37.6186 40.8031 38.1499L44.127 41.4741C44.8596 42.2067 44.8596 43.3946 44.127 44.127C43.3943 44.8599 42.2065 44.8599 41.4738 44.127L38.1499 40.8034C37.6186 41.2552 37.0668 41.6842 36.4958 42.0877L39.2056 44.7974C39.9383 45.5298 39.9383 46.7179 39.2056 47.4503C38.4729 48.1832 37.2851 48.1832 36.5524 47.4503L33.1527 44.0506C30.1266 45.5013 26.7367 46.3136 23.1569 46.3136C10.3679 46.3136 0 35.946 0 23.157C0 10.3679 10.3679 7.62939e-06 23.1569 7.62939e-06Z" fill="black"/>
<path fill-rule="evenodd" clip-rule="evenodd" d="M23.157 6.96181C32.1012 6.96181 39.3523 14.2126 39.3523 23.157C39.3523 32.1012 32.1012 39.352 23.157 39.352C14.2128 39.352 6.96179 32.1012 6.96179 23.157C6.96179 14.2126 14.2128 6.96181 23.157 6.96181Z" fill="white"/>
<path fill-rule="evenodd" clip-rule="evenodd" d="M23.157 12.4799C29.0538 12.4799 33.834 17.2601 33.834 23.1569C33.834 29.0537 29.0538 33.8339 23.157 33.8339C17.2602 33.8339 12.48 29.0537 12.48 23.1569C12.48 17.2601 17.2602 12.4799 23.157 12.4799Z" fill="#52B69A"/>
<path fill-rule="evenodd" clip-rule="evenodd" d="M17.0939 13.5605C19.0452 13.5605 20.6273 15.1423 20.6273 17.0939C20.6273 19.0453 19.0452 20.6271 17.0939 20.6271C15.1425 20.6271 13.5604 19.0453 13.5604 17.0939C13.5604 15.1423 15.1425 13.5605 17.0939 13.5605Z" fill="white"/>
<path fill-rule="evenodd" clip-rule="evenodd" d="M23.157 18.1549C25.9194 18.1549 28.1591 20.3943 28.1591 23.157C28.1591 25.9195 25.9194 28.1589 23.157 28.1589C20.3942 28.1589 18.1548 25.9195 18.1548 23.157C18.1548 20.3943 20.3942 18.1549 23.157 18.1549Z" fill="black"/>
<path d="M199.782 31.5245H192.66V5.69716H199.782V31.5245ZM183.796 19.3068C183.796 18.4325 183.504 17.7471 182.921 17.2513C182.338 16.7555 181.609 16.5076 180.742 16.5076C179.867 16.5076 179.153 16.7411 178.591 17.2148C178.037 17.6885 177.673 18.3885 177.505 19.3068H183.796ZM191.064 21.0857C191.064 21.647 191.027 22.201 190.955 22.7624H177.469C177.541 23.8777 177.848 24.7086 178.394 25.2481C178.941 25.7949 179.634 26.0718 180.487 26.0718C181.675 26.0718 182.52 25.5395 183.031 24.4681H190.627C190.313 25.8751 189.701 27.1288 188.79 28.2294C187.885 29.3376 186.741 30.2052 185.356 30.832C183.971 31.4661 182.447 31.7796 180.778 31.7796C178.766 31.7796 176.973 31.3571 175.413 30.5041C173.846 29.6585 172.628 28.4483 171.739 26.8665C170.857 25.2921 170.412 23.44 170.412 21.3045C170.412 19.1757 170.85 17.3241 171.724 15.7644C172.592 14.197 173.816 12.9942 175.376 12.1484C176.936 11.2956 178.737 10.8726 180.778 10.8726C182.79 10.8726 184.569 11.2882 186.122 12.1121C187.674 12.9358 188.884 14.1167 189.752 15.6548C190.627 17.1929 191.064 19.0011 191.064 21.0857ZM161.293 10.9456C163.647 10.9456 165.513 11.7256 166.891 13.293C168.276 14.853 168.969 16.9669 168.969 19.635V31.5245H161.84V20.5826C161.84 19.4164 161.533 18.5053 160.928 17.8346C160.323 17.1711 159.514 16.8357 158.494 16.8357C157.429 16.8357 156.591 17.1711 155.986 17.8346C155.381 18.5053 155.075 19.4164 155.075 20.5826V31.5245H147.953V11.1277H155.075V14.0365C155.709 13.1182 156.554 12.3672 157.619 11.7986C158.69 11.2301 159.915 10.9456 161.293 10.9456ZM145.197 31.5245H138.067V11.128H145.197V31.5245ZM141.669 9.23986C140.408 9.23986 139.394 8.89011 138.629 8.19756C137.871 7.51222 137.484 6.64481 137.484 5.60226C137.484 4.53785 137.871 3.64858 138.629 2.94883C139.394 2.24188 140.408 1.89187 141.669 1.89187C142.901 1.89187 143.907 2.24188 144.665 2.94883C145.43 3.64858 145.809 4.53785 145.809 5.60226C145.809 6.64481 145.43 7.51222 144.665 8.19756C143.907 8.89011 142.901 9.23986 141.669 9.23986ZM136.114 25.4523V31.5245H133.023C127.811 31.5245 125.201 28.9441 125.201 23.7828V17.0543H122.694V11.1277H125.201V5.69716H132.367V11.1277H136.077V17.0543H132.367V23.8852C132.367 24.446 132.491 24.8472 132.746 25.0879C133.002 25.3284 133.431 25.4523 134.037 25.4523H136.114ZM113.793 10.9456C116.147 10.9456 118.014 11.7256 119.392 13.293C120.776 14.853 121.469 16.9669 121.469 19.635V31.5245H114.34V20.5826C114.34 19.4164 114.034 18.5053 113.428 17.8346C112.823 17.1711 112.014 16.8357 110.994 16.8357C109.929 16.8357 109.091 17.1711 108.486 17.8346C107.881 18.5053 107.575 19.4164 107.575 20.5826V31.5245H100.453V11.1277H107.575V14.0365C108.209 13.1182 109.055 12.3672 110.126 11.7986C111.19 11.2301 112.415 10.9456 113.793 10.9456ZM91.5884 19.3068C91.5884 18.4325 91.2968 17.7471 90.7136 17.2513C90.1306 16.7555 89.4087 16.5076 88.5341 16.5076C87.6592 16.5076 86.9451 16.7411 86.3909 17.2148C85.8295 17.6885 85.4651 18.3885 85.2977 19.3068H91.5884ZM98.8564 21.0857C98.8564 21.647 98.8199 22.201 98.7469 22.7624H85.2609C85.3337 23.8777 85.6402 24.7086 86.1869 25.2481C86.7337 25.7949 87.4331 26.0718 88.279 26.0718C89.4671 26.0718 90.3126 25.5395 90.8231 24.4681H98.419C98.1055 25.8751 97.4932 27.1288 96.5893 28.2294C95.6781 29.3376 94.5335 30.2052 93.1487 30.832C91.7708 31.4661 90.2398 31.7796 88.5703 31.7796C86.5585 31.7796 84.7728 31.3571 83.2054 30.5041C81.6451 29.6585 80.4205 28.4483 79.5315 26.8665C78.6492 25.2921 78.2045 23.44 78.2045 21.3045C78.2045 19.1757 78.642 17.3241 79.5168 15.7644C80.3912 14.197 81.6089 12.9942 83.1688 12.1484C84.736 11.2956 86.5367 10.8726 88.5703 10.8726C90.5824 10.8726 92.361 11.2882 93.9137 12.1121C95.4667 12.9358 96.6767 14.1167 97.5516 15.6548C98.419 17.1929 98.8564 19.0011 98.8564 21.0857ZM67.8169 31.7796C64.8353 31.7796 62.3858 31.0655 60.4686 29.6513C58.5589 28.2294 57.5238 26.203 57.3777 23.5642H64.9811C65.0539 24.4607 65.3162 25.1098 65.7829 25.5251C66.2422 25.9335 66.8324 26.1449 67.5617 26.1449C68.2178 26.1449 68.7571 25.9772 69.1801 25.6491C69.6026 25.3212 69.814 24.8691 69.814 24.2858C69.814 23.5349 69.4643 22.9519 68.7643 22.5435C68.0571 22.1282 66.9201 21.6689 65.3455 21.1587C63.6688 20.6048 62.3202 20.0652 61.2923 19.5403C60.257 19.0227 59.3605 18.2571 58.6026 17.2513C57.837 16.2455 57.4508 14.933 57.4508 13.3077C57.4508 11.6603 57.8664 10.2459 58.6901 9.07218C59.5138 7.89874 60.6509 7.0092 62.1091 6.40409C63.5595 5.79178 65.2069 5.49297 67.0513 5.49297C70.0328 5.49297 72.4165 6.18551 74.1953 7.58526C75.9813 8.97755 76.929 10.9312 77.0527 13.4533H69.3038C69.2819 12.6805 69.0487 12.0975 68.5966 11.711C68.1519 11.3175 67.5762 11.1277 66.8689 11.1277C66.3369 11.1277 65.8997 11.2882 65.5641 11.6017C65.2215 11.9154 65.0539 12.3598 65.0539 12.943C65.0539 13.4314 65.2434 13.8472 65.615 14.197C65.9941 14.5542 66.4606 14.853 67.0148 15.1081C67.5761 15.3632 68.4001 15.6839 69.4859 16.0702C71.1117 16.6318 72.4528 17.1783 73.5025 17.7253C74.5597 18.272 75.4711 19.0371 76.229 20.0141C76.9943 20.9982 77.3806 22.2378 77.3806 23.7465C77.3806 25.27 76.9943 26.6404 76.229 27.8506C75.4711 29.0606 74.363 30.0229 72.9267 30.7227C71.4835 31.4299 69.7777 31.7796 67.8169 31.7796Z" fill="black"/>
<path d="M58.1964 43.2875C58.1964 42.412 58.3919 41.63 58.7829 40.9415C59.1824 40.2445 59.7221 39.7047 60.4021 39.3222C61.0906 38.9312 61.8599 38.7357 62.7099 38.7357C63.7044 38.7357 64.5756 38.9907 65.3236 39.5007C66.0716 40.0107 66.5944 40.7162 66.8919 41.6172H64.8391C64.6351 41.1922 64.3461 40.8735 63.9721 40.661C63.6066 40.4485 63.1816 40.3422 62.6971 40.3422C62.1786 40.3422 61.7154 40.4655 61.3074 40.712C60.9079 40.95 60.5934 41.29 60.3639 41.732C60.1429 42.174 60.0324 42.6925 60.0324 43.2875C60.0324 43.874 60.1429 44.3925 60.3639 44.843C60.5934 45.285 60.9079 45.6292 61.3074 45.8758C61.7154 46.1137 62.1786 46.2327 62.6971 46.2327C63.1816 46.2327 63.6066 46.1265 63.9721 45.914C64.3461 45.693 64.6351 45.37 64.8391 44.945H66.8919C66.5944 45.8545 66.0716 46.5642 65.3236 47.0742C64.5841 47.5757 63.7129 47.8265 62.7099 47.8265C61.8599 47.8265 61.0906 47.6352 60.4021 47.2527C59.7221 46.8617 59.1824 46.322 58.7829 45.6335C58.3919 44.945 58.1964 44.163 58.1964 43.2875ZM80.07 47.8393C79.237 47.8393 78.472 47.6437 77.775 47.2527C77.078 46.8617 76.5255 46.322 76.1175 45.6335C75.7095 44.9365 75.5055 44.1502 75.5055 43.2747C75.5055 42.4077 75.7095 41.63 76.1175 40.9415C76.5255 40.2445 77.078 39.7005 77.775 39.3095C78.472 38.9185 79.237 38.723 80.07 38.723C80.9115 38.723 81.6765 38.9185 82.365 39.3095C83.062 39.7005 83.6102 40.2445 84.0097 40.9415C84.4177 41.63 84.6217 42.4077 84.6217 43.2747C84.6217 44.1502 84.4177 44.9365 84.0097 45.6335C83.6102 46.322 83.062 46.8617 82.365 47.2527C81.668 47.6437 80.903 47.8393 80.07 47.8393ZM80.07 46.2455C80.6055 46.2455 81.0772 46.1265 81.4852 45.8885C81.8932 45.642 82.212 45.2935 82.4415 44.843C82.671 44.3925 82.7857 43.8697 82.7857 43.2747C82.7857 42.6797 82.671 42.1612 82.4415 41.7192C82.212 41.2687 81.8932 40.9245 81.4852 40.6865C81.0772 40.4485 80.6055 40.3295 80.07 40.3295C79.5345 40.3295 79.0585 40.4485 78.642 40.6865C78.234 40.9245 77.9152 41.2687 77.6857 41.7192C77.4562 42.1612 77.3415 42.6797 77.3415 43.2747C77.3415 43.8697 77.4562 44.3925 77.6857 44.843C77.9152 45.2935 78.234 45.642 78.642 45.8885C79.0585 46.1265 79.5345 46.2455 80.07 46.2455ZM96.5832 38.8505C97.5182 38.8505 98.3385 39.0332 99.044 39.3987C99.758 39.7642 100.306 40.287 100.689 40.967C101.08 41.6385 101.275 42.4205 101.275 43.313C101.275 44.2055 101.08 44.9875 100.689 45.659C100.306 46.322 99.758 46.8362 99.044 47.2017C98.3385 47.5672 97.5182 47.75 96.5832 47.75H93.4722V38.8505H96.5832ZM96.5195 46.2327C97.4545 46.2327 98.177 45.9777 98.687 45.4677C99.197 44.9577 99.452 44.2395 99.452 43.313C99.452 42.3865 99.197 41.664 98.687 41.1455C98.177 40.6185 97.4545 40.355 96.5195 40.355H95.2572V46.2327H96.5195ZM111.919 40.2912V42.5225H114.915V43.9377H111.919V46.2965H115.298V47.75H110.134V38.8377H115.298V40.2912H111.919ZM127.515 47.8393C126.895 47.8393 126.334 47.733 125.832 47.5205C125.339 47.308 124.948 47.002 124.659 46.6025C124.37 46.203 124.221 45.7312 124.213 45.1872H126.125C126.151 45.5527 126.278 45.8417 126.508 46.0542C126.746 46.2667 127.069 46.373 127.477 46.373C127.893 46.373 128.221 46.2752 128.459 46.0797C128.697 45.8757 128.816 45.6122 128.816 45.2892C128.816 45.0257 128.735 44.809 128.573 44.639C128.412 44.469 128.208 44.3372 127.961 44.2437C127.723 44.1417 127.392 44.0312 126.967 43.9122C126.389 43.7422 125.917 43.5765 125.552 43.415C125.195 43.245 124.884 42.9942 124.621 42.6627C124.366 42.3227 124.238 41.8722 124.238 41.3113C124.238 40.7842 124.37 40.3252 124.634 39.9342C124.897 39.5432 125.267 39.2457 125.743 39.0417C126.219 38.8292 126.763 38.723 127.375 38.723C128.293 38.723 129.037 38.9482 129.606 39.3987C130.184 39.8407 130.503 40.4612 130.562 41.2602H128.599C128.582 40.9542 128.45 40.7035 128.204 40.508C127.966 40.304 127.647 40.202 127.247 40.202C126.899 40.202 126.618 40.2912 126.406 40.4697C126.202 40.6482 126.1 40.9075 126.1 41.2475C126.1 41.4855 126.176 41.6852 126.329 41.8467C126.491 41.9997 126.686 42.1272 126.916 42.2292C127.154 42.3227 127.485 42.4332 127.91 42.5607C128.488 42.7307 128.96 42.9007 129.326 43.0707C129.691 43.2407 130.006 43.4957 130.269 43.8357C130.533 44.1757 130.664 44.622 130.664 45.1745C130.664 45.6505 130.541 46.0925 130.295 46.5005C130.048 46.9085 129.687 47.2357 129.211 47.4822C128.735 47.7202 128.17 47.8393 127.515 47.8393Z" fill="black"/>
</svg>
