<svg width="134" height="32" viewBox="0 0 134 32" fill="none" xmlns="http://www.w3.org/2000/svg">
<path fill-rule="evenodd" clip-rule="evenodd" d="M15.438 0C23.964 0 30.8758 6.91191 30.8758 15.438C30.8758 17.8245 30.3342 20.0846 29.3671 22.1018L31.6335 24.3683C32.122 24.8567 32.122 25.6486 31.6335 26.1372C31.1451 26.6255 30.3532 26.6255 29.8648 26.1372L28.0583 24.3306C27.7894 24.7112 27.5035 25.0791 27.2021 25.4333L29.418 27.6494C29.9064 28.1378 29.9064 28.9297 29.418 29.418C28.9295 29.9066 28.1376 29.9066 27.6492 29.418L25.4333 27.2022C25.0791 27.5035 24.7112 27.7894 24.3306 28.0584L26.1371 29.8649C26.6255 30.3532 26.6255 31.1453 26.1371 31.6335C25.6486 32.1222 24.8567 32.1222 24.3683 31.6335L22.1018 29.3671C20.0844 30.3342 17.8245 30.8758 15.438 30.8758C6.91191 30.8758 0 23.964 0 15.438C0 6.91191 6.91191 0 15.438 0Z" fill="white"/>
<path fill-rule="evenodd" clip-rule="evenodd" d="M15.4375 4.64091C21.4003 4.64091 26.2343 9.47475 26.2343 15.4377C26.2343 21.4005 21.4003 26.2344 15.4375 26.2344C9.47471 26.2344 4.64069 21.4005 4.64069 15.4377C4.64069 9.47475 9.47471 4.64091 15.4375 4.64091Z" fill="#090909"/>
<path fill-rule="evenodd" clip-rule="evenodd" d="M15.4384 8.32066C19.3696 8.32066 22.5563 11.5075 22.5563 15.4387C22.5563 19.3699 19.3696 22.5566 15.4384 22.5566C11.5072 22.5566 8.32037 19.3699 8.32037 15.4387C8.32037 11.5075 11.5072 8.32066 15.4384 8.32066Z" fill="#52B69A"/>
<path fill-rule="evenodd" clip-rule="evenodd" d="M11.3959 9.04086C12.6968 9.04086 13.7515 10.0954 13.7515 11.3965C13.7515 12.6974 12.6968 13.752 11.3959 13.752C10.095 13.752 9.04028 12.6974 9.04028 11.3965C9.04028 10.0954 10.095 9.04086 11.3959 9.04086Z" fill="white"/>
<path fill-rule="evenodd" clip-rule="evenodd" d="M15.4383 12.1041C17.28 12.1041 18.7731 13.597 18.7731 15.4389C18.7731 17.2805 17.28 18.7734 15.4383 18.7734C13.5965 18.7734 12.1036 17.2805 12.1036 15.4389C12.1036 13.597 13.5965 12.1041 15.4383 12.1041Z" fill="black"/>
<path d="M133.188 21.0155H128.44V3.79725H133.188V21.0155ZM122.531 12.8704C122.531 12.2875 122.336 11.8306 121.948 11.5C121.559 11.1695 121.073 11.0042 120.494 11.0042C119.911 11.0042 119.435 11.1599 119.061 11.4757C118.692 11.7915 118.449 12.2581 118.337 12.8704H122.531ZM127.376 14.0562C127.376 14.4305 127.352 14.7998 127.303 15.1741H118.312C118.361 15.9176 118.565 16.4715 118.93 16.8312C119.294 17.1957 119.756 17.3804 120.324 17.3804C121.116 17.3804 121.68 17.0255 122.021 16.3112H127.084C126.875 17.2492 126.467 18.085 125.86 18.8188C125.257 19.5575 124.494 20.136 123.571 20.5538C122.647 20.9766 121.632 21.1855 120.519 21.1855C119.178 21.1855 117.982 20.9039 116.942 20.3352C115.897 19.7715 115.085 18.9647 114.493 17.9101C113.905 16.8605 113.608 15.6258 113.608 14.2021C113.608 12.7829 113.9 11.5485 114.483 10.5087C115.061 9.46379 115.878 8.66195 116.918 8.09807C117.958 7.52957 119.158 7.24754 120.519 7.24754C121.86 7.24754 123.046 7.52459 124.081 8.07389C125.116 8.62303 125.923 9.41029 126.501 10.4357C127.084 11.4611 127.376 12.6665 127.376 14.0562ZM107.529 7.29623C109.098 7.29623 110.342 7.81622 111.261 8.86117C112.184 9.90114 112.646 11.3104 112.646 13.0891V21.0155H107.893V13.7209C107.893 12.9434 107.689 12.336 107.285 11.8889C106.882 11.4465 106.343 11.223 105.662 11.223C104.953 11.223 104.394 11.4465 103.991 11.8889C103.587 12.336 103.383 12.9434 103.383 13.7209V21.0155H98.6351V7.41761H103.383V9.35681C103.806 8.74458 104.37 8.24397 105.079 7.8649C105.794 7.48584 106.61 7.29623 107.529 7.29623ZM96.7981 21.0155H92.045V7.41778H96.7981V21.0155ZM94.446 6.15905C93.6051 6.15905 92.9296 5.92588 92.4192 5.46418C91.914 5.00729 91.6563 4.42901 91.6563 3.73398C91.6563 3.02438 91.914 2.43153 92.4192 1.96503C92.9296 1.49373 93.6051 1.26039 94.446 1.26039C95.2672 1.26039 95.9379 1.49373 96.4433 1.96503C96.9535 2.43153 97.2063 3.02438 97.2063 3.73398C97.2063 4.42901 96.9535 5.00729 96.4433 5.46418C95.9379 5.92588 95.2672 6.15905 94.446 6.15905ZM90.7427 16.9674V21.0155H88.6823C85.2074 21.0155 83.4676 19.2952 83.4676 15.8543V11.3687H81.7959V7.41761H83.4676V3.79725H88.2447V7.41761H90.7183V11.3687H88.2447V15.9226C88.2447 16.2965 88.3274 16.5639 88.4974 16.7244C88.6677 16.8847 88.9542 16.9674 89.3577 16.9674H90.7427ZM75.8619 7.29623C77.4316 7.29623 78.6758 7.81622 79.5944 8.86117C80.5176 9.90114 80.9793 11.3104 80.9793 13.0891V21.0155H76.2264V13.7209C76.2264 12.9434 76.0224 12.336 75.619 11.8889C75.2156 11.4465 74.676 11.223 73.9957 11.223C73.2863 11.223 72.7274 11.4465 72.324 11.8889C71.9206 12.336 71.7166 12.9434 71.7166 13.7209V21.0155H66.9684V7.41761H71.7166V9.35681C72.1392 8.74458 72.703 8.24397 73.4173 7.8649C74.1269 7.48584 74.9435 7.29623 75.8619 7.29623ZM61.059 12.8704C61.059 12.2875 60.8645 11.8306 60.4757 11.5C60.087 11.1695 59.6058 11.0042 59.0227 11.0042C58.4395 11.0042 57.9634 11.1599 57.5939 11.4757C57.2197 11.7915 56.9767 12.2581 56.8651 12.8704H61.059ZM65.9043 14.0562C65.9043 14.4305 65.8799 14.7998 65.8313 15.1741H56.8406C56.8891 15.9176 57.0935 16.4715 57.458 16.8312C57.8224 17.1957 58.2888 17.3804 58.8526 17.3804C59.6447 17.3804 60.2084 17.0255 60.5487 16.3112H65.6127C65.4037 17.2492 64.9955 18.085 64.3928 18.8188C63.7854 19.5575 63.0223 20.136 62.0991 20.5538C61.1805 20.9766 60.1599 21.1855 59.0469 21.1855C57.7057 21.1855 56.5152 20.9039 55.4702 20.3352C54.4301 19.7715 53.6137 18.9647 53.021 17.9101C52.4328 16.8605 52.1364 15.6258 52.1364 14.2021C52.1364 12.7829 52.428 11.5485 53.0112 10.5087C53.5941 9.46379 54.4059 8.66195 55.4459 8.09807C56.4907 7.52957 57.6911 7.24754 59.0469 7.24754C60.3883 7.24754 61.574 7.52459 62.6091 8.07389C63.6445 8.62303 64.4511 9.41029 65.0344 10.4357C65.6127 11.4611 65.9043 12.6665 65.9043 14.0562ZM45.2112 21.1855C43.2235 21.1855 41.5905 20.7094 40.3124 19.7667C39.0393 18.8188 38.3492 17.4678 38.2518 15.7086H43.3207C43.3693 16.3063 43.5441 16.739 43.8553 17.0159C44.1615 17.2881 44.555 17.429 45.0412 17.429C45.4785 17.429 45.838 17.3173 46.1201 17.0985C46.4017 16.8799 46.5427 16.5785 46.5427 16.1897C46.5427 15.6891 46.3095 15.3004 45.8428 15.0282C45.3714 14.7513 44.6134 14.4451 43.5637 14.1049C42.4459 13.7356 41.5468 13.376 40.8616 13.026C40.1713 12.6809 39.5737 12.1705 39.0684 11.5C38.558 10.8295 38.3005 9.95446 38.3005 8.87094C38.3005 7.77267 38.5776 6.82973 39.1267 6.04726C39.6758 5.26497 40.434 4.67194 41.406 4.26854C42.373 3.86033 43.4713 3.66112 44.7009 3.66112C46.6886 3.66112 48.2777 4.12281 49.4636 5.05598C50.6542 5.98417 51.286 7.28663 51.3685 8.96797H46.2025C46.1879 8.45279 46.0324 8.06412 45.7311 7.80644C45.4346 7.54413 45.0508 7.41761 44.5793 7.41761C44.2246 7.41761 43.9331 7.52459 43.7094 7.73358C43.481 7.94274 43.3692 8.239 43.3692 8.62783C43.3692 8.9534 43.4956 9.23063 43.7433 9.46379C43.996 9.70193 44.307 9.90114 44.6765 10.0712C45.0508 10.2413 45.6001 10.4551 46.3239 10.7126C47.4078 11.087 48.3018 11.4513 49.0017 11.816C49.7065 12.1805 50.3141 12.6905 50.8193 13.3418C51.3295 13.998 51.5871 14.8243 51.5871 15.8302C51.5871 16.8458 51.3295 17.7594 50.8193 18.5662C50.3141 19.3729 49.5753 20.0144 48.6178 20.4809C47.6557 20.9524 46.5185 21.1855 45.2112 21.1855Z" fill="white"/>
<path d="M38.7976 28.525C38.7976 27.9413 38.9279 27.42 39.1886 26.961C39.4549 26.4963 39.8147 26.1365 40.2681 25.8815C40.7271 25.6208 41.2399 25.4905 41.8066 25.4905C42.4696 25.4905 43.0504 25.6605 43.5491 26.0005C44.0477 26.3405 44.3962 26.8108 44.5946 27.4115H43.2261C43.0901 27.1282 42.8974 26.9157 42.6481 26.774C42.4044 26.6323 42.1211 26.5615 41.7981 26.5615C41.4524 26.5615 41.1436 26.6437 40.8716 26.808C40.6052 26.9667 40.3956 27.1933 40.2426 27.488C40.0952 27.7827 40.0216 28.1283 40.0216 28.525C40.0216 28.916 40.0952 29.2617 40.2426 29.562C40.3956 29.8567 40.6052 30.0862 40.8716 30.2505C41.1436 30.4092 41.4524 30.4885 41.7981 30.4885C42.1211 30.4885 42.4044 30.4177 42.6481 30.276C42.8974 30.1287 43.0901 29.9133 43.2261 29.63H44.5946C44.3962 30.2363 44.0477 30.7095 43.5491 31.0495C43.0561 31.3838 42.4752 31.551 41.8066 31.551C41.2399 31.551 40.7271 31.4235 40.2681 31.1685C39.8147 30.9078 39.4549 30.548 39.1886 30.089C38.9279 29.63 38.7976 29.1087 38.7976 28.525ZM53.38 31.5595C52.8246 31.5595 52.3146 31.4292 51.85 31.1685C51.3853 30.9078 51.017 30.548 50.745 30.089C50.473 29.6243 50.337 29.1002 50.337 28.5165C50.337 27.9385 50.473 27.42 50.745 26.961C51.017 26.4963 51.3853 26.1337 51.85 25.873C52.3146 25.6123 52.8246 25.482 53.38 25.482C53.941 25.482 54.451 25.6123 54.91 25.873C55.3746 26.1337 55.7401 26.4963 56.0065 26.961C56.2785 27.42 56.4145 27.9385 56.4145 28.5165C56.4145 29.1002 56.2785 29.6243 56.0065 30.089C55.7401 30.548 55.3746 30.9078 54.91 31.1685C54.4453 31.4292 53.9353 31.5595 53.38 31.5595ZM53.38 30.497C53.737 30.497 54.0515 30.4177 54.3235 30.259C54.5955 30.0947 54.808 29.8623 54.961 29.562C55.114 29.2617 55.1905 28.9132 55.1905 28.5165C55.1905 28.1198 55.114 27.7742 54.961 27.4795C54.808 27.1792 54.5955 26.9497 54.3235 26.791C54.0515 26.6323 53.737 26.553 53.38 26.553C53.023 26.553 52.7056 26.6323 52.428 26.791C52.156 26.9497 51.9435 27.1792 51.7905 27.4795C51.6375 27.7742 51.561 28.1198 51.561 28.5165C51.561 28.9132 51.6375 29.2617 51.7905 29.562C51.9435 29.8623 52.156 30.0947 52.428 30.259C52.7056 30.4177 53.023 30.497 53.38 30.497ZM64.3888 25.567C65.0121 25.567 65.559 25.6888 66.0293 25.9325C66.5053 26.1762 66.8708 26.5247 67.1258 26.978C67.3865 27.4257 67.5168 27.947 67.5168 28.542C67.5168 29.137 67.3865 29.6583 67.1258 30.106C66.8708 30.548 66.5053 30.8908 66.0293 31.1345C65.559 31.3782 65.0121 31.5 64.3888 31.5H62.3148V25.567H64.3888ZM64.3463 30.4885C64.9696 30.4885 65.4513 30.3185 65.7913 29.9785C66.1313 29.6385 66.3013 29.1597 66.3013 28.542C66.3013 27.9243 66.1313 27.4427 65.7913 27.097C65.4513 26.7457 64.9696 26.57 64.3463 26.57H63.5048V30.4885H64.3463ZM74.6126 26.5275V28.015H76.6101V28.9585H74.6126V30.531H76.8651V31.5H73.4226V25.5585H76.8651V26.5275H74.6126ZM85.01 31.5595C84.5963 31.5595 84.2223 31.4887 83.888 31.347C83.5593 31.2053 83.2987 31.0013 83.106 30.735C82.9133 30.4687 82.8142 30.1542 82.8085 29.7915H84.0835C84.1005 30.0352 84.1855 30.2278 84.3385 30.3695C84.4972 30.5112 84.7125 30.582 84.9845 30.582C85.2622 30.582 85.4803 30.5168 85.639 30.3865C85.7977 30.2505 85.877 30.0748 85.877 29.8595C85.877 29.6838 85.8232 29.5393 85.7155 29.426C85.6078 29.3127 85.4718 29.2248 85.3075 29.1625C85.1488 29.0945 84.9278 29.0208 84.6445 28.9415C84.2592 28.8282 83.9447 28.7177 83.701 28.61C83.463 28.4967 83.2562 28.3295 83.0805 28.1085C82.9105 27.8818 82.8255 27.5815 82.8255 27.2075C82.8255 26.8562 82.9133 26.5502 83.089 26.2895C83.2647 26.0288 83.5112 25.8305 83.8285 25.6945C84.1458 25.5528 84.5085 25.482 84.9165 25.482C85.5285 25.482 86.0243 25.6322 86.404 25.9325C86.7893 26.2272 87.0018 26.6408 87.0415 27.1735H85.7325C85.7212 26.9695 85.6333 26.8023 85.469 26.672C85.3103 26.536 85.0978 26.468 84.8315 26.468C84.5992 26.468 84.4122 26.5275 84.2705 26.6465C84.1345 26.7655 84.0665 26.9383 84.0665 27.165C84.0665 27.3237 84.1175 27.4568 84.2195 27.5645C84.3272 27.6665 84.4575 27.7515 84.6105 27.8195C84.7692 27.8818 84.9902 27.9555 85.2735 28.0405C85.6588 28.1538 85.9733 28.2672 86.217 28.3805C86.4607 28.4938 86.6703 28.6638 86.846 28.8905C87.0217 29.1172 87.1095 29.4147 87.1095 29.783C87.1095 30.1003 87.0273 30.395 86.863 30.667C86.6987 30.939 86.4578 31.1572 86.1405 31.3215C85.8232 31.4802 85.4463 31.5595 85.01 31.5595Z" fill="white"/>
</svg>
