<svg width="1920" height="1080" viewBox="0 0 1920 1080" fill="none" xmlns="http://www.w3.org/2000/svg">
<rect width="1920" height="1080" fill="#090909"/>
<mask id="path-1-inside-1_1067_67084" fill="white">
<path d="M56 56H1864V1024H56V56Z"/>
</mask>
<path d="M56 56V57H1864V56V55H56V56Z" fill="#222222" mask="url(#path-1-inside-1_1067_67084)"/>
<mask id="path-3-inside-2_1067_67084" fill="white">
<path d="M56 56H817V1024H56V56Z"/>
</mask>
<path d="M56 56V57H817V56V55H56V56Z" fill="#222222" mask="url(#path-3-inside-2_1067_67084)"/>
<path d="M58.38 96V82.04H60.1V94.5H67.6V96H58.38ZM75.4878 96.24C72.1278 96.24 70.0878 94.06 70.0878 90.52C70.0878 86.96 72.1278 84.8 75.4878 84.8C78.8678 84.8 80.9078 86.96 80.9078 90.52C80.9078 94.06 78.8678 96.24 75.4878 96.24ZM75.4878 94.84C77.8278 94.84 79.2478 93.18 79.2478 90.52C79.2478 87.84 77.8278 86.2 75.4878 86.2C73.1478 86.2 71.7478 87.84 71.7478 90.52C71.7478 93.18 73.1478 94.84 75.4878 94.84ZM91.7756 86.76L91.8356 85.04H93.3756V94.9C93.3756 98.08 91.6356 99.8 88.2556 99.8C85.4356 99.8 83.6556 98.62 83.4556 96.24H85.1756C85.2956 97.6 86.3156 98.4 88.3356 98.4C90.5356 98.4 91.7156 97.22 91.7156 95.12V93.38C90.9756 94.6 89.6156 95.34 87.9956 95.34C85.1156 95.34 83.1356 93.16 83.1356 90.08C83.1356 86.84 85.1756 84.8 88.0556 84.8C89.6756 84.8 91.0556 85.6 91.7756 86.76ZM88.3156 94.02C89.8756 94.02 91.2156 93.08 91.7156 91.54V88.6C91.2156 87.06 89.8756 86.12 88.3156 86.12C86.1956 86.12 84.7956 87.72 84.7956 90.06C84.7956 92.4 86.1956 94.02 88.3156 94.02ZM101.503 96.24C98.1434 96.24 96.1034 94.06 96.1034 90.52C96.1034 86.96 98.1434 84.8 101.503 84.8C104.883 84.8 106.923 86.96 106.923 90.52C106.923 94.06 104.883 96.24 101.503 96.24ZM101.503 94.84C103.843 94.84 105.263 93.18 105.263 90.52C105.263 87.84 103.843 86.2 101.503 86.2C99.1634 86.2 97.7634 87.84 97.7634 90.52C97.7634 93.18 99.1634 94.84 101.503 94.84ZM127.899 96.24C124.519 96.24 122.379 94 122.379 90.52C122.379 87.02 124.619 84.8 127.919 84.8C130.459 84.8 132.479 86.32 132.739 88.7H131.079C130.839 87.12 129.599 86.2 127.919 86.2C125.579 86.2 124.039 87.86 124.039 90.52C124.039 93.2 125.559 94.84 127.899 94.84C129.399 94.84 130.779 93.88 131.139 92.34H132.799C132.359 94.74 130.299 96.24 127.899 96.24ZM135.527 96V94.66H139.727V82.68H136.987V81.34H141.367V94.66H145.607V96H135.527ZM153.675 96.24C150.295 96.24 148.255 94.08 148.255 90.5C148.255 86.96 150.295 84.8 153.715 84.8C157.115 84.8 158.915 86.8 158.735 90.06H149.935C149.915 90.22 149.915 90.38 149.915 90.54C149.915 93.14 151.295 94.84 153.675 94.84C155.555 94.84 156.915 93.88 157.195 92.34H158.855C158.455 94.76 156.495 96.24 153.675 96.24ZM153.715 86.18C151.875 86.18 150.635 87.12 150.155 88.76L157.035 88.8C156.935 87.18 155.615 86.18 153.715 86.18ZM165.563 96.24C163.403 96.24 161.943 95.06 161.943 93.08C161.943 90.82 163.763 89.5 166.903 89.5H169.603V88.9C169.603 87.16 168.423 86.1 166.483 86.1C164.623 86.1 163.323 87.04 163.223 88.54H161.603C161.783 86.2 163.763 84.8 166.523 84.8C169.423 84.8 171.243 86.36 171.243 88.96V96H169.683L169.623 94.06C168.823 95.46 167.463 96.24 165.563 96.24ZM163.583 93C163.583 94.18 164.463 94.86 165.823 94.86C167.463 94.86 168.763 93.96 169.603 92.42V90.78H166.823C164.783 90.78 163.583 91.6 163.583 93ZM175.33 96V85.04H176.85L176.95 87.18C177.83 85.62 179.15 84.8 180.81 84.8C182.97 84.8 184.43 86.1 184.43 88.24V89.5H182.77V88.24C182.77 87.02 181.99 86.22 180.61 86.22C179.05 86.22 177.77 87.26 176.99 89.3V96H175.33ZM205.886 96.24C203.006 96.24 201.126 94.66 201.086 92.08H202.666C202.686 93.86 203.946 94.92 205.866 94.92C207.526 94.92 208.646 94.24 208.646 93.14C208.646 90.16 201.266 92.08 201.266 87.98C201.266 86.16 202.866 84.8 205.586 84.8C208.306 84.8 210.026 86.16 210.146 88.3H208.566C208.486 86.92 207.366 86.12 205.586 86.12C203.846 86.12 202.946 86.92 202.946 87.92C202.946 90.66 210.306 88.56 210.306 93.04C210.306 95.02 208.566 96.24 205.886 96.24ZM219.134 84.8C222.074 84.8 224.114 87.12 224.114 90.52C224.114 93.9 222.074 96.24 219.134 96.24C217.554 96.24 216.214 95.52 215.434 94.4V99.56H213.774V85.04H215.334L215.394 86.68C216.174 85.54 217.534 84.8 219.134 84.8ZM218.814 94.82C220.994 94.82 222.454 93.08 222.454 90.52C222.454 87.94 220.994 86.22 218.814 86.22C217.314 86.22 216.014 87.1 215.434 88.54V92.48C216.014 93.94 217.314 94.82 218.814 94.82ZM230.602 96.24C228.442 96.24 226.982 95.06 226.982 93.08C226.982 90.82 228.802 89.5 231.942 89.5H234.642V88.9C234.642 87.16 233.462 86.1 231.522 86.1C229.662 86.1 228.362 87.04 228.262 88.54H226.642C226.822 86.2 228.802 84.8 231.562 84.8C234.462 84.8 236.282 86.36 236.282 88.96V96H234.722L234.662 94.06C233.862 95.46 232.502 96.24 230.602 96.24ZM228.622 93C228.622 94.18 229.502 94.86 230.862 94.86C232.502 94.86 233.802 93.96 234.642 92.42V90.78H231.862C229.822 90.78 228.622 91.6 228.622 93ZM244.969 96.24C241.589 96.24 239.449 94 239.449 90.52C239.449 87.02 241.689 84.8 244.989 84.8C247.529 84.8 249.549 86.32 249.809 88.7H248.149C247.909 87.12 246.669 86.2 244.989 86.2C242.649 86.2 241.109 87.86 241.109 90.52C241.109 93.2 242.629 94.84 244.969 94.84C246.469 94.84 247.849 93.88 248.209 92.34H249.869C249.429 94.74 247.369 96.24 244.969 96.24ZM257.737 96.24C254.357 96.24 252.317 94.08 252.317 90.5C252.317 86.96 254.357 84.8 257.777 84.8C261.177 84.8 262.977 86.8 262.797 90.06H253.997C253.977 90.22 253.977 90.38 253.977 90.54C253.977 93.14 255.357 94.84 257.737 94.84C259.617 94.84 260.977 93.88 261.257 92.34H262.917C262.517 94.76 260.557 96.24 257.737 96.24ZM257.777 86.18C255.937 86.18 254.697 87.12 254.217 88.76L261.097 88.8C260.997 87.18 259.677 86.18 257.777 86.18Z" fill="#939393"/>
<path d="M56 1008V1024H72" stroke="#939393"/>
<g clip-path="url(#clip0_1067_67084)">
<rect x="816.5" y="580.5" width="1047" height="161" stroke="#222222"/>
<rect x="0.5" y="-0.5" width="1047" height="31" transform="matrix(1 0 0 -1 816 580)" stroke="#222222"/>
<rect x="0.5" y="-0.5" width="1047" height="56" transform="matrix(1 0 0 -1 816 580)" stroke="#222222"/>
<rect x="816.5" y="258.5" width="1047" height="159" stroke="#222222"/>
<rect x="816.5" y="16.5" width="183" height="1007" stroke="#222222"/>
<rect x="-0.5" y="0.5" width="158" height="1007" transform="matrix(-1 0 0 1 1157 16)" stroke="#222222"/>
<rect x="-0.5" y="0.5" width="486" height="1007" transform="matrix(-1 0 0 1 1680 16)" stroke="#222222"/>
<rect x="1680.5" y="16.5" width="183" height="1007" stroke="#222222"/>
<path d="M1124.1 578.58C1126.4 580.885 1130.14 580.885 1132.44 578.58C1134.75 576.276 1134.75 572.539 1132.44 570.235L1123.2 560.988L1122.77 560.567L1123.26 560.224C1125.2 558.855 1127.07 557.401 1128.87 555.868L1129.22 555.568L1140.89 567.238C1143.13 569.472 1146.7 569.542 1149.02 567.448L1149.24 567.238C1151.54 564.935 1151.54 561.198 1149.24 558.894L1137.57 547.223L1137.87 546.87C1139.4 545.068 1140.86 543.197 1142.22 541.261L1142.57 540.774L1142.99 541.195L1152.23 550.444C1154.54 552.748 1158.28 552.748 1160.58 550.444C1162.88 548.139 1162.88 544.402 1160.58 542.098L1148.73 530.244L1148.88 529.924C1153.8 519.664 1156.55 508.168 1156.55 496.028C1156.55 452.66 1121.4 417.502 1078.03 417.502C1034.66 417.502 999.502 452.66 999.502 496.028C999.502 539.397 1034.66 574.554 1078.03 574.554C1090.17 574.554 1101.66 571.799 1111.92 566.88L1112.24 566.727L1124.1 578.58Z" stroke="white" stroke-width="1.00294"/>
<path d="M1078.03 550.794C1108.27 550.794 1132.79 526.275 1132.79 496.028C1132.79 465.78 1108.27 441.259 1078.03 441.259C1047.78 441.259 1023.26 465.78 1023.26 496.028C1023.26 526.274 1047.78 550.794 1078.03 550.794Z" stroke="white" stroke-width="1.00294"/>
<path d="M1078.03 531.967C1097.88 531.967 1113.97 515.879 1113.97 496.031C1113.97 476.184 1097.88 460.095 1078.03 460.095C1058.18 460.095 1042.09 476.184 1042.09 496.031C1042.09 515.879 1058.18 531.967 1078.03 531.967Z" stroke="white" stroke-width="1.00294"/>
<path fill-rule="evenodd" clip-rule="evenodd" d="M1057.34 463.281C1064 463.281 1069.4 468.679 1069.4 475.34C1069.4 481.999 1064 487.397 1057.34 487.397C1050.68 487.397 1045.28 481.999 1045.28 475.34C1045.28 468.679 1050.68 463.281 1057.34 463.281Z" fill="white"/>
<path d="M1078.03 512.601C1087.18 512.601 1094.6 505.183 1094.6 496.033C1094.6 486.882 1087.18 479.464 1078.03 479.463C1068.88 479.463 1061.46 486.881 1061.46 496.033C1061.46 505.183 1068.88 512.601 1078.03 512.601Z" stroke="white" stroke-width="1.00294"/>
<mask id="path-22-inside-3_1067_67084" fill="white">
<path d="M1680.8 524.58H1656.5V436.438H1680.8V524.58ZM1626.24 482.884C1626.24 479.9 1625.25 477.561 1623.26 475.869C1621.27 474.177 1618.78 473.331 1615.82 473.331C1612.84 473.331 1610.4 474.128 1608.48 475.745C1606.59 477.361 1605.35 479.75 1604.77 482.884H1626.24ZM1651.05 488.955C1651.05 490.871 1650.92 492.761 1650.67 494.677H1604.65C1604.9 498.483 1605.94 501.319 1607.81 503.16C1609.68 505.026 1612.04 505.971 1614.95 505.971C1619 505.971 1621.89 504.154 1623.63 500.498H1649.55C1648.48 505.3 1646.4 509.578 1643.29 513.334C1640.2 517.116 1636.29 520.077 1631.57 522.216C1626.84 524.38 1621.64 525.45 1615.94 525.45C1609.08 525.45 1602.96 524.008 1597.63 521.097C1592.29 518.211 1588.13 514.081 1585.1 508.683C1582.09 503.31 1580.57 496.989 1580.57 489.702C1580.57 482.437 1582.06 476.118 1585.05 470.795C1588.01 465.446 1592.19 461.341 1597.51 458.454C1602.83 455.544 1608.98 454.1 1615.94 454.1C1622.81 454.1 1628.88 455.519 1634.18 458.331C1639.48 461.142 1643.61 465.172 1646.57 470.421C1649.55 475.67 1651.05 481.841 1651.05 488.955ZM1549.45 454.35C1557.48 454.35 1563.85 457.012 1568.55 462.361C1573.28 467.684 1575.64 474.899 1575.64 484.004V524.58H1551.31V487.238C1551.31 483.258 1550.27 480.149 1548.2 477.86C1546.14 475.595 1543.38 474.451 1539.89 474.451C1536.26 474.451 1533.4 475.595 1531.34 477.86C1529.27 480.149 1528.23 483.258 1528.23 487.238V524.58H1503.92V454.971H1528.23V464.898C1530.39 461.764 1533.28 459.201 1536.91 457.261C1540.57 455.32 1544.75 454.35 1549.45 454.35ZM1494.52 524.58H1470.19V454.972H1494.52V524.58ZM1482.48 448.528C1478.17 448.528 1474.71 447.335 1472.1 444.971C1469.51 442.632 1468.2 439.672 1468.2 436.114C1468.2 432.482 1469.51 429.447 1472.1 427.059C1474.71 424.646 1478.17 423.452 1482.48 423.452C1486.68 423.452 1490.11 424.646 1492.7 427.059C1495.31 429.447 1496.61 432.482 1496.61 436.114C1496.61 439.672 1495.31 442.632 1492.7 444.971C1490.11 447.335 1486.68 448.528 1482.48 448.528ZM1463.52 503.857V524.58H1452.97C1435.18 524.58 1426.28 515.773 1426.28 498.159V475.197H1417.72V454.971H1426.28V436.438H1450.73V454.971H1463.39V475.197H1450.73V498.509C1450.73 500.423 1451.15 501.792 1452.03 502.613C1452.9 503.434 1454.36 503.857 1456.43 503.857H1463.52ZM1387.34 454.35C1395.38 454.35 1401.75 457.012 1406.45 462.361C1411.18 467.684 1413.54 474.899 1413.54 484.004V524.58H1389.21V487.238C1389.21 483.258 1388.16 480.149 1386.1 477.86C1384.03 475.595 1381.27 474.451 1377.79 474.451C1374.16 474.451 1371.3 475.595 1369.23 477.86C1367.17 480.149 1366.12 483.258 1366.12 487.238V524.58H1341.82V454.971H1366.12V464.898C1368.29 461.764 1371.17 459.201 1374.83 457.261C1378.46 455.32 1382.64 454.35 1387.34 454.35ZM1311.57 482.884C1311.57 479.9 1310.57 477.561 1308.58 475.869C1306.59 474.177 1304.13 473.331 1301.14 473.331C1298.16 473.331 1295.72 474.128 1293.83 475.745C1291.91 477.361 1290.67 479.75 1290.1 482.884H1311.57ZM1336.37 488.955C1336.37 490.871 1336.24 492.761 1336 494.677H1289.97C1290.22 498.483 1291.27 501.319 1293.13 503.16C1295 505.026 1297.38 505.971 1300.27 505.971C1304.33 505.971 1307.21 504.154 1308.95 500.498H1334.88C1333.81 505.3 1331.72 509.578 1328.63 513.334C1325.52 517.116 1321.62 520.077 1316.89 522.216C1312.19 524.38 1306.96 525.45 1301.27 525.45C1294.4 525.45 1288.31 524.008 1282.96 521.097C1277.63 518.211 1273.45 514.081 1270.42 508.683C1267.41 503.31 1265.89 496.989 1265.89 489.702C1265.89 482.437 1267.38 476.118 1270.37 470.795C1273.35 465.446 1277.51 461.341 1282.83 458.454C1288.18 455.544 1294.33 454.1 1301.27 454.1C1308.13 454.1 1314.2 455.519 1319.5 458.331C1324.8 461.142 1328.93 465.172 1331.92 470.421C1334.88 475.67 1336.37 481.841 1336.37 488.955ZM1230.44 525.45C1220.26 525.45 1211.9 523.013 1205.36 518.187C1198.84 513.334 1195.31 506.419 1194.81 497.413H1220.76C1221.01 500.473 1221.91 502.688 1223.5 504.105C1225.07 505.499 1227.08 506.22 1229.57 506.22C1231.81 506.22 1233.65 505.648 1235.09 504.528C1236.53 503.409 1237.26 501.866 1237.26 499.876C1237.26 497.313 1236.06 495.324 1233.67 493.93C1231.26 492.513 1227.38 490.945 1222.01 489.204C1216.28 487.314 1211.68 485.472 1208.17 483.681C1204.64 481.914 1201.58 479.302 1198.99 475.869C1196.38 472.437 1195.06 467.957 1195.06 462.411C1195.06 456.789 1196.48 451.962 1199.29 447.956C1202.1 443.952 1205.98 440.916 1210.96 438.851C1215.91 436.761 1221.53 435.741 1227.83 435.741C1238 435.741 1246.14 438.105 1252.21 442.882C1258.3 447.633 1261.54 454.301 1261.96 462.908H1235.51C1235.44 460.27 1234.64 458.281 1233.1 456.962C1231.58 455.619 1229.62 454.971 1227.2 454.971C1225.39 454.971 1223.9 455.519 1222.75 456.589C1221.58 457.659 1221.01 459.176 1221.01 461.166C1221.01 462.833 1221.66 464.252 1222.93 465.446C1224.22 466.665 1225.81 467.684 1227.7 468.555C1229.62 469.426 1232.43 470.52 1236.14 471.838C1241.68 473.755 1246.26 475.62 1249.84 477.487C1253.45 479.353 1256.56 481.964 1259.15 485.298C1261.76 488.656 1263.08 492.887 1263.08 498.036C1263.08 503.235 1261.76 507.912 1259.15 512.042C1256.56 516.171 1252.78 519.455 1247.88 521.843C1242.95 524.257 1237.13 525.45 1230.44 525.45Z"/>
</mask>
<path d="M1680.8 524.58H1656.5V436.438H1680.8V524.58ZM1626.24 482.884C1626.24 479.9 1625.25 477.561 1623.26 475.869C1621.27 474.177 1618.78 473.331 1615.82 473.331C1612.84 473.331 1610.4 474.128 1608.48 475.745C1606.59 477.361 1605.35 479.75 1604.77 482.884H1626.24ZM1651.05 488.955C1651.05 490.871 1650.92 492.761 1650.67 494.677H1604.65C1604.9 498.483 1605.94 501.319 1607.81 503.16C1609.68 505.026 1612.04 505.971 1614.95 505.971C1619 505.971 1621.89 504.154 1623.63 500.498H1649.55C1648.48 505.3 1646.4 509.578 1643.29 513.334C1640.2 517.116 1636.29 520.077 1631.57 522.216C1626.84 524.38 1621.64 525.45 1615.94 525.45C1609.08 525.45 1602.96 524.008 1597.63 521.097C1592.29 518.211 1588.13 514.081 1585.1 508.683C1582.09 503.31 1580.57 496.989 1580.57 489.702C1580.57 482.437 1582.06 476.118 1585.05 470.795C1588.01 465.446 1592.19 461.341 1597.51 458.454C1602.83 455.544 1608.98 454.1 1615.94 454.1C1622.81 454.1 1628.88 455.519 1634.18 458.331C1639.48 461.142 1643.61 465.172 1646.57 470.421C1649.55 475.67 1651.05 481.841 1651.05 488.955ZM1549.45 454.35C1557.48 454.35 1563.85 457.012 1568.55 462.361C1573.28 467.684 1575.64 474.899 1575.64 484.004V524.58H1551.31V487.238C1551.31 483.258 1550.27 480.149 1548.2 477.86C1546.14 475.595 1543.38 474.451 1539.89 474.451C1536.26 474.451 1533.4 475.595 1531.34 477.86C1529.27 480.149 1528.23 483.258 1528.23 487.238V524.58H1503.92V454.971H1528.23V464.898C1530.39 461.764 1533.28 459.201 1536.91 457.261C1540.57 455.32 1544.75 454.35 1549.45 454.35ZM1494.52 524.58H1470.19V454.972H1494.52V524.58ZM1482.48 448.528C1478.17 448.528 1474.71 447.335 1472.1 444.971C1469.51 442.632 1468.2 439.672 1468.2 436.114C1468.2 432.482 1469.51 429.447 1472.1 427.059C1474.71 424.646 1478.17 423.452 1482.48 423.452C1486.68 423.452 1490.11 424.646 1492.7 427.059C1495.31 429.447 1496.61 432.482 1496.61 436.114C1496.61 439.672 1495.31 442.632 1492.7 444.971C1490.11 447.335 1486.68 448.528 1482.48 448.528ZM1463.52 503.857V524.58H1452.97C1435.18 524.58 1426.28 515.773 1426.28 498.159V475.197H1417.72V454.971H1426.28V436.438H1450.73V454.971H1463.39V475.197H1450.73V498.509C1450.73 500.423 1451.15 501.792 1452.03 502.613C1452.9 503.434 1454.36 503.857 1456.43 503.857H1463.52ZM1387.34 454.35C1395.38 454.35 1401.75 457.012 1406.45 462.361C1411.18 467.684 1413.54 474.899 1413.54 484.004V524.58H1389.21V487.238C1389.21 483.258 1388.16 480.149 1386.1 477.86C1384.03 475.595 1381.27 474.451 1377.79 474.451C1374.16 474.451 1371.3 475.595 1369.23 477.86C1367.17 480.149 1366.12 483.258 1366.12 487.238V524.58H1341.82V454.971H1366.12V464.898C1368.29 461.764 1371.17 459.201 1374.83 457.261C1378.46 455.32 1382.64 454.35 1387.34 454.35ZM1311.57 482.884C1311.57 479.9 1310.57 477.561 1308.58 475.869C1306.59 474.177 1304.13 473.331 1301.14 473.331C1298.16 473.331 1295.72 474.128 1293.83 475.745C1291.91 477.361 1290.67 479.75 1290.1 482.884H1311.57ZM1336.37 488.955C1336.37 490.871 1336.24 492.761 1336 494.677H1289.97C1290.22 498.483 1291.27 501.319 1293.13 503.16C1295 505.026 1297.38 505.971 1300.27 505.971C1304.33 505.971 1307.21 504.154 1308.95 500.498H1334.88C1333.81 505.3 1331.72 509.578 1328.63 513.334C1325.52 517.116 1321.62 520.077 1316.89 522.216C1312.19 524.38 1306.96 525.45 1301.27 525.45C1294.4 525.45 1288.31 524.008 1282.96 521.097C1277.63 518.211 1273.45 514.081 1270.42 508.683C1267.41 503.31 1265.89 496.989 1265.89 489.702C1265.89 482.437 1267.38 476.118 1270.37 470.795C1273.35 465.446 1277.51 461.341 1282.83 458.454C1288.18 455.544 1294.33 454.1 1301.27 454.1C1308.13 454.1 1314.2 455.519 1319.5 458.331C1324.8 461.142 1328.93 465.172 1331.92 470.421C1334.88 475.67 1336.37 481.841 1336.37 488.955ZM1230.44 525.45C1220.26 525.45 1211.9 523.013 1205.36 518.187C1198.84 513.334 1195.31 506.419 1194.81 497.413H1220.76C1221.01 500.473 1221.91 502.688 1223.5 504.105C1225.07 505.499 1227.08 506.22 1229.57 506.22C1231.81 506.22 1233.65 505.648 1235.09 504.528C1236.53 503.409 1237.26 501.866 1237.26 499.876C1237.26 497.313 1236.06 495.324 1233.67 493.93C1231.26 492.513 1227.38 490.945 1222.01 489.204C1216.28 487.314 1211.68 485.472 1208.17 483.681C1204.64 481.914 1201.58 479.302 1198.99 475.869C1196.38 472.437 1195.06 467.957 1195.06 462.411C1195.06 456.789 1196.48 451.962 1199.29 447.956C1202.1 443.952 1205.98 440.916 1210.96 438.851C1215.91 436.761 1221.53 435.741 1227.83 435.741C1238 435.741 1246.14 438.105 1252.21 442.882C1258.3 447.633 1261.54 454.301 1261.96 462.908H1235.51C1235.44 460.27 1234.64 458.281 1233.1 456.962C1231.58 455.619 1229.62 454.971 1227.2 454.971C1225.39 454.971 1223.9 455.519 1222.75 456.589C1221.58 457.659 1221.01 459.176 1221.01 461.166C1221.01 462.833 1221.66 464.252 1222.93 465.446C1224.22 466.665 1225.81 467.684 1227.7 468.555C1229.62 469.426 1232.43 470.52 1236.14 471.838C1241.68 473.755 1246.26 475.62 1249.84 477.487C1253.45 479.353 1256.56 481.964 1259.15 485.298C1261.76 488.656 1263.08 492.887 1263.08 498.036C1263.08 503.235 1261.76 507.912 1259.15 512.042C1256.56 516.171 1252.78 519.455 1247.88 521.843C1242.95 524.257 1237.13 525.45 1230.44 525.45Z" stroke="white" stroke-width="2.00588" mask="url(#path-22-inside-3_1067_67084)"/>
<path d="M1197.61 564.95C1197.61 561.962 1198.27 559.293 1199.61 556.944C1200.97 554.565 1202.81 552.723 1205.14 551.418C1207.48 550.083 1210.11 549.416 1213.01 549.416C1216.4 549.416 1219.38 550.286 1221.93 552.027C1224.48 553.767 1226.27 556.175 1227.28 559.25H1220.28C1219.58 557.799 1218.59 556.712 1217.32 555.986C1216.07 555.261 1214.62 554.899 1212.97 554.899C1211.2 554.899 1209.62 555.319 1208.22 556.16C1206.86 556.973 1205.79 558.133 1205 559.641C1204.25 561.15 1203.87 562.919 1203.87 564.95C1203.87 566.951 1204.25 568.721 1205 570.258C1205.79 571.767 1206.86 572.942 1208.22 573.783C1209.62 574.595 1211.2 575.001 1212.97 575.001C1214.62 575.001 1216.07 574.639 1217.32 573.913C1218.59 573.159 1219.58 572.057 1220.28 570.606H1227.28C1226.27 573.71 1224.48 576.132 1221.93 577.873C1219.41 579.584 1216.43 580.44 1213.01 580.44C1210.11 580.44 1207.48 579.787 1205.14 578.482C1202.81 577.148 1200.97 575.306 1199.61 572.956C1198.27 570.606 1197.61 567.938 1197.61 564.95ZM1272.26 580.484C1269.41 580.484 1266.8 579.816 1264.42 578.482C1262.05 577.148 1260.16 575.306 1258.77 572.956C1257.37 570.577 1256.68 567.894 1256.68 564.906C1256.68 561.947 1257.37 559.293 1258.77 556.944C1260.16 554.565 1262.05 552.708 1264.42 551.374C1266.8 550.04 1269.41 549.372 1272.26 549.372C1275.13 549.372 1277.74 550.04 1280.09 551.374C1282.47 552.708 1284.34 554.565 1285.7 556.944C1287.09 559.293 1287.79 561.947 1287.79 564.906C1287.79 567.894 1287.09 570.577 1285.7 572.956C1284.34 575.306 1282.47 577.148 1280.09 578.482C1277.71 579.816 1275.1 580.484 1272.26 580.484ZM1272.26 575.045C1274.08 575.045 1275.69 574.639 1277.09 573.826C1278.48 572.985 1279.57 571.796 1280.35 570.258C1281.13 568.721 1281.52 566.937 1281.52 564.906C1281.52 562.876 1281.13 561.106 1280.35 559.598C1279.57 558.06 1278.48 556.886 1277.09 556.073C1275.69 555.261 1274.08 554.855 1272.26 554.855C1270.43 554.855 1268.8 555.261 1267.38 556.073C1265.99 556.886 1264.9 558.06 1264.12 559.598C1263.34 561.106 1262.94 562.876 1262.94 564.906C1262.94 566.937 1263.34 568.721 1264.12 570.258C1264.9 571.796 1265.99 572.985 1267.38 573.826C1268.8 574.639 1270.43 575.045 1272.26 575.045ZM1328.61 549.808C1331.8 549.808 1334.6 550.431 1337.01 551.679C1339.45 552.926 1341.32 554.71 1342.62 557.031C1343.96 559.322 1344.62 561.991 1344.62 565.037C1344.62 568.083 1343.96 570.751 1342.62 573.043C1341.32 575.306 1339.45 577.061 1337.01 578.308C1334.6 579.555 1331.8 580.179 1328.61 580.179H1317.99V549.808H1328.61ZM1328.39 575.001C1331.58 575.001 1334.05 574.131 1335.79 572.39C1337.53 570.65 1338.4 568.199 1338.4 565.037C1338.4 561.875 1337.53 559.409 1335.79 557.64C1334.05 555.841 1331.58 554.942 1328.39 554.942H1324.09V575.001H1328.39ZM1380.95 554.724V562.339H1391.17V567.169H1380.95V575.219H1392.48V580.179H1374.86V549.764H1392.48V554.724H1380.95ZM1434.17 580.484C1432.05 580.484 1430.14 580.121 1428.43 579.396C1426.75 578.671 1425.41 577.626 1424.43 576.263C1423.44 574.9 1422.93 573.29 1422.9 571.433H1429.43C1429.52 572.68 1429.95 573.667 1430.74 574.392C1431.55 575.117 1432.65 575.48 1434.04 575.48C1435.46 575.48 1436.58 575.146 1437.39 574.479C1438.2 573.783 1438.61 572.884 1438.61 571.781C1438.61 570.882 1438.34 570.142 1437.78 569.562C1437.23 568.982 1436.54 568.532 1435.7 568.213C1434.88 567.865 1433.75 567.488 1432.3 567.082C1430.33 566.502 1428.72 565.936 1427.47 565.385C1426.25 564.805 1425.19 563.949 1424.3 562.818C1423.43 561.657 1422.99 560.12 1422.99 558.205C1422.99 556.407 1423.44 554.84 1424.34 553.506C1425.24 552.172 1426.5 551.156 1428.12 550.46C1429.75 549.735 1431.61 549.372 1433.69 549.372C1436.83 549.372 1439.37 550.141 1441.31 551.679C1443.28 553.187 1444.37 555.305 1444.57 558.031H1437.87C1437.81 556.987 1437.36 556.131 1436.52 555.464C1435.71 554.768 1434.62 554.42 1433.26 554.42C1432.07 554.42 1431.11 554.724 1430.39 555.334C1429.69 555.943 1429.34 556.828 1429.34 557.988C1429.34 558.8 1429.6 559.482 1430.13 560.033C1430.68 560.555 1431.34 560.99 1432.13 561.338C1432.94 561.657 1434.07 562.035 1435.52 562.47C1437.49 563.05 1439.1 563.63 1440.35 564.21C1441.6 564.79 1442.67 565.661 1443.57 566.821C1444.47 567.981 1444.92 569.504 1444.92 571.39C1444.92 573.014 1444.5 574.522 1443.66 575.915C1442.82 577.307 1441.58 578.424 1439.96 579.265C1438.34 580.078 1436.41 580.484 1434.17 580.484Z" fill="white"/>
</g>
<rect x="816.5" y="56.5" width="1047" height="967" stroke="#222222"/>
<defs>
<clipPath id="clip0_1067_67084">
<rect x="816" y="56" width="1048" height="968" fill="white"/>
</clipPath>
</defs>
</svg>
