<svg width="1920" height="1080" viewBox="0 0 1920 1080" fill="none" xmlns="http://www.w3.org/2000/svg">
<rect width="1920" height="1080" fill="#090909"/>
<mask id="path-1-inside-1_1067_67172" fill="white">
<path d="M56 56H1864V1024H56V56Z"/>
</mask>
<path d="M56 56V57H1864V56V55H56V56Z" fill="#222222" mask="url(#path-1-inside-1_1067_67172)"/>
<rect x="56.5" y="56.5" width="760" height="483" stroke="#222222"/>
<path d="M77.62 96V82.04H87.6V83.54H79.34V88.02H85.16V89.52H79.34V96H77.62ZM92.2078 85.04V92C92.2078 93.68 93.2678 94.82 94.8478 94.82C96.4678 94.82 97.8278 93.74 98.5478 91.54V85.04H100.188V96H98.6478L98.5678 93.94C97.6678 95.44 96.2278 96.24 94.6078 96.24C92.1478 96.24 90.5478 94.56 90.5478 92.04V85.04H92.2078ZM103.496 96V94.66H107.696V82.68H104.956V81.34H109.336V94.66H113.576V96H103.496ZM116.503 96V94.66H120.703V82.68H117.963V81.34H122.343V94.66H126.583V96H116.503ZM131.571 90.54V89.08H137.491V90.54H131.571ZM147.899 96.24C144.519 96.24 142.379 94 142.379 90.52C142.379 87.02 144.619 84.8 147.919 84.8C150.459 84.8 152.479 86.32 152.739 88.7H151.079C150.839 87.12 149.599 86.2 147.919 86.2C145.579 86.2 144.039 87.86 144.039 90.52C144.039 93.2 145.559 94.84 147.899 94.84C149.399 94.84 150.779 93.88 151.139 92.34H152.799C152.359 94.74 150.299 96.24 147.899 96.24ZM160.527 96.24C157.167 96.24 155.127 94.06 155.127 90.52C155.127 86.96 157.167 84.8 160.527 84.8C163.907 84.8 165.947 86.96 165.947 90.52C165.947 94.06 163.907 96.24 160.527 96.24ZM160.527 94.84C162.867 94.84 164.287 93.18 164.287 90.52C164.287 87.84 162.867 86.2 160.527 86.2C158.187 86.2 156.787 87.84 156.787 90.52C156.787 93.18 158.187 94.84 160.527 94.84ZM168.535 96V94.66H172.735V82.68H169.995V81.34H174.375V94.66H178.615V96H168.535ZM186.543 96.24C183.183 96.24 181.143 94.06 181.143 90.52C181.143 86.96 183.183 84.8 186.543 84.8C189.923 84.8 191.963 86.96 191.963 90.52C191.963 94.06 189.923 96.24 186.543 96.24ZM186.543 94.84C188.883 94.84 190.303 93.18 190.303 90.52C190.303 87.84 188.883 86.2 186.543 86.2C184.203 86.2 182.803 87.84 182.803 90.52C182.803 93.18 184.203 94.84 186.543 94.84ZM195.33 96V85.04H196.85L196.95 87.18C197.83 85.62 199.15 84.8 200.81 84.8C202.97 84.8 204.43 86.1 204.43 88.24V89.5H202.77V88.24C202.77 87.02 201.99 86.22 200.61 86.22C199.05 86.22 197.77 87.26 196.99 89.3V96H195.33ZM220.566 96V94.66H224.766V82.68H222.026V81.34H226.406V94.66H230.646V96H220.566ZM238.574 96.24C235.214 96.24 233.174 94.06 233.174 90.52C233.174 86.96 235.214 84.8 238.574 84.8C241.954 84.8 243.994 86.96 243.994 90.52C243.994 94.06 241.954 96.24 238.574 96.24ZM238.574 94.84C240.914 94.84 242.334 93.18 242.334 90.52C242.334 87.84 240.914 86.2 238.574 86.2C236.234 86.2 234.834 87.84 234.834 90.52C234.834 93.18 236.234 94.84 238.574 94.84ZM254.862 86.76L254.922 85.04H256.462V94.9C256.462 98.08 254.722 99.8 251.342 99.8C248.522 99.8 246.742 98.62 246.542 96.24H248.262C248.382 97.6 249.402 98.4 251.422 98.4C253.622 98.4 254.802 97.22 254.802 95.12V93.38C254.062 94.6 252.702 95.34 251.082 95.34C248.202 95.34 246.222 93.16 246.222 90.08C246.222 86.84 248.262 84.8 251.142 84.8C252.762 84.8 254.142 85.6 254.862 86.76ZM251.402 94.02C252.962 94.02 254.302 93.08 254.802 91.54V88.6C254.302 87.06 252.962 86.12 251.402 86.12C249.282 86.12 247.882 87.72 247.882 90.06C247.882 92.4 249.282 94.02 251.402 94.02ZM264.589 96.24C261.229 96.24 259.189 94.06 259.189 90.52C259.189 86.96 261.229 84.8 264.589 84.8C267.969 84.8 270.009 86.96 270.009 90.52C270.009 94.06 267.969 96.24 264.589 96.24ZM264.589 94.84C266.929 94.84 268.349 93.18 268.349 90.52C268.349 87.84 266.929 86.2 264.589 86.2C262.249 86.2 260.849 87.84 260.849 90.52C260.849 93.18 262.249 94.84 264.589 94.84Z" fill="#939393"/>
<rect x="816.5" y="56.5" width="1047" height="483" stroke="#222222"/>
<path fill-rule="evenodd" clip-rule="evenodd" d="M1127.96 232C1163.29 232 1191.93 260.638 1191.93 295.964C1191.93 305.852 1189.68 315.217 1185.68 323.574L1195.07 332.965C1197.09 334.989 1197.09 338.27 1195.07 340.294C1193.04 342.318 1189.76 342.318 1187.74 340.294L1180.25 332.809C1179.14 334.386 1177.96 335.91 1176.71 337.378L1185.89 346.56C1187.91 348.583 1187.91 351.865 1185.89 353.888C1183.86 355.912 1180.58 355.912 1178.56 353.888L1169.38 344.707C1167.91 345.955 1166.39 347.14 1164.81 348.255L1172.29 355.739C1174.32 357.763 1174.32 361.044 1172.29 363.067C1170.27 365.092 1166.99 365.092 1164.97 363.067L1155.57 353.677C1147.22 357.684 1137.85 359.928 1127.96 359.928C1092.64 359.928 1064 331.29 1064 295.964C1064 260.638 1092.64 232 1127.96 232Z" fill="white"/>
<path fill-rule="evenodd" clip-rule="evenodd" d="M1127.96 251.229C1152.67 251.229 1172.7 271.257 1172.7 295.963C1172.7 320.669 1152.67 340.697 1127.96 340.697C1103.26 340.697 1083.23 320.669 1083.23 295.963C1083.23 271.257 1103.26 251.229 1127.96 251.229Z" fill="#090909"/>
<path fill-rule="evenodd" clip-rule="evenodd" d="M1127.97 266.475C1144.25 266.475 1157.46 279.679 1157.46 295.967C1157.46 312.255 1144.25 325.459 1127.97 325.459C1111.68 325.459 1098.47 312.255 1098.47 295.967C1098.47 279.679 1111.68 266.475 1127.97 266.475Z" fill="#52B69A"/>
<path fill-rule="evenodd" clip-rule="evenodd" d="M1111.22 269.459C1116.61 269.459 1120.98 273.828 1120.98 279.219C1120.98 284.609 1116.61 288.979 1111.22 288.979C1105.83 288.979 1101.46 284.609 1101.46 279.219C1101.46 273.828 1105.83 269.459 1111.22 269.459Z" fill="white"/>
<path fill-rule="evenodd" clip-rule="evenodd" d="M1127.97 282.151C1135.6 282.151 1141.78 288.337 1141.78 295.968C1141.78 303.598 1135.6 309.784 1127.97 309.784C1120.33 309.784 1114.15 303.598 1114.15 295.968C1114.15 288.337 1120.33 282.151 1127.97 282.151Z" fill="black"/>
<path d="M1615.84 319.073H1596.17V247.733H1615.84V319.073ZM1571.68 285.326C1571.68 282.911 1570.88 281.018 1569.26 279.648C1567.65 278.278 1565.64 277.594 1563.24 277.594C1560.83 277.594 1558.85 278.239 1557.3 279.547C1555.77 280.856 1554.77 282.789 1554.3 285.326H1571.68ZM1591.76 290.239C1591.76 291.79 1591.66 293.32 1591.45 294.871H1554.2C1554.4 297.951 1555.25 300.247 1556.76 301.737C1558.27 303.247 1560.18 304.012 1562.54 304.012C1565.82 304.012 1568.16 302.542 1569.57 299.582H1590.55C1589.68 303.469 1587.99 306.932 1585.47 309.972C1582.98 313.033 1579.82 315.429 1575.99 317.16C1572.16 318.912 1567.96 319.778 1563.35 319.778C1557.79 319.778 1552.83 318.611 1548.53 316.255C1544.2 313.919 1540.83 310.576 1538.38 306.207C1535.94 301.858 1534.71 296.742 1534.71 290.844C1534.71 284.964 1535.92 279.849 1538.34 275.541C1540.73 271.211 1544.12 267.889 1548.42 265.553C1552.73 263.197 1557.71 262.029 1563.35 262.029C1568.9 262.029 1573.82 263.177 1578.1 265.453C1582.39 267.728 1585.74 270.99 1588.13 275.238C1590.55 279.487 1591.76 284.481 1591.76 290.239ZM1509.52 262.23C1516.03 262.23 1521.18 264.385 1524.99 268.714C1528.81 273.023 1530.73 278.862 1530.73 286.232V319.073H1511.03V288.85C1511.03 285.628 1510.19 283.112 1508.52 281.259C1506.84 279.426 1504.61 278.5 1501.79 278.5C1498.85 278.5 1496.53 279.426 1494.86 281.259C1493.19 283.112 1492.35 285.628 1492.35 288.85V319.073H1472.67V262.733H1492.35V270.768C1494.1 268.231 1496.43 266.157 1499.37 264.587C1502.33 263.016 1505.72 262.23 1509.52 262.23ZM1465.06 319.073H1445.37V262.734H1465.06V319.073ZM1455.32 257.519C1451.83 257.519 1449.03 256.553 1446.92 254.64C1444.83 252.747 1443.76 250.351 1443.76 247.471C1443.76 244.531 1444.83 242.075 1446.92 240.142C1449.03 238.189 1451.83 237.222 1455.32 237.222C1458.72 237.222 1461.5 238.189 1463.59 240.142C1465.71 242.075 1466.75 244.531 1466.75 247.471C1466.75 250.351 1465.71 252.747 1463.59 254.64C1461.5 256.553 1458.72 257.519 1455.32 257.519ZM1439.97 302.301V319.073H1431.44C1417.04 319.073 1409.83 311.946 1409.83 297.689V279.104H1402.9V262.733H1409.83V247.733H1429.62V262.733H1439.87V279.104H1429.62V297.972C1429.62 299.521 1429.97 300.629 1430.67 301.294C1431.38 301.958 1432.56 302.301 1434.24 302.301H1439.97ZM1378.32 262.23C1384.82 262.23 1389.98 264.385 1393.78 268.714C1397.61 273.023 1399.52 278.862 1399.52 286.232V319.073H1379.83V288.85C1379.83 285.628 1378.98 283.112 1377.31 281.259C1375.64 279.426 1373.4 278.5 1370.59 278.5C1367.65 278.5 1365.33 279.426 1363.66 281.259C1361.99 283.112 1361.14 285.628 1361.14 288.85V319.073H1341.47V262.733H1361.14V270.768C1362.89 268.231 1365.23 266.157 1368.19 264.587C1371.13 263.016 1374.51 262.23 1378.32 262.23ZM1316.99 285.326C1316.99 282.911 1316.18 281.018 1314.57 279.648C1312.96 278.278 1310.96 277.594 1308.55 277.594C1306.13 277.594 1304.16 278.239 1302.63 279.547C1301.08 280.856 1300.07 282.789 1299.61 285.326H1316.99ZM1337.06 290.239C1337.06 291.79 1336.96 293.32 1336.76 294.871H1299.51C1299.71 297.951 1300.55 300.247 1302.07 301.737C1303.58 303.247 1305.51 304.012 1307.84 304.012C1311.13 304.012 1313.46 302.542 1314.87 299.582H1335.85C1334.99 303.469 1333.3 306.932 1330.8 309.972C1328.28 313.033 1325.12 315.429 1321.29 317.16C1317.49 318.912 1313.26 319.778 1308.65 319.778C1303.09 319.778 1298.16 318.611 1293.83 316.255C1289.52 313.919 1286.14 310.576 1283.68 306.207C1281.24 301.858 1280.02 296.742 1280.02 290.844C1280.02 284.964 1281.22 279.849 1283.64 275.541C1286.06 271.211 1289.42 267.889 1293.73 265.553C1298.06 263.197 1303.03 262.029 1308.65 262.029C1314.21 262.029 1319.12 263.177 1323.41 265.453C1327.7 267.728 1331.04 270.99 1333.46 275.238C1335.85 279.487 1337.06 284.481 1337.06 290.239ZM1251.32 319.778C1243.09 319.778 1236.32 317.805 1231.03 313.899C1225.75 309.972 1222.89 304.374 1222.49 297.086H1243.49C1243.69 299.562 1244.42 301.355 1245.71 302.502C1246.97 303.63 1248.6 304.214 1250.62 304.214C1252.43 304.214 1253.92 303.751 1255.09 302.844C1256.26 301.939 1256.84 300.69 1256.84 299.079C1256.84 297.005 1255.87 295.394 1253.94 294.266C1251.99 293.119 1248.85 291.85 1244.5 290.441C1239.87 288.911 1236.14 287.421 1233.3 285.971C1230.44 284.541 1227.97 282.426 1225.87 279.648C1223.76 276.87 1222.69 273.244 1222.69 268.755C1222.69 264.205 1223.84 260.298 1226.11 257.056C1228.39 253.814 1231.53 251.357 1235.56 249.686C1239.56 247.995 1244.11 247.169 1249.21 247.169C1257.44 247.169 1264.03 249.082 1268.94 252.948C1273.88 256.794 1276.49 262.191 1276.83 269.157H1255.43C1255.37 267.022 1254.73 265.412 1253.48 264.344C1252.25 263.258 1250.66 262.733 1248.7 262.733C1247.24 262.733 1246.03 263.177 1245.1 264.043C1244.15 264.909 1243.69 266.137 1243.69 267.748C1243.69 269.097 1244.21 270.245 1245.24 271.211C1246.29 272.198 1247.58 273.023 1249.11 273.728C1250.66 274.433 1252.93 275.319 1255.93 276.385C1260.42 277.937 1264.13 279.446 1267.03 280.957C1269.95 282.467 1272.47 284.581 1274.56 287.279C1276.67 289.998 1277.74 293.422 1277.74 297.589C1277.74 301.797 1276.67 305.583 1274.56 308.925C1272.47 312.268 1269.4 314.926 1265.44 316.859C1261.45 318.812 1256.74 319.778 1251.32 319.778Z" fill="white"/>
<path d="M1224.75 351.898C1224.75 349.48 1225.29 347.32 1226.37 345.418C1227.47 343.493 1228.96 342.002 1230.84 340.945C1232.74 339.865 1234.87 339.325 1237.22 339.325C1239.96 339.325 1242.37 340.03 1244.44 341.438C1246.5 342.847 1247.95 344.796 1248.77 347.284H1243.1C1242.53 346.111 1241.74 345.23 1240.7 344.643C1239.69 344.056 1238.52 343.763 1237.18 343.763C1235.75 343.763 1234.47 344.103 1233.34 344.784C1232.24 345.441 1231.37 346.381 1230.74 347.601C1230.13 348.822 1229.82 350.255 1229.82 351.898C1229.82 353.518 1230.13 354.95 1230.74 356.195C1231.37 357.416 1232.24 358.366 1233.34 359.047C1234.47 359.705 1235.75 360.033 1237.18 360.033C1238.52 360.033 1239.69 359.74 1240.7 359.153C1241.74 358.543 1242.53 357.65 1243.1 356.476H1248.77C1247.95 358.989 1246.5 360.949 1244.44 362.358C1242.39 363.743 1239.99 364.436 1237.22 364.436C1234.87 364.436 1232.74 363.907 1230.84 362.851C1228.96 361.771 1227.47 360.28 1226.37 358.378C1225.29 356.476 1224.75 354.316 1224.75 351.898ZM1285.17 364.471C1282.87 364.471 1280.76 363.931 1278.83 362.851C1276.9 361.771 1275.38 360.28 1274.25 358.378C1273.12 356.453 1272.56 354.281 1272.56 351.863C1272.56 349.468 1273.12 347.32 1274.25 345.418C1275.38 343.493 1276.9 341.99 1278.83 340.91C1280.76 339.83 1282.87 339.29 1285.17 339.29C1287.49 339.29 1289.61 339.83 1291.51 340.91C1293.43 341.99 1294.95 343.493 1296.05 345.418C1297.18 347.32 1297.74 349.468 1297.74 351.863C1297.74 354.281 1297.18 356.453 1296.05 358.378C1294.95 360.28 1293.43 361.771 1291.51 362.851C1289.58 363.931 1287.47 364.471 1285.17 364.471ZM1285.17 360.069C1286.65 360.069 1287.95 359.74 1289.08 359.083C1290.21 358.402 1291.09 357.439 1291.72 356.195C1292.35 354.95 1292.67 353.506 1292.67 351.863C1292.67 350.219 1292.35 348.787 1291.72 347.566C1291.09 346.322 1290.21 345.371 1289.08 344.714C1287.95 344.056 1286.65 343.727 1285.17 343.727C1283.69 343.727 1282.38 344.056 1281.22 344.714C1280.1 345.371 1279.22 346.322 1278.58 347.566C1277.95 348.787 1277.63 350.219 1277.63 351.863C1277.63 353.506 1277.95 354.95 1278.58 356.195C1279.22 357.439 1280.1 358.402 1281.22 359.083C1282.38 359.74 1283.69 360.069 1285.17 360.069ZM1330.78 339.642C1333.36 339.642 1335.63 340.147 1337.58 341.157C1339.55 342.166 1341.07 343.61 1342.12 345.488C1343.2 347.343 1343.74 349.503 1343.74 351.968C1343.74 354.434 1343.2 356.594 1342.12 358.449C1341.07 360.28 1339.55 361.7 1337.58 362.71C1335.63 363.72 1333.36 364.224 1330.78 364.224H1322.19V339.642H1330.78ZM1330.61 360.033C1333.19 360.033 1335.18 359.329 1336.59 357.92C1338 356.512 1338.71 354.528 1338.71 351.968C1338.71 349.409 1338 347.414 1336.59 345.981C1335.18 344.526 1333.19 343.798 1330.61 343.798H1327.12V360.033H1330.61ZM1373.14 343.622V349.785H1381.42V353.694H1373.14V360.21H1382.47V364.224H1368.21V339.607H1382.47V343.622H1373.14ZM1416.22 364.471C1414.51 364.471 1412.96 364.177 1411.57 363.59C1410.21 363.003 1409.13 362.158 1408.33 361.055C1407.53 359.951 1407.12 358.648 1407.1 357.146H1412.38C1412.45 358.155 1412.81 358.953 1413.44 359.54C1414.1 360.127 1414.99 360.421 1416.12 360.421C1417.27 360.421 1418.17 360.151 1418.83 359.611C1419.49 359.047 1419.81 358.319 1419.81 357.427C1419.81 356.699 1419.59 356.101 1419.14 355.631C1418.7 355.162 1418.14 354.798 1417.45 354.539C1416.8 354.258 1415.88 353.952 1414.71 353.624C1413.11 353.154 1411.81 352.696 1410.8 352.25C1409.81 351.781 1408.96 351.088 1408.23 350.172C1407.52 349.233 1407.17 347.989 1407.17 346.439C1407.17 344.984 1407.53 343.716 1408.26 342.636C1408.99 341.556 1410.01 340.734 1411.33 340.17C1412.64 339.583 1414.14 339.29 1415.83 339.29C1418.37 339.29 1420.42 339.912 1422 341.157C1423.59 342.377 1424.47 344.091 1424.64 346.298H1419.22C1419.17 345.453 1418.8 344.761 1418.12 344.221C1417.47 343.657 1416.59 343.375 1415.48 343.375C1414.52 343.375 1413.74 343.622 1413.16 344.115C1412.59 344.608 1412.31 345.324 1412.31 346.263C1412.31 346.921 1412.52 347.472 1412.95 347.918C1413.39 348.341 1413.93 348.693 1414.57 348.975C1415.22 349.233 1416.14 349.538 1417.31 349.891C1418.91 350.36 1420.21 350.83 1421.22 351.299C1422.23 351.769 1423.1 352.473 1423.83 353.412C1424.56 354.352 1424.92 355.584 1424.92 357.11C1424.92 358.425 1424.58 359.646 1423.9 360.773C1423.22 361.9 1422.22 362.804 1420.91 363.485C1419.59 364.142 1418.03 364.471 1416.22 364.471Z" fill="white"/>
<rect x="816.5" y="539.5" width="1047" height="484" stroke="#222222"/>
<g clip-path="url(#clip0_1067_67172)">
<path fill-rule="evenodd" clip-rule="evenodd" d="M1337.89 715C1373.18 715 1401.78 743.606 1401.78 778.892C1401.78 788.769 1399.54 798.123 1395.54 806.472L1404.92 815.852C1406.94 817.873 1406.94 821.151 1404.92 823.173C1402.9 825.194 1399.62 825.194 1397.6 823.173L1390.12 815.696C1389.01 817.271 1387.83 818.794 1386.58 820.259L1395.75 829.431C1397.77 831.453 1397.77 834.73 1395.75 836.751C1393.73 838.773 1390.45 838.773 1388.43 836.751L1379.26 827.581C1377.79 828.827 1376.27 830.011 1374.7 831.124L1382.17 838.6C1384.19 840.621 1384.19 843.899 1382.17 845.92C1380.15 847.942 1376.87 847.942 1374.85 845.92L1365.47 836.54C1357.12 840.542 1347.77 842.784 1337.89 842.784C1302.61 842.784 1274 814.179 1274 778.892C1274 743.606 1302.61 715 1337.89 715Z" fill="white"/>
<path fill-rule="evenodd" clip-rule="evenodd" d="M1337.89 734.207C1362.57 734.207 1382.57 754.213 1382.57 778.891C1382.57 803.569 1362.57 823.575 1337.89 823.575C1313.21 823.575 1293.21 803.569 1293.21 778.891C1293.21 754.213 1313.21 734.207 1337.89 734.207Z" fill="#090909"/>
<path fill-rule="evenodd" clip-rule="evenodd" d="M1337.89 749.436C1354.16 749.436 1367.35 762.625 1367.35 778.895C1367.35 795.165 1354.16 808.354 1337.89 808.354C1321.62 808.354 1308.43 795.165 1308.43 778.895C1308.43 762.625 1321.62 749.436 1337.89 749.436Z" fill="#52B69A"/>
<path fill-rule="evenodd" clip-rule="evenodd" d="M1321.16 752.417C1326.55 752.417 1330.91 756.781 1330.91 762.166C1330.91 767.55 1326.55 771.915 1321.16 771.915C1315.78 771.915 1311.41 767.55 1311.41 762.166C1311.41 756.781 1315.78 752.417 1321.16 752.417Z" fill="white"/>
<path fill-rule="evenodd" clip-rule="evenodd" d="M1337.89 765.095C1345.52 765.095 1351.69 771.274 1351.69 778.896C1351.69 786.518 1345.52 792.697 1337.89 792.697C1330.27 792.697 1324.09 786.518 1324.09 778.896C1324.09 771.274 1330.27 765.095 1337.89 765.095Z" fill="black"/>
</g>
<rect x="56.5" y="539.5" width="760" height="484" stroke="#222222"/>
<path d="M171.309 756.264C167.811 756.264 165.435 753.976 165.435 750.566V740.644H167.371V750.566C167.371 752.986 168.933 754.614 171.309 754.614C173.663 754.614 175.225 752.986 175.225 750.566V740.644H177.139V750.566C177.139 753.976 174.763 756.264 171.309 756.264ZM185.925 756.264C182.757 756.264 180.689 754.526 180.645 751.688H182.383C182.405 753.646 183.791 754.812 185.903 754.812C187.729 754.812 188.961 754.064 188.961 752.854C188.961 749.576 180.843 751.688 180.843 747.178C180.843 745.176 182.603 743.68 185.595 743.68C188.587 743.68 190.479 745.176 190.611 747.53H188.873C188.785 746.012 187.553 745.132 185.595 745.132C183.681 745.132 182.691 746.012 182.691 747.112C182.691 750.126 190.787 747.816 190.787 752.744C190.787 754.922 188.873 756.264 185.925 756.264ZM200.036 756.264C196.318 756.264 194.074 753.888 194.074 749.95C194.074 746.056 196.318 743.68 200.08 743.68C203.82 743.68 205.8 745.88 205.602 749.466H195.922C195.9 749.642 195.9 749.818 195.9 749.994C195.9 752.854 197.418 754.724 200.036 754.724C202.104 754.724 203.6 753.668 203.908 751.974H205.734C205.294 754.636 203.138 756.264 200.036 756.264ZM200.08 745.198C198.056 745.198 196.692 746.232 196.164 748.036L203.732 748.08C203.622 746.298 202.17 745.198 200.08 745.198ZM228.499 756.264C224.803 756.264 222.559 753.866 222.559 749.972C222.559 746.056 224.803 743.68 228.499 743.68C232.217 743.68 234.461 746.056 234.461 749.972C234.461 753.866 232.217 756.264 228.499 756.264ZM228.499 754.724C231.073 754.724 232.635 752.898 232.635 749.972C232.635 747.024 231.073 745.22 228.499 745.22C225.925 745.22 224.385 747.024 224.385 749.972C224.385 752.898 225.925 754.724 228.499 754.724ZM237.572 756V743.944H239.288L239.376 746.21C240.366 744.56 241.95 743.68 243.71 743.68C246.438 743.68 248.198 745.528 248.198 748.3V756H246.372V748.344C246.372 746.496 245.206 745.242 243.446 745.242C241.686 745.242 240.19 746.43 239.398 748.85V756H237.572ZM270.347 756.264C267.971 756.264 266.365 754.966 266.365 752.788C266.365 750.302 268.367 748.85 271.821 748.85H274.791V748.19C274.791 746.276 273.493 745.11 271.359 745.11C269.313 745.11 267.883 746.144 267.773 747.794H265.991C266.189 745.22 268.367 743.68 271.403 743.68C274.593 743.68 276.595 745.396 276.595 748.256V756H274.879L274.813 753.866C273.933 755.406 272.437 756.264 270.347 756.264ZM268.169 752.7C268.169 753.998 269.137 754.746 270.633 754.746C272.437 754.746 273.867 753.756 274.791 752.062V750.258H271.733C269.489 750.258 268.169 751.16 268.169 752.7ZM299.492 743.68C301.23 743.68 302.726 744.45 303.584 745.704V739.874H305.388V756H303.694L303.628 754.174C302.77 755.428 301.274 756.264 299.492 756.264C296.258 756.264 294.014 753.69 294.014 749.972C294.014 746.232 296.258 743.68 299.492 743.68ZM299.844 754.702C301.516 754.702 302.946 753.734 303.584 752.106V747.816C302.946 746.188 301.516 745.242 299.844 745.242C297.446 745.242 295.862 747.134 295.862 749.972C295.862 752.788 297.446 754.702 299.844 754.702ZM313.273 756.264C310.897 756.264 309.291 754.966 309.291 752.788C309.291 750.302 311.293 748.85 314.747 748.85H317.717V748.19C317.717 746.276 316.419 745.11 314.285 745.11C312.239 745.11 310.809 746.144 310.699 747.794H308.917C309.115 745.22 311.293 743.68 314.329 743.68C317.519 743.68 319.521 745.396 319.521 748.256V756H317.805L317.739 753.866C316.859 755.406 315.363 756.264 313.273 756.264ZM311.095 752.7C311.095 753.998 312.063 754.746 313.559 754.746C315.363 754.746 316.793 753.756 317.717 752.062V750.258H314.659C312.415 750.258 311.095 751.16 311.095 752.7ZM324.017 756V743.944H325.689L325.799 746.298C326.767 744.582 328.219 743.68 330.045 743.68C332.421 743.68 334.027 745.11 334.027 747.464V748.85H332.201V747.464C332.201 746.122 331.343 745.242 329.825 745.242C328.109 745.242 326.701 746.386 325.843 748.63V756H324.017ZM337.512 756V739.874H339.316V746.21L339.25 749.4L341.582 747.2L345.344 743.944H347.808L343.342 747.904L348.072 756H345.938L341.956 749.114L339.316 751.424V756H337.512ZM372.245 743.68C375.479 743.68 377.701 746.232 377.701 749.972C377.701 753.69 375.479 756.264 372.245 756.264C370.463 756.264 368.945 755.428 368.109 754.174L368.043 756H366.327V739.874H368.153V745.704C369.011 744.45 370.485 743.68 372.245 743.68ZM371.893 754.702C374.291 754.702 375.875 752.788 375.875 749.972C375.875 747.134 374.291 745.242 371.893 745.242C370.221 745.242 368.791 746.188 368.153 747.816V752.106C368.791 753.734 370.221 754.702 371.893 754.702ZM384.816 756.264C382.44 756.264 380.834 754.966 380.834 752.788C380.834 750.302 382.836 748.85 386.29 748.85H389.26V748.19C389.26 746.276 387.962 745.11 385.828 745.11C383.782 745.11 382.352 746.144 382.242 747.794H380.46C380.658 745.22 382.836 743.68 385.872 743.68C389.062 743.68 391.064 745.396 391.064 748.256V756H389.348L389.282 753.866C388.402 755.406 386.906 756.264 384.816 756.264ZM382.638 752.7C382.638 753.998 383.606 754.746 385.102 754.746C386.906 754.746 388.336 753.756 389.26 752.062V750.258H386.202C383.958 750.258 382.638 751.16 382.638 752.7ZM400.62 756.264C396.902 756.264 394.548 753.8 394.548 749.972C394.548 746.122 397.012 743.68 400.642 743.68C403.436 743.68 405.658 745.352 405.944 747.97H404.118C403.854 746.232 402.49 745.22 400.642 745.22C398.068 745.22 396.374 747.046 396.374 749.972C396.374 752.92 398.046 754.724 400.62 754.724C402.27 754.724 403.788 753.668 404.184 751.974H406.01C405.526 754.614 403.26 756.264 400.62 756.264ZM409.055 756V739.874H410.859V746.21L410.793 749.4L413.125 747.2L416.887 743.944H419.351L414.885 747.904L419.615 756H417.481L413.499 749.114L410.859 751.424V756H409.055ZM432.427 745.836L432.493 743.944H434.187V754.79C434.187 758.288 432.273 760.18 428.555 760.18C425.453 760.18 423.495 758.882 423.275 756.264H425.167C425.299 757.76 426.421 758.64 428.643 758.64C431.063 758.64 432.361 757.342 432.361 755.032V753.118C431.547 754.46 430.051 755.274 428.269 755.274C425.101 755.274 422.923 752.876 422.923 749.488C422.923 745.924 425.167 743.68 428.335 743.68C430.117 743.68 431.635 744.56 432.427 745.836ZM428.621 753.822C430.337 753.822 431.811 752.788 432.361 751.094V747.86C431.811 746.166 430.337 745.132 428.621 745.132C426.289 745.132 424.749 746.892 424.749 749.466C424.749 752.04 426.289 753.822 428.621 753.822ZM438.486 756V743.944H440.158L440.268 746.298C441.236 744.582 442.688 743.68 444.514 743.68C446.89 743.68 448.496 745.11 448.496 747.464V748.85H446.67V747.464C446.67 746.122 445.812 745.242 444.294 745.242C442.578 745.242 441.17 746.386 440.312 748.63V756H438.486ZM457.437 756.264C453.741 756.264 451.497 753.866 451.497 749.972C451.497 746.056 453.741 743.68 457.437 743.68C461.155 743.68 463.399 746.056 463.399 749.972C463.399 753.866 461.155 756.264 457.437 756.264ZM457.437 754.724C460.011 754.724 461.573 752.898 461.573 749.972C461.573 747.024 460.011 745.22 457.437 745.22C454.863 745.22 453.323 747.024 453.323 749.972C453.323 752.898 454.863 754.724 457.437 754.724ZM468.137 743.944V751.6C468.137 753.448 469.303 754.702 471.041 754.702C472.823 754.702 474.319 753.514 475.111 751.094V743.944H476.915V756H475.221L475.133 753.734C474.143 755.384 472.559 756.264 470.777 756.264C468.071 756.264 466.311 754.416 466.311 751.644V743.944H468.137ZM480.818 756V743.944H482.534L482.622 746.21C483.612 744.56 485.196 743.68 486.956 743.68C489.684 743.68 491.444 745.528 491.444 748.3V756H489.618V748.344C489.618 746.496 488.452 745.242 486.692 745.242C484.932 745.242 483.436 746.43 482.644 748.85V756H480.818ZM499.812 743.68C501.55 743.68 503.046 744.45 503.904 745.704V739.874H505.708V756H504.014L503.948 754.174C503.09 755.428 501.594 756.264 499.812 756.264C496.578 756.264 494.334 753.69 494.334 749.972C494.334 746.232 496.578 743.68 499.812 743.68ZM500.164 754.702C501.836 754.702 503.266 753.734 503.904 752.106V747.816C503.266 746.188 501.836 745.242 500.164 745.242C497.766 745.242 496.182 747.134 496.182 749.972C496.182 752.788 497.766 754.702 500.164 754.702ZM524.448 756L522.336 743.9H524.052L525.24 750.984L525.768 754.042L526.472 750.984L528.232 743.9H529.86L531.664 750.984L532.368 754.064L532.852 750.984L534.062 743.9H535.69L533.578 756H531.4L529.64 749.048L529.046 745.858L528.43 749.048L526.648 756H524.448ZM538.052 756V739.852H539.878V746.188C540.868 744.538 542.43 743.68 544.19 743.68C546.918 743.68 548.678 745.528 548.678 748.322V756H546.852V748.366C546.852 746.496 545.686 745.242 543.926 745.242C542.166 745.242 540.67 746.43 539.878 748.85V756H538.052ZM557.751 756.264C554.033 756.264 551.789 753.888 551.789 749.95C551.789 746.056 554.033 743.68 557.795 743.68C561.535 743.68 563.515 745.88 563.317 749.466H553.637C553.615 749.642 553.615 749.818 553.615 749.994C553.615 752.854 555.133 754.724 557.751 754.724C559.819 754.724 561.315 753.668 561.623 751.974H563.449C563.009 754.636 560.853 756.264 557.751 756.264ZM557.795 745.198C555.771 745.198 554.407 746.232 553.879 748.036L561.447 748.08C561.337 746.298 559.885 745.198 557.795 745.198ZM566.669 756V743.944H568.385L568.473 746.21C569.463 744.56 571.047 743.68 572.807 743.68C575.535 743.68 577.295 745.528 577.295 748.3V756H575.469V748.344C575.469 746.496 574.303 745.242 572.543 745.242C570.783 745.242 569.287 746.43 568.495 748.85V756H566.669ZM599.401 750.5L600.567 753.47L601.733 750.5L604.505 743.944H606.419L600.743 757.298C599.775 759.564 598.741 760.18 596.937 760.18H594.825V758.706H596.849C597.949 758.706 598.499 758.046 599.225 756.374L599.599 755.472L594.715 743.944H596.629L599.401 750.5ZM614.831 756.264C611.135 756.264 608.891 753.866 608.891 749.972C608.891 746.056 611.135 743.68 614.831 743.68C618.549 743.68 620.793 746.056 620.793 749.972C620.793 753.866 618.549 756.264 614.831 756.264ZM614.831 754.724C617.405 754.724 618.967 752.898 618.967 749.972C618.967 747.024 617.405 745.22 614.831 745.22C612.257 745.22 610.717 747.024 610.717 749.972C610.717 752.898 612.257 754.724 614.831 754.724ZM625.532 743.944V751.6C625.532 753.448 626.698 754.702 628.436 754.702C630.218 754.702 631.714 753.514 632.506 751.094V743.944H634.31V756H632.616L632.528 753.734C631.538 755.384 629.954 756.264 628.172 756.264C625.466 756.264 623.706 754.416 623.706 751.644V743.944H625.532ZM653.225 756L651.113 743.9H652.829L654.017 750.984L654.545 754.042L655.249 750.984L657.009 743.9H658.637L660.441 750.984L661.145 754.064L661.629 750.984L662.839 743.9H664.467L662.355 756H660.177L658.417 749.048L657.823 745.858L657.207 749.048L655.425 756H653.225ZM670.988 756.264C668.612 756.264 667.006 754.966 667.006 752.788C667.006 750.302 669.008 748.85 672.462 748.85H675.432V748.19C675.432 746.276 674.134 745.11 672 745.11C669.954 745.11 668.524 746.144 668.414 747.794H666.632C666.83 745.22 669.008 743.68 672.044 743.68C675.234 743.68 677.236 745.396 677.236 748.256V756H675.52L675.454 753.866C674.574 755.406 673.078 756.264 670.988 756.264ZM668.81 752.7C668.81 753.998 669.778 754.746 671.274 754.746C673.078 754.746 674.508 753.756 675.432 752.062V750.258H672.374C670.13 750.258 668.81 751.16 668.81 752.7ZM681.138 756V743.944H682.854L682.942 746.21C683.932 744.56 685.516 743.68 687.276 743.68C690.004 743.68 691.764 745.528 691.764 748.3V756H689.938V748.344C689.938 746.496 688.772 745.242 687.012 745.242C685.252 745.242 683.756 746.43 682.964 748.85V756H681.138ZM701.695 756C699.495 756 698.395 754.702 698.395 752.546V745.418H695.381V743.944H698.395V741.568L700.199 740.468V743.944H704.269V745.418H700.199V752.546C700.199 753.602 700.507 754.526 702.311 754.526H706.117V756H701.695ZM186.585 789C184.385 789 183.285 787.702 183.285 785.546V778.418H180.271V776.944H183.285V774.568L185.089 773.468V776.944H189.159V778.418H185.089V785.546C185.089 786.602 185.397 787.526 187.201 787.526H191.007V789H186.585ZM199.882 789.264C196.186 789.264 193.942 786.866 193.942 782.972C193.942 779.056 196.186 776.68 199.882 776.68C203.6 776.68 205.844 779.056 205.844 782.972C205.844 786.866 203.6 789.264 199.882 789.264ZM199.882 787.724C202.456 787.724 204.018 785.898 204.018 782.972C204.018 780.024 202.456 778.22 199.882 778.22C197.308 778.22 195.768 780.024 195.768 782.972C195.768 785.898 197.308 787.724 199.882 787.724ZM223.263 789V772.852H225.089V779.188C226.079 777.538 227.641 776.68 229.401 776.68C232.129 776.68 233.889 778.528 233.889 781.322V789H232.063V781.366C232.063 779.496 230.897 778.242 229.137 778.242C227.377 778.242 225.881 779.43 225.089 781.85V789H223.263ZM241.906 774.722V772.61H243.996V774.722H241.906ZM237.44 789V787.526H242.06V778.418H239.068V776.944H243.886V787.526H248.11V789H237.44ZM260.724 778.836L260.79 776.944H262.484V787.79C262.484 791.288 260.57 793.18 256.852 793.18C253.75 793.18 251.792 791.882 251.572 789.264H253.464C253.596 790.76 254.718 791.64 256.94 791.64C259.36 791.64 260.658 790.342 260.658 788.032V786.118C259.844 787.46 258.348 788.274 256.566 788.274C253.398 788.274 251.22 785.876 251.22 782.488C251.22 778.924 253.464 776.68 256.632 776.68C258.414 776.68 259.932 777.56 260.724 778.836ZM256.918 786.822C258.634 786.822 260.108 785.788 260.658 784.094V780.86C260.108 779.166 258.634 778.132 256.918 778.132C254.586 778.132 253.046 779.892 253.046 782.466C253.046 785.04 254.586 786.822 256.918 786.822ZM266.189 789V772.852H268.015V779.188C269.005 777.538 270.567 776.68 272.327 776.68C275.055 776.68 276.815 778.528 276.815 781.322V789H274.989V781.366C274.989 779.496 273.823 778.242 272.063 778.242C270.303 778.242 268.807 779.43 268.015 781.85V789H266.189ZM280.233 789V787.526H284.853V774.348H281.839V772.874H286.657V787.526H291.321V789H280.233ZM299.14 774.722V772.61H301.23V774.722H299.14ZM294.674 789V787.526H299.294V778.418H296.302V776.944H301.12V787.526H305.344V789H294.674ZM317.959 778.836L318.025 776.944H319.719V787.79C319.719 791.288 317.805 793.18 314.087 793.18C310.985 793.18 309.027 791.882 308.807 789.264H310.699C310.831 790.76 311.953 791.64 314.175 791.64C316.595 791.64 317.893 790.342 317.893 788.032V786.118C317.079 787.46 315.583 788.274 313.801 788.274C310.633 788.274 308.455 785.876 308.455 782.488C308.455 778.924 310.699 776.68 313.867 776.68C315.649 776.68 317.167 777.56 317.959 778.836ZM314.153 786.822C315.869 786.822 317.343 785.788 317.893 784.094V780.86C317.343 779.166 315.869 778.132 314.153 778.132C311.821 778.132 310.281 779.892 310.281 782.466C310.281 785.04 311.821 786.822 314.153 786.822ZM323.423 789V772.852H325.249V779.188C326.239 777.538 327.801 776.68 329.561 776.68C332.289 776.68 334.049 778.528 334.049 781.322V789H332.223V781.366C332.223 779.496 331.057 778.242 329.297 778.242C327.537 778.242 326.041 779.43 325.249 781.85V789H323.423ZM343.98 789C341.78 789 340.68 787.702 340.68 785.546V778.418H337.666V776.944H340.68V774.568L342.484 773.468V776.944H346.554V778.418H342.484V785.546C342.484 786.602 342.792 787.526 344.596 787.526H348.402V789H343.98ZM372.597 789C370.397 789 369.297 787.702 369.297 785.546V778.418H366.283V776.944H369.297V774.568L371.101 773.468V776.944H375.171V778.418H371.101V785.546C371.101 786.602 371.409 787.526 373.213 787.526H377.019V789H372.597ZM380.658 789V772.852H382.484V779.188C383.474 777.538 385.036 776.68 386.796 776.68C389.524 776.68 391.284 778.528 391.284 781.322V789H389.458V781.366C389.458 779.496 388.292 778.242 386.532 778.242C384.772 778.242 383.276 779.43 382.484 781.85V789H380.658ZM400.356 789.264C396.638 789.264 394.394 786.888 394.394 782.95C394.394 779.056 396.638 776.68 400.4 776.68C404.14 776.68 406.12 778.88 405.922 782.466H396.242C396.22 782.642 396.22 782.818 396.22 782.994C396.22 785.854 397.738 787.724 400.356 787.724C402.424 787.724 403.92 786.668 404.228 784.974H406.054C405.614 787.636 403.458 789.264 400.356 789.264ZM400.4 778.198C398.376 778.198 397.012 779.232 396.484 781.036L404.052 781.08C403.942 779.298 402.49 778.198 400.4 778.198ZM429.479 776.68C432.713 776.68 434.935 779.232 434.935 782.972C434.935 786.69 432.713 789.264 429.479 789.264C427.697 789.264 426.179 788.428 425.343 787.174L425.277 789H423.561V772.874H425.387V778.704C426.245 777.45 427.719 776.68 429.479 776.68ZM429.127 787.702C431.525 787.702 433.109 785.788 433.109 782.972C433.109 780.134 431.525 778.242 429.127 778.242C427.455 778.242 426.025 779.188 425.387 780.816V785.106C426.025 786.734 427.455 787.702 429.127 787.702ZM438.486 789V776.944H440.158L440.268 779.298C441.236 777.582 442.688 776.68 444.514 776.68C446.89 776.68 448.496 778.11 448.496 780.464V781.85H446.67V780.464C446.67 779.122 445.812 778.242 444.294 778.242C442.578 778.242 441.17 779.386 440.312 781.63V789H438.486ZM456.359 789.264C453.983 789.264 452.377 787.966 452.377 785.788C452.377 783.302 454.379 781.85 457.833 781.85H460.803V781.19C460.803 779.276 459.505 778.11 457.371 778.11C455.325 778.11 453.895 779.144 453.785 780.794H452.003C452.201 778.22 454.379 776.68 457.415 776.68C460.605 776.68 462.607 778.396 462.607 781.256V789H460.891L460.825 786.866C459.945 788.406 458.449 789.264 456.359 789.264ZM454.181 785.7C454.181 786.998 455.149 787.746 456.645 787.746C458.449 787.746 459.879 786.756 460.803 785.062V783.258H457.745C455.501 783.258 454.181 784.16 454.181 785.7ZM466.509 789V776.944H468.225L468.313 779.21C469.303 777.56 470.887 776.68 472.647 776.68C475.375 776.68 477.135 778.528 477.135 781.3V789H475.309V781.344C475.309 779.496 474.143 778.242 472.383 778.242C470.623 778.242 469.127 779.43 468.335 781.85V789H466.509ZM485.504 776.68C487.242 776.68 488.738 777.45 489.596 778.704V772.874H491.4V789H489.706L489.64 787.174C488.782 788.428 487.286 789.264 485.504 789.264C482.27 789.264 480.026 786.69 480.026 782.972C480.026 779.232 482.27 776.68 485.504 776.68ZM485.856 787.702C487.528 787.702 488.958 786.734 489.596 785.106V780.816C488.958 779.188 487.528 778.242 485.856 778.242C483.458 778.242 481.874 780.134 481.874 782.972C481.874 785.788 483.458 787.702 485.856 787.702ZM499.548 774.964V772.61H501.88V774.964L500.604 778.308H499.02L499.57 777.142L500.912 774.964H499.548ZM515.023 789.264C511.855 789.264 509.787 787.526 509.743 784.688H511.481C511.503 786.646 512.889 787.812 515.001 787.812C516.827 787.812 518.059 787.064 518.059 785.854C518.059 782.576 509.941 784.688 509.941 780.178C509.941 778.176 511.701 776.68 514.693 776.68C517.685 776.68 519.577 778.176 519.709 780.53H517.971C517.883 779.012 516.651 778.132 514.693 778.132C512.779 778.132 511.789 779.012 511.789 780.112C511.789 783.126 519.885 780.816 519.885 785.744C519.885 787.922 517.971 789.264 515.023 789.264ZM537.986 789V787.526H541.946V778.418H538.932V776.944H541.946V775.536C541.946 773.446 543.024 771.994 545.4 771.994H548.964V773.468H545.84C544.63 773.468 543.772 773.864 543.772 775.448V776.944H547.842V778.418H543.772V787.526H548.722V789H537.986ZM553.989 776.944V784.6C553.989 786.448 555.155 787.702 556.893 787.702C558.675 787.702 560.171 786.514 560.963 784.094V776.944H562.767V789H561.073L560.985 786.734C559.995 788.384 558.411 789.264 556.629 789.264C553.923 789.264 552.163 787.416 552.163 784.644V776.944H553.989ZM566.405 789V787.526H571.025V774.348H568.011V772.874H572.829V787.526H577.493V789H566.405ZM580.714 789V787.526H585.334V774.348H582.32V772.874H587.138V787.526H591.802V789H580.714ZM613.819 789L608.979 776.944H610.915L613.973 784.6L614.875 787.284L615.777 784.6L618.813 776.944H620.705L615.865 789H613.819ZM628.238 774.722V772.61H630.328V774.722H628.238ZM623.772 789V787.526H628.392V778.418H625.4V776.944H630.218V787.526H634.442V789H623.772ZM643.8 789.264C640.632 789.264 638.564 787.526 638.52 784.688H640.258C640.28 786.646 641.666 787.812 643.778 787.812C645.604 787.812 646.836 787.064 646.836 785.854C646.836 782.576 638.718 784.688 638.718 780.178C638.718 778.176 640.478 776.68 643.47 776.68C646.462 776.68 648.354 778.176 648.486 780.53H646.748C646.66 779.012 645.428 778.132 643.47 778.132C641.556 778.132 640.566 779.012 640.566 780.112C640.566 783.126 648.662 780.816 648.662 785.744C648.662 787.922 646.748 789.264 643.8 789.264ZM654.149 776.944V784.6C654.149 786.448 655.315 787.702 657.053 787.702C658.835 787.702 660.331 786.514 661.123 784.094V776.944H662.927V789H661.233L661.145 786.734C660.155 788.384 658.571 789.264 656.789 789.264C654.083 789.264 652.323 787.416 652.323 784.644V776.944H654.149ZM670.988 789.264C668.612 789.264 667.006 787.966 667.006 785.788C667.006 783.302 669.008 781.85 672.462 781.85H675.432V781.19C675.432 779.276 674.134 778.11 672 778.11C669.954 778.11 668.524 779.144 668.414 780.794H666.632C666.83 778.22 669.008 776.68 672.044 776.68C675.234 776.68 677.236 778.396 677.236 781.256V789H675.52L675.454 786.866C674.574 788.406 673.078 789.264 670.988 789.264ZM668.81 785.7C668.81 786.998 669.778 787.746 671.274 787.746C673.078 787.746 674.508 786.756 675.432 785.062V783.258H672.374C670.13 783.258 668.81 784.16 668.81 785.7ZM680.874 789V787.526H685.494V774.348H682.48V772.874H687.298V787.526H691.962V789H680.874ZM377.837 807.722V805.61H379.927V807.722H377.837ZM373.371 822V820.526H377.991V811.418H374.999V809.944H379.817V820.526H384.041V822H373.371ZM392.498 809.68C394.236 809.68 395.732 810.45 396.59 811.704V805.874H398.394V822H396.7L396.634 820.174C395.776 821.428 394.28 822.264 392.498 822.264C389.264 822.264 387.02 819.69 387.02 815.972C387.02 812.232 389.264 809.68 392.498 809.68ZM392.85 820.702C394.522 820.702 395.952 819.734 396.59 818.106V813.816C395.952 812.188 394.522 811.242 392.85 811.242C390.452 811.242 388.868 813.134 388.868 815.972C388.868 818.788 390.452 820.702 392.85 820.702ZM407.511 822.264C403.793 822.264 401.549 819.888 401.549 815.95C401.549 812.056 403.793 809.68 407.555 809.68C411.295 809.68 413.275 811.88 413.077 815.466H403.397C403.375 815.642 403.375 815.818 403.375 815.994C403.375 818.854 404.893 820.724 407.511 820.724C409.579 820.724 411.075 819.668 411.383 817.974H413.209C412.769 820.636 410.613 822.264 407.511 822.264ZM407.555 811.198C405.531 811.198 404.167 812.232 403.639 814.036L411.207 814.08C411.097 812.298 409.645 811.198 407.555 811.198ZM416.429 822V809.944H418.145L418.233 812.21C419.223 810.56 420.807 809.68 422.567 809.68C425.295 809.68 427.055 811.528 427.055 814.3V822H425.229V814.344C425.229 812.496 424.063 811.242 422.303 811.242C420.543 811.242 419.047 812.43 418.255 814.85V822H416.429ZM436.986 822C434.786 822 433.686 820.702 433.686 818.546V811.418H430.672V809.944H433.686V807.568L435.49 806.468V809.944H439.56V811.418H435.49V818.546C435.49 819.602 435.798 820.526 437.602 820.526H441.408V822H436.986ZM449.38 807.722V805.61H451.47V807.722H449.38ZM444.914 822V820.526H449.534V811.418H446.542V809.944H451.36V820.526H455.584V822H444.914ZM465.603 822C463.403 822 462.303 820.702 462.303 818.546V811.418H459.289V809.944H462.303V807.568L464.107 806.468V809.944H468.177V811.418H464.107V818.546C464.107 819.602 464.415 820.526 466.219 820.526H470.025V822H465.603ZM477.777 816.5L478.943 819.47L480.109 816.5L482.881 809.944H484.795L479.119 823.298C478.151 825.564 477.117 826.18 475.313 826.18H473.201V824.706H475.225C476.325 824.706 476.875 824.046 477.601 822.374L477.975 821.472L473.091 809.944H475.005L477.777 816.5ZM492.064 822V819.646H494.396V822H492.064Z" fill="#939393"/>
<defs>
<clipPath id="clip0_1067_67172">
<rect width="132.59" height="132.59" fill="white" transform="translate(1274 715)"/>
</clipPath>
</defs>
</svg>
