<svg width="1920" height="1080" viewBox="0 0 1920 1080" fill="none" xmlns="http://www.w3.org/2000/svg">
<rect width="1920" height="1080" fill="#090909"/>
<mask id="path-1-inside-1_1067_67114" fill="white">
<path d="M56 56H1864V1024H56V56Z"/>
</mask>
<path d="M56 56V57H1864V56V55H56V56Z" fill="#222222" mask="url(#path-1-inside-1_1067_67114)"/>
<mask id="path-3-inside-2_1067_67114" fill="white">
<path d="M56 56H817V1024H56V56Z"/>
</mask>
<path d="M56 56V57H817V56V55H56V56Z" fill="#222222" mask="url(#path-3-inside-2_1067_67114)"/>
<path d="M56.58 96L57.66 82.04H59.98L62.08 91.1L62.52 93.54L62.96 91.1L65.1 82.04H67.36L68.46 96H66.74L66.14 86.64L66.04 83.84L65.46 86.64L63.26 96H61.7L59.54 86.64L58.98 83.8L58.86 86.64L58.28 96H56.58ZM75.4878 96.24C72.1278 96.24 70.0878 94.06 70.0878 90.52C70.0878 86.96 72.1278 84.8 75.4878 84.8C78.8678 84.8 80.9078 86.96 80.9078 90.52C80.9078 94.06 78.8678 96.24 75.4878 96.24ZM75.4878 94.84C77.8278 94.84 79.2478 93.18 79.2478 90.52C79.2478 87.84 77.8278 86.2 75.4878 86.2C73.1478 86.2 71.7478 87.84 71.7478 90.52C71.7478 93.18 73.1478 94.84 75.4878 94.84ZM83.7356 96V85.04H85.2956L85.3756 87.1C86.2756 85.6 87.7156 84.8 89.3156 84.8C91.7956 84.8 93.3956 86.48 93.3956 89V96H91.7356V89.04C91.7356 87.36 90.6756 86.22 89.0756 86.22C87.4756 86.22 86.1156 87.3 85.3956 89.5V96H83.7356ZM101.503 96.24C98.1434 96.24 96.1034 94.06 96.1034 90.52C96.1034 86.96 98.1434 84.8 101.503 84.8C104.883 84.8 106.923 86.96 106.923 90.52C106.923 94.06 104.883 96.24 101.503 96.24ZM101.503 94.84C103.843 94.84 105.263 93.18 105.263 90.52C105.263 87.84 103.843 86.2 101.503 86.2C99.1634 86.2 97.7634 87.84 97.7634 90.52C97.7634 93.18 99.1634 94.84 101.503 94.84ZM114.891 96.24C111.511 96.24 109.371 94 109.371 90.52C109.371 87.02 111.611 84.8 114.911 84.8C117.451 84.8 119.471 86.32 119.731 88.7H118.071C117.831 87.12 116.591 86.2 114.911 86.2C112.571 86.2 111.031 87.86 111.031 90.52C111.031 93.2 112.551 94.84 114.891 94.84C116.391 94.84 117.771 93.88 118.131 92.34H119.791C119.351 94.74 117.291 96.24 114.891 96.24ZM122.759 96V81.32H124.419V87.08C125.319 85.58 126.739 84.8 128.339 84.8C130.819 84.8 132.419 86.48 132.419 89.02V96H130.759V89.06C130.759 87.36 129.699 86.22 128.099 86.22C126.499 86.22 125.139 87.3 124.419 89.5V96H122.759ZM136.307 96V85.04H137.827L137.927 87.18C138.807 85.62 140.127 84.8 141.787 84.8C143.947 84.8 145.407 86.1 145.407 88.24V89.5H143.747V88.24C143.747 87.02 142.967 86.22 141.587 86.22C140.027 86.22 138.747 87.26 137.967 89.3V96H136.307ZM153.535 96.24C150.175 96.24 148.135 94.06 148.135 90.52C148.135 86.96 150.175 84.8 153.535 84.8C156.915 84.8 158.955 86.96 158.955 90.52C158.955 94.06 156.915 96.24 153.535 96.24ZM153.535 94.84C155.875 94.84 157.295 93.18 157.295 90.52C157.295 87.84 155.875 86.2 153.535 86.2C151.195 86.2 149.795 87.84 149.795 90.52C149.795 93.18 151.195 94.84 153.535 94.84ZM161.103 96V85.04H162.562L162.623 86.62C163.123 85.44 164.003 84.8 164.963 84.8C166.163 84.8 166.923 85.5 167.203 86.7C167.723 85.46 168.643 84.8 169.683 84.8C171.143 84.8 172.023 85.88 172.023 87.8V96H170.463V87.9C170.463 86.82 170.083 86.2 169.303 86.2C168.483 86.2 167.763 86.94 167.323 88.46V96H165.783V87.9C165.783 86.78 165.383 86.2 164.563 86.2C163.763 86.2 163.083 86.92 162.643 88.3V96H161.103ZM179.69 96.24C176.31 96.24 174.27 94.08 174.27 90.5C174.27 86.96 176.31 84.8 179.73 84.8C183.13 84.8 184.93 86.8 184.75 90.06H175.95C175.93 90.22 175.93 90.38 175.93 90.54C175.93 93.14 177.31 94.84 179.69 94.84C181.57 94.84 182.93 93.88 183.21 92.34H184.87C184.47 94.76 182.51 96.24 179.69 96.24ZM179.73 86.18C177.89 86.18 176.65 87.12 176.17 88.76L183.05 88.8C182.95 87.18 181.63 86.18 179.73 86.18ZM200.566 96V94.66H204.766V82.68H202.026V81.34H206.406V94.66H210.646V96H200.566ZM218.574 96.24C215.214 96.24 213.174 94.06 213.174 90.52C213.174 86.96 215.214 84.8 218.574 84.8C221.954 84.8 223.994 86.96 223.994 90.52C223.994 94.06 221.954 96.24 218.574 96.24ZM218.574 94.84C220.914 94.84 222.334 93.18 222.334 90.52C222.334 87.84 220.914 86.2 218.574 86.2C216.234 86.2 214.834 87.84 214.834 90.52C214.834 93.18 216.234 94.84 218.574 94.84ZM234.862 86.76L234.922 85.04H236.462V94.9C236.462 98.08 234.722 99.8 231.342 99.8C228.522 99.8 226.742 98.62 226.542 96.24H228.262C228.382 97.6 229.402 98.4 231.422 98.4C233.622 98.4 234.802 97.22 234.802 95.12V93.38C234.062 94.6 232.702 95.34 231.082 95.34C228.202 95.34 226.222 93.16 226.222 90.08C226.222 86.84 228.262 84.8 231.142 84.8C232.762 84.8 234.142 85.6 234.862 86.76ZM231.402 94.02C232.962 94.02 234.302 93.08 234.802 91.54V88.6C234.302 87.06 232.962 86.12 231.402 86.12C229.282 86.12 227.882 87.72 227.882 90.06C227.882 92.4 229.282 94.02 231.402 94.02ZM244.589 96.24C241.229 96.24 239.189 94.06 239.189 90.52C239.189 86.96 241.229 84.8 244.589 84.8C247.969 84.8 250.009 86.96 250.009 90.52C250.009 94.06 247.969 96.24 244.589 96.24ZM244.589 94.84C246.929 94.84 248.349 93.18 248.349 90.52C248.349 87.84 246.929 86.2 244.589 86.2C242.249 86.2 240.849 87.84 240.849 90.52C240.849 93.18 242.249 94.84 244.589 94.84Z" fill="#939393"/>
<path d="M56 1008V1024H72" stroke="#939393"/>
<rect x="816.5" y="56.5" width="1047" height="967" stroke="#222222"/>
<path fill-rule="evenodd" clip-rule="evenodd" d="M919.964 96.0006C955.29 96.0006 983.928 124.639 983.928 159.965C983.928 169.853 981.684 179.217 977.677 187.575L987.067 196.966C989.091 198.989 989.091 202.271 987.067 204.295C985.044 206.318 981.762 206.318 979.739 204.295L972.254 196.809C971.14 198.386 969.955 199.911 968.706 201.378L977.888 210.56C979.911 212.584 979.911 215.865 977.888 217.888C975.864 219.913 972.583 219.913 970.559 217.888L961.378 208.708C959.91 209.956 958.386 211.141 956.809 212.255L964.294 219.74C966.317 221.763 966.317 225.045 964.294 227.068C962.27 229.092 958.989 229.092 956.965 227.068L947.574 217.677C939.216 221.684 929.852 223.928 919.964 223.928C884.638 223.928 856 195.291 856 159.965C856 124.639 884.638 96.0006 919.964 96.0006Z" fill="white"/>
<path fill-rule="evenodd" clip-rule="evenodd" d="M919.962 115.229C944.668 115.229 964.696 135.257 964.696 159.963C964.696 184.669 944.668 204.697 919.962 204.697C895.256 204.697 875.227 184.669 875.227 159.963C875.227 135.257 895.256 115.229 919.962 115.229Z" fill="#090909"/>
<path fill-rule="evenodd" clip-rule="evenodd" d="M919.966 130.476C936.254 130.476 949.457 143.679 949.457 159.968C949.457 176.256 936.254 189.459 919.966 189.459C903.677 189.459 890.474 176.256 890.474 159.968C890.474 143.679 903.677 130.476 919.966 130.476Z" fill="#747985"/>
<path fill-rule="evenodd" clip-rule="evenodd" d="M903.217 133.46C908.607 133.46 912.977 137.829 912.977 143.22C912.977 148.61 908.607 152.979 903.217 152.979C897.827 152.979 893.457 148.61 893.457 143.22C893.457 137.829 897.827 133.46 903.217 133.46Z" fill="white"/>
<path fill-rule="evenodd" clip-rule="evenodd" d="M919.965 146.151C927.596 146.151 933.782 152.337 933.782 159.968C933.782 167.599 927.596 173.784 919.965 173.784C912.334 173.784 906.148 167.599 906.148 159.968C906.148 152.337 912.334 146.151 919.965 146.151Z" fill="black"/>
<path d="M1407.84 183.074H1388.17V111.733H1407.84V183.074ZM1363.68 149.326C1363.68 146.911 1362.88 145.018 1361.27 143.648C1359.65 142.279 1357.64 141.594 1355.24 141.594C1352.83 141.594 1350.85 142.239 1349.3 143.547C1347.77 144.856 1346.77 146.789 1346.3 149.326H1363.68ZM1383.76 154.239C1383.76 155.79 1383.66 157.32 1383.45 158.871H1346.2C1346.4 161.952 1347.25 164.247 1348.76 165.737C1350.27 167.247 1352.18 168.012 1354.54 168.012C1357.82 168.012 1360.16 166.542 1361.57 163.583H1382.55C1381.68 167.469 1379.99 170.932 1377.47 173.972C1374.98 177.033 1371.82 179.43 1367.99 181.161C1364.16 182.912 1359.96 183.778 1355.35 183.778C1349.79 183.778 1344.83 182.611 1340.53 180.255C1336.2 177.919 1332.83 174.577 1330.38 170.207C1327.94 165.859 1326.71 160.743 1326.71 154.844C1326.71 148.964 1327.92 143.849 1330.34 139.541C1332.73 135.212 1336.12 131.889 1340.42 129.553C1344.73 127.198 1349.71 126.029 1355.35 126.029C1360.9 126.029 1365.82 127.177 1370.1 129.453C1374.39 131.728 1377.74 134.99 1380.13 139.238C1382.55 143.487 1383.76 148.481 1383.76 154.239ZM1301.52 126.231C1308.03 126.231 1313.18 128.385 1316.99 132.715C1320.81 137.024 1322.73 142.863 1322.73 150.232V183.074H1303.03V152.85C1303.03 149.629 1302.19 147.112 1300.52 145.259C1298.84 143.427 1296.61 142.5 1293.79 142.5C1290.85 142.5 1288.53 143.427 1286.86 145.259C1285.19 147.112 1284.35 149.629 1284.35 152.85V183.074H1264.67V126.734H1284.35V134.768C1286.1 132.232 1288.43 130.157 1291.37 128.587C1294.33 127.016 1297.72 126.231 1301.52 126.231ZM1257.06 183.074H1237.37V126.734H1257.06V183.074ZM1247.32 121.519C1243.83 121.519 1241.03 120.553 1238.92 118.64C1236.83 116.747 1235.76 114.351 1235.76 111.471C1235.76 108.531 1236.83 106.075 1238.92 104.142C1241.03 102.189 1243.83 101.222 1247.32 101.222C1250.72 101.222 1253.5 102.189 1255.59 104.142C1257.71 106.075 1258.75 108.531 1258.75 111.471C1258.75 114.351 1257.71 116.747 1255.59 118.64C1253.5 120.553 1250.72 121.519 1247.32 121.519ZM1231.97 166.301V183.074H1223.44C1209.04 183.074 1201.83 175.946 1201.83 161.69V143.104H1194.9V126.734H1201.83V111.733H1221.62V126.734H1231.87V143.104H1221.62V161.972C1221.62 163.522 1221.97 164.63 1222.67 165.295C1223.38 165.959 1224.56 166.301 1226.24 166.301H1231.97ZM1170.32 126.231C1176.82 126.231 1181.98 128.385 1185.78 132.715C1189.61 137.024 1191.52 142.863 1191.52 150.232V183.074H1171.83V152.85C1171.83 149.629 1170.98 147.112 1169.31 145.259C1167.64 143.427 1165.4 142.5 1162.59 142.5C1159.65 142.5 1157.33 143.427 1155.66 145.259C1153.99 147.112 1153.14 149.629 1153.14 152.85V183.074H1133.47V126.734H1153.14V134.768C1154.89 132.232 1157.23 130.157 1160.19 128.587C1163.13 127.016 1166.51 126.231 1170.32 126.231ZM1108.99 149.326C1108.99 146.911 1108.18 145.018 1106.57 143.648C1104.96 142.279 1102.96 141.594 1100.55 141.594C1098.13 141.594 1096.16 142.239 1094.63 143.547C1093.08 144.856 1092.07 146.789 1091.61 149.326H1108.99ZM1129.06 154.239C1129.06 155.79 1128.96 157.32 1128.76 158.871H1091.51C1091.71 161.952 1092.55 164.247 1094.07 165.737C1095.58 167.247 1097.51 168.012 1099.84 168.012C1103.13 168.012 1105.46 166.542 1106.87 163.583H1127.85C1126.99 167.469 1125.3 170.932 1122.8 173.972C1120.28 177.033 1117.12 179.43 1113.29 181.161C1109.49 182.912 1105.26 183.778 1100.65 183.778C1095.09 183.778 1090.16 182.611 1085.83 180.255C1081.52 177.919 1078.14 174.577 1075.68 170.207C1073.24 165.859 1072.02 160.743 1072.02 154.844C1072.02 148.964 1073.22 143.849 1075.64 139.541C1078.06 135.212 1081.42 131.889 1085.73 129.553C1090.06 127.198 1095.03 126.029 1100.65 126.029C1106.21 126.029 1111.12 127.177 1115.41 129.453C1119.7 131.728 1123.04 134.99 1125.46 139.238C1127.85 143.487 1129.06 148.481 1129.06 154.239ZM1043.32 183.778C1035.09 183.778 1028.32 181.806 1023.03 177.9C1017.75 173.972 1014.89 168.375 1014.49 161.086H1035.49C1035.69 163.562 1036.42 165.355 1037.71 166.502C1038.97 167.63 1040.6 168.214 1042.62 168.214C1044.43 168.214 1045.92 167.751 1047.09 166.844C1048.26 165.939 1048.84 164.69 1048.84 163.079C1048.84 161.005 1047.87 159.394 1045.94 158.266C1043.99 157.119 1040.85 155.851 1036.5 154.441C1031.87 152.911 1028.14 151.421 1025.3 149.971C1022.44 148.541 1019.97 146.426 1017.87 143.648C1015.76 140.87 1014.69 137.245 1014.69 132.755C1014.69 128.205 1015.84 124.298 1018.11 121.056C1020.39 117.815 1023.53 115.358 1027.56 113.686C1031.56 111.995 1036.11 111.169 1041.21 111.169C1049.44 111.169 1056.03 113.082 1060.94 116.949C1065.88 120.794 1068.49 126.191 1068.83 133.157H1047.43C1047.37 131.023 1046.73 129.412 1045.48 128.345C1044.25 127.258 1042.66 126.734 1040.7 126.734C1039.24 126.734 1038.03 127.177 1037.1 128.043C1036.15 128.909 1035.69 130.137 1035.69 131.748C1035.69 133.097 1036.21 134.246 1037.24 135.212C1038.29 136.198 1039.58 137.024 1041.11 137.728C1042.66 138.433 1044.93 139.319 1047.93 140.386C1052.42 141.937 1056.13 143.447 1059.03 144.957C1061.95 146.468 1064.47 148.581 1066.56 151.28C1068.67 153.998 1069.74 157.422 1069.74 161.589C1069.74 165.797 1068.67 169.583 1066.56 172.926C1064.47 176.268 1061.4 178.926 1057.44 180.859C1053.45 182.812 1048.74 183.778 1043.32 183.778Z" fill="white"/>
<path d="M1016.75 216.708C1016.75 214.289 1017.29 212.129 1018.37 210.227C1019.47 208.302 1020.96 206.811 1022.84 205.755C1024.74 204.675 1026.87 204.135 1029.22 204.135C1031.96 204.135 1034.37 204.839 1036.44 206.248C1038.5 207.657 1039.95 209.605 1040.77 212.094H1035.1C1034.53 210.92 1033.74 210.04 1032.7 209.453C1031.69 208.866 1030.52 208.572 1029.18 208.572C1027.75 208.572 1026.47 208.913 1025.34 209.594C1024.24 210.251 1023.37 211.19 1022.74 212.411C1022.13 213.632 1021.82 215.064 1021.82 216.708C1021.82 218.328 1022.13 219.76 1022.74 221.004C1023.37 222.225 1024.24 223.176 1025.34 223.857C1026.47 224.514 1027.75 224.843 1029.18 224.843C1030.52 224.843 1031.69 224.55 1032.7 223.963C1033.74 223.352 1034.53 222.46 1035.1 221.286H1040.77C1039.95 223.798 1038.5 225.759 1036.44 227.167C1034.39 228.553 1031.99 229.245 1029.22 229.245C1026.87 229.245 1024.74 228.717 1022.84 227.66C1020.96 226.58 1019.47 225.09 1018.37 223.188C1017.29 221.286 1016.75 219.126 1016.75 216.708ZM1077.17 229.28C1074.87 229.28 1072.76 228.74 1070.83 227.66C1068.9 226.58 1067.38 225.09 1066.25 223.188C1065.12 221.262 1064.56 219.091 1064.56 216.672C1064.56 214.278 1065.12 212.129 1066.25 210.227C1067.38 208.302 1068.9 206.8 1070.83 205.72C1072.76 204.64 1074.87 204.1 1077.17 204.1C1079.49 204.1 1081.61 204.64 1083.51 205.72C1085.43 206.8 1086.95 208.302 1088.05 210.227C1089.18 212.129 1089.74 214.278 1089.74 216.672C1089.74 219.091 1089.18 221.262 1088.05 223.188C1086.95 225.09 1085.43 226.58 1083.51 227.66C1081.58 228.74 1079.47 229.28 1077.17 229.28ZM1077.17 224.878C1078.65 224.878 1079.95 224.55 1081.08 223.892C1082.21 223.211 1083.09 222.249 1083.72 221.004C1084.35 219.76 1084.67 218.316 1084.67 216.672C1084.67 215.029 1084.35 213.597 1083.72 212.376C1083.09 211.131 1082.21 210.181 1081.08 209.523C1079.95 208.866 1078.65 208.537 1077.17 208.537C1075.69 208.537 1074.38 208.866 1073.22 209.523C1072.1 210.181 1071.22 211.131 1070.58 212.376C1069.95 213.597 1069.63 215.029 1069.63 216.672C1069.63 218.316 1069.95 219.76 1070.58 221.004C1071.22 222.249 1072.1 223.211 1073.22 223.892C1074.38 224.55 1075.69 224.878 1077.17 224.878ZM1122.78 204.452C1125.36 204.452 1127.63 204.957 1129.58 205.966C1131.55 206.976 1133.07 208.42 1134.12 210.298C1135.2 212.153 1135.74 214.313 1135.74 216.778C1135.74 219.243 1135.2 221.403 1134.12 223.258C1133.07 225.09 1131.55 226.51 1129.58 227.52C1127.63 228.529 1125.36 229.034 1122.78 229.034H1114.19V204.452H1122.78ZM1122.61 224.843C1125.19 224.843 1127.18 224.139 1128.59 222.73C1130 221.321 1130.71 219.337 1130.71 216.778C1130.71 214.219 1130 212.223 1128.59 210.791C1127.18 209.335 1125.19 208.607 1122.61 208.607H1119.12V224.843H1122.61ZM1165.14 208.431V214.595H1173.42V218.504H1165.14V225.019H1174.47V229.034H1160.21V204.417H1174.47V208.431H1165.14ZM1208.22 229.28C1206.51 229.28 1204.96 228.987 1203.57 228.4C1202.21 227.813 1201.13 226.968 1200.33 225.864C1199.53 224.761 1199.12 223.458 1199.1 221.955H1204.38C1204.45 222.965 1204.81 223.763 1205.44 224.35C1206.1 224.937 1206.99 225.23 1208.12 225.23C1209.27 225.23 1210.17 224.96 1210.83 224.42C1211.49 223.857 1211.81 223.129 1211.81 222.237C1211.81 221.509 1211.59 220.91 1211.14 220.441C1210.7 219.971 1210.14 219.607 1209.45 219.349C1208.8 219.067 1207.88 218.762 1206.71 218.433C1205.11 217.964 1203.81 217.506 1202.8 217.06C1201.81 216.59 1200.96 215.898 1200.23 214.982C1199.52 214.043 1199.17 212.798 1199.17 211.249C1199.17 209.793 1199.53 208.525 1200.26 207.445C1200.99 206.365 1202.01 205.543 1203.33 204.98C1204.64 204.393 1206.14 204.1 1207.83 204.1C1210.37 204.1 1212.42 204.722 1214 205.966C1215.59 207.187 1216.47 208.901 1216.64 211.108H1211.22C1211.17 210.263 1210.8 209.57 1210.12 209.03C1209.47 208.467 1208.59 208.185 1207.48 208.185C1206.52 208.185 1205.74 208.431 1205.16 208.924C1204.59 209.417 1204.31 210.134 1204.31 211.073C1204.31 211.73 1204.52 212.282 1204.95 212.728C1205.39 213.151 1205.93 213.503 1206.57 213.785C1207.22 214.043 1208.14 214.348 1209.31 214.7C1210.91 215.17 1212.21 215.639 1213.22 216.109C1214.23 216.578 1215.1 217.283 1215.83 218.222C1216.56 219.161 1216.92 220.394 1216.92 221.92C1216.92 223.235 1216.58 224.456 1215.9 225.583C1215.22 226.71 1214.22 227.613 1212.91 228.294C1211.59 228.952 1210.03 229.28 1208.22 229.28Z" fill="white"/>
<path d="M863.172 905.764C859.674 905.764 857.298 903.476 857.298 900.066V890.144H859.234V900.066C859.234 902.486 860.796 904.114 863.172 904.114C865.526 904.114 867.088 902.486 867.088 900.066V890.144H869.002V900.066C869.002 903.476 866.626 905.764 863.172 905.764ZM877.789 905.764C874.621 905.764 872.553 904.026 872.509 901.188H874.247C874.269 903.146 875.655 904.312 877.767 904.312C879.593 904.312 880.825 903.564 880.825 902.354C880.825 899.076 872.707 901.188 872.707 896.678C872.707 894.676 874.467 893.18 877.459 893.18C880.451 893.18 882.343 894.676 882.475 897.03H880.737C880.649 895.512 879.417 894.632 877.459 894.632C875.545 894.632 874.555 895.512 874.555 896.612C874.555 899.626 882.651 897.316 882.651 902.244C882.651 904.422 880.737 905.764 877.789 905.764ZM891.899 905.764C888.181 905.764 885.937 903.388 885.937 899.45C885.937 895.556 888.181 893.18 891.943 893.18C895.683 893.18 897.663 895.38 897.465 898.966H887.785C887.763 899.142 887.763 899.318 887.763 899.494C887.763 902.354 889.281 904.224 891.899 904.224C893.967 904.224 895.463 903.168 895.771 901.474H897.597C897.157 904.136 895.001 905.764 891.899 905.764ZM891.943 894.698C889.919 894.698 888.555 895.732 888.027 897.536L895.595 897.58C895.485 895.798 894.033 894.698 891.943 894.698ZM920.362 905.764C916.666 905.764 914.422 903.366 914.422 899.472C914.422 895.556 916.666 893.18 920.362 893.18C924.08 893.18 926.324 895.556 926.324 899.472C926.324 903.366 924.08 905.764 920.362 905.764ZM920.362 904.224C922.936 904.224 924.498 902.398 924.498 899.472C924.498 896.524 922.936 894.72 920.362 894.72C917.788 894.72 916.248 896.524 916.248 899.472C916.248 902.398 917.788 904.224 920.362 904.224ZM929.435 905.5V893.444H931.151L931.239 895.71C932.229 894.06 933.813 893.18 935.573 893.18C938.301 893.18 940.061 895.028 940.061 897.8V905.5H938.235V897.844C938.235 895.996 937.069 894.742 935.309 894.742C933.549 894.742 932.053 895.93 931.261 898.35V905.5H929.435ZM962.738 893.18C964.476 893.18 965.972 893.95 966.83 895.204V889.374H968.634V905.5H966.94L966.874 903.674C966.016 904.928 964.52 905.764 962.738 905.764C959.504 905.764 957.26 903.19 957.26 899.472C957.26 895.732 959.504 893.18 962.738 893.18ZM963.09 904.202C964.762 904.202 966.192 903.234 966.83 901.606V897.316C966.192 895.688 964.762 894.742 963.09 894.742C960.692 894.742 959.108 896.634 959.108 899.472C959.108 902.288 960.692 904.202 963.09 904.202ZM976.519 905.764C974.143 905.764 972.537 904.466 972.537 902.288C972.537 899.802 974.539 898.35 977.993 898.35H980.963V897.69C980.963 895.776 979.665 894.61 977.531 894.61C975.485 894.61 974.055 895.644 973.945 897.294H972.163C972.361 894.72 974.539 893.18 977.575 893.18C980.765 893.18 982.767 894.896 982.767 897.756V905.5H981.051L980.985 903.366C980.105 904.906 978.609 905.764 976.519 905.764ZM974.341 902.2C974.341 903.498 975.309 904.246 976.805 904.246C978.609 904.246 980.039 903.256 980.963 901.562V899.758H977.905C975.661 899.758 974.341 900.66 974.341 902.2ZM987.263 905.5V893.444H988.935L989.045 895.798C990.013 894.082 991.465 893.18 993.291 893.18C995.667 893.18 997.273 894.61 997.273 896.964V898.35H995.447V896.964C995.447 895.622 994.589 894.742 993.071 894.742C991.355 894.742 989.947 895.886 989.089 898.13V905.5H987.263ZM1000.76 905.5V889.374H1002.56V895.71L1002.5 898.9L1004.83 896.7L1008.59 893.444H1011.05L1006.59 897.404L1011.32 905.5H1009.18L1005.2 898.614L1002.56 900.924V905.5H1000.76ZM1019.36 905.5V903.168H1021.69V905.5L1020.32 909.306H1018.74L1019.29 908.206L1020.72 905.478L1019.36 905.5ZM1050.15 905.5C1047.95 905.5 1046.85 904.202 1046.85 902.046V894.918H1043.84V893.444H1046.85V891.068L1048.66 889.968V893.444H1052.73V894.918H1048.66V902.046C1048.66 903.102 1048.96 904.026 1050.77 904.026H1054.57V905.5H1050.15ZM1063.6 905.764C1059.88 905.764 1057.64 903.388 1057.64 899.45C1057.64 895.556 1059.88 893.18 1063.65 893.18C1067.39 893.18 1069.37 895.38 1069.17 898.966H1059.49C1059.47 899.142 1059.47 899.318 1059.47 899.494C1059.47 902.354 1060.98 904.224 1063.6 904.224C1065.67 904.224 1067.17 903.168 1067.47 901.474H1069.3C1068.86 904.136 1066.7 905.764 1063.6 905.764ZM1063.65 894.698C1061.62 894.698 1060.26 895.732 1059.73 897.536L1067.3 897.58C1067.19 895.798 1065.74 894.698 1063.65 894.698ZM1078.86 899.23L1083.34 905.5H1081.23L1079.52 903.168L1077.76 900.572L1075.97 903.19L1074.28 905.5H1072.23L1076.66 899.274L1072.45 893.444H1074.54L1075.95 895.336L1077.73 897.932L1079.52 895.336L1080.95 893.444H1082.99L1078.86 899.23ZM1093.08 905.5C1090.88 905.5 1089.78 904.202 1089.78 902.046V894.918H1086.76V893.444H1089.78V891.068L1091.58 889.968V893.444H1095.65V894.918H1091.58V902.046C1091.58 903.102 1091.89 904.026 1093.69 904.026H1097.5V905.5H1093.08ZM1102.77 893.444V901.1C1102.77 902.948 1103.93 904.202 1105.67 904.202C1107.45 904.202 1108.95 903.014 1109.74 900.594V893.444H1111.54V905.5H1109.85L1109.76 903.234C1108.77 904.884 1107.19 905.764 1105.41 905.764C1102.7 905.764 1100.94 903.916 1100.94 901.144V893.444H1102.77ZM1116.04 905.5V893.444H1117.71L1117.82 895.798C1118.79 894.082 1120.24 893.18 1122.07 893.18C1124.44 893.18 1126.05 894.61 1126.05 896.964V898.35H1124.22V896.964C1124.22 895.622 1123.37 894.742 1121.85 894.742C1120.13 894.742 1118.72 895.886 1117.87 898.13V905.5H1116.04ZM1135.15 905.764C1131.43 905.764 1129.18 903.388 1129.18 899.45C1129.18 895.556 1131.43 893.18 1135.19 893.18C1138.93 893.18 1140.91 895.38 1140.71 898.966H1131.03C1131.01 899.142 1131.01 899.318 1131.01 899.494C1131.01 902.354 1132.53 904.224 1135.15 904.224C1137.21 904.224 1138.71 903.168 1139.02 901.474H1140.84C1140.4 904.136 1138.25 905.764 1135.15 905.764ZM1135.19 894.698C1133.17 894.698 1131.8 895.732 1131.27 897.536L1138.84 897.58C1138.73 895.798 1137.28 894.698 1135.19 894.698ZM1148.75 893.18C1150.49 893.18 1151.98 893.95 1152.84 895.204V889.374H1154.65V905.5H1152.95L1152.89 903.674C1152.03 904.928 1150.53 905.764 1148.75 905.764C1145.52 905.764 1143.27 903.19 1143.27 899.472C1143.27 895.732 1145.52 893.18 1148.75 893.18ZM1149.1 904.202C1150.77 904.202 1152.2 903.234 1152.84 901.606V897.316C1152.2 895.688 1150.77 894.742 1149.1 894.742C1146.7 894.742 1145.12 896.634 1145.12 899.472C1145.12 902.288 1146.7 904.202 1149.1 904.202ZM1162.44 905.5V903.168H1164.77V905.5L1163.41 909.306H1161.83L1162.38 908.206L1163.81 905.478L1162.44 905.5ZM1192.23 905.764C1188.53 905.764 1186.29 903.366 1186.29 899.472C1186.29 895.556 1188.53 893.18 1192.23 893.18C1195.94 893.18 1198.19 895.556 1198.19 899.472C1198.19 903.366 1195.94 905.764 1192.23 905.764ZM1192.23 904.224C1194.8 904.224 1196.36 902.398 1196.36 899.472C1196.36 896.524 1194.8 894.72 1192.23 894.72C1189.65 894.72 1188.11 896.524 1188.11 899.472C1188.11 902.398 1189.65 904.224 1192.23 904.224ZM1201.89 905.5V893.444H1203.56L1203.67 895.798C1204.64 894.082 1206.09 893.18 1207.92 893.18C1210.3 893.18 1211.9 894.61 1211.9 896.964V898.35H1210.08V896.964C1210.08 895.622 1209.22 894.742 1207.7 894.742C1205.98 894.742 1204.58 895.886 1203.72 898.13V905.5H1201.89ZM1235.57 905.764C1231.85 905.764 1229.5 903.3 1229.5 899.472C1229.5 895.622 1231.96 893.18 1235.59 893.18C1238.39 893.18 1240.61 894.852 1240.89 897.47H1239.07C1238.8 895.732 1237.44 894.72 1235.59 894.72C1233.02 894.72 1231.32 896.546 1231.32 899.472C1231.32 902.42 1233 904.224 1235.57 904.224C1237.22 904.224 1238.74 903.168 1239.13 901.474H1240.96C1240.48 904.114 1238.21 905.764 1235.57 905.764ZM1249.46 905.764C1245.76 905.764 1243.52 903.366 1243.52 899.472C1243.52 895.556 1245.76 893.18 1249.46 893.18C1253.18 893.18 1255.42 895.556 1255.42 899.472C1255.42 903.366 1253.18 905.764 1249.46 905.764ZM1249.46 904.224C1252.03 904.224 1253.6 902.398 1253.6 899.472C1253.6 896.524 1252.03 894.72 1249.46 894.72C1246.89 894.72 1245.35 896.524 1245.35 899.472C1245.35 902.398 1246.89 904.224 1249.46 904.224ZM1257.78 905.5V893.444H1259.39L1259.46 895.182C1260.01 893.884 1260.97 893.18 1262.03 893.18C1263.35 893.18 1264.19 893.95 1264.49 895.27C1265.07 893.906 1266.08 893.18 1267.22 893.18C1268.83 893.18 1269.8 894.368 1269.8 896.48V905.5H1268.08V896.59C1268.08 895.402 1267.66 894.72 1266.8 894.72C1265.9 894.72 1265.11 895.534 1264.63 897.206V905.5H1262.93V896.59C1262.93 895.358 1262.49 894.72 1261.59 894.72C1260.71 894.72 1259.96 895.512 1259.48 897.03V905.5H1257.78ZM1278.69 893.18C1281.93 893.18 1284.17 895.732 1284.17 899.472C1284.17 903.19 1281.93 905.764 1278.69 905.764C1276.96 905.764 1275.48 904.972 1274.62 903.74V909.416H1272.8V893.444H1274.51L1274.58 895.248C1275.44 893.994 1276.93 893.18 1278.69 893.18ZM1278.34 904.202C1280.74 904.202 1282.35 902.288 1282.35 899.472C1282.35 896.634 1280.74 894.742 1278.34 894.742C1276.69 894.742 1275.26 895.71 1274.62 897.294V901.628C1275.26 903.234 1276.69 904.202 1278.34 904.202ZM1286.89 905.5V904.026H1291.51V890.848H1288.49V889.374H1293.31V904.026H1297.97V905.5H1286.89ZM1306.85 905.764C1303.13 905.764 1300.89 903.388 1300.89 899.45C1300.89 895.556 1303.13 893.18 1306.89 893.18C1310.63 893.18 1312.61 895.38 1312.41 898.966H1302.73C1302.71 899.142 1302.71 899.318 1302.71 899.494C1302.71 902.354 1304.23 904.224 1306.85 904.224C1308.92 904.224 1310.41 903.168 1310.72 901.474H1312.55C1312.11 904.136 1309.95 905.764 1306.85 905.764ZM1306.89 894.698C1304.87 894.698 1303.5 895.732 1302.98 897.536L1310.54 897.58C1310.43 895.798 1308.98 894.698 1306.89 894.698ZM1322.1 899.23L1326.59 905.5H1324.48L1322.76 903.168L1321 900.572L1319.22 903.19L1317.53 905.5H1315.48L1319.9 899.274L1315.7 893.444H1317.79L1319.2 895.336L1320.98 897.932L1322.76 895.336L1324.19 893.444H1326.24L1322.1 899.23ZM863.788 926.18C867.022 926.18 869.244 928.732 869.244 932.472C869.244 936.19 867.022 938.764 863.788 938.764C862.006 938.764 860.488 937.928 859.652 936.674L859.586 938.5H857.87V922.374H859.696V928.204C860.554 926.95 862.028 926.18 863.788 926.18ZM863.436 937.202C865.834 937.202 867.418 935.288 867.418 932.472C867.418 929.634 865.834 927.742 863.436 927.742C861.764 927.742 860.334 928.688 859.696 930.316V934.606C860.334 936.234 861.764 937.202 863.436 937.202ZM876.359 938.764C873.983 938.764 872.377 937.466 872.377 935.288C872.377 932.802 874.379 931.35 877.833 931.35H880.803V930.69C880.803 928.776 879.505 927.61 877.371 927.61C875.325 927.61 873.895 928.644 873.785 930.294H872.003C872.201 927.72 874.379 926.18 877.415 926.18C880.605 926.18 882.607 927.896 882.607 930.756V938.5H880.891L880.825 936.366C879.945 937.906 878.449 938.764 876.359 938.764ZM874.181 935.2C874.181 936.498 875.149 937.246 876.645 937.246C878.449 937.246 879.879 936.256 880.803 934.562V932.758H877.745C875.501 932.758 874.181 933.66 874.181 935.2ZM892.163 938.764C888.445 938.764 886.091 936.3 886.091 932.472C886.091 928.622 888.555 926.18 892.185 926.18C894.979 926.18 897.201 927.852 897.487 930.47H895.661C895.397 928.732 894.033 927.72 892.185 927.72C889.611 927.72 887.917 929.546 887.917 932.472C887.917 935.42 889.589 937.224 892.163 937.224C893.813 937.224 895.331 936.168 895.727 934.474H897.553C897.069 937.114 894.803 938.764 892.163 938.764ZM900.598 938.5V922.374H902.402V928.71L902.336 931.9L904.668 929.7L908.43 926.444H910.894L906.428 930.404L911.158 938.5H909.024L905.042 931.614L902.402 933.924V938.5H900.598ZM923.97 928.336L924.036 926.444H925.73V937.29C925.73 940.788 923.816 942.68 920.098 942.68C916.996 942.68 915.038 941.382 914.818 938.764H916.71C916.842 940.26 917.964 941.14 920.186 941.14C922.606 941.14 923.904 939.842 923.904 937.532V935.618C923.09 936.96 921.594 937.774 919.812 937.774C916.644 937.774 914.466 935.376 914.466 931.988C914.466 928.424 916.71 926.18 919.878 926.18C921.66 926.18 923.178 927.06 923.97 928.336ZM920.164 936.322C921.88 936.322 923.354 935.288 923.904 933.594V930.36C923.354 928.666 921.88 927.632 920.164 927.632C917.832 927.632 916.292 929.392 916.292 931.966C916.292 934.54 917.832 936.322 920.164 936.322ZM930.029 938.5V926.444H931.701L931.811 928.798C932.779 927.082 934.231 926.18 936.057 926.18C938.433 926.18 940.039 927.61 940.039 929.964V931.35H938.213V929.964C938.213 928.622 937.355 927.742 935.837 927.742C934.121 927.742 932.713 928.886 931.855 931.13V938.5H930.029ZM948.98 938.764C945.284 938.764 943.04 936.366 943.04 932.472C943.04 928.556 945.284 926.18 948.98 926.18C952.698 926.18 954.942 928.556 954.942 932.472C954.942 936.366 952.698 938.764 948.98 938.764ZM948.98 937.224C951.554 937.224 953.116 935.398 953.116 932.472C953.116 929.524 951.554 927.72 948.98 927.72C946.406 927.72 944.866 929.524 944.866 932.472C944.866 935.398 946.406 937.224 948.98 937.224ZM959.68 926.444V934.1C959.68 935.948 960.846 937.202 962.584 937.202C964.366 937.202 965.862 936.014 966.654 933.594V926.444H968.458V938.5H966.764L966.676 936.234C965.686 937.884 964.102 938.764 962.32 938.764C959.614 938.764 957.854 936.916 957.854 934.144V926.444H959.68ZM972.361 938.5V926.444H974.077L974.165 928.71C975.155 927.06 976.739 926.18 978.499 926.18C981.227 926.18 982.987 928.028 982.987 930.8V938.5H981.161V930.844C981.161 928.996 979.995 927.742 978.235 927.742C976.475 927.742 974.979 928.93 974.187 931.35V938.5H972.361ZM991.355 926.18C993.093 926.18 994.589 926.95 995.447 928.204V922.374H997.251V938.5H995.557L995.491 936.674C994.633 937.928 993.137 938.764 991.355 938.764C988.121 938.764 985.877 936.19 985.877 932.472C985.877 928.732 988.121 926.18 991.355 926.18ZM991.707 937.202C993.379 937.202 994.809 936.234 995.447 934.606V930.316C994.809 928.688 993.379 927.742 991.707 927.742C989.309 927.742 987.725 929.634 987.725 932.472C987.725 935.288 989.309 937.202 991.707 937.202ZM1006.57 938.764C1003.4 938.764 1001.33 937.026 1001.29 934.188H1003.02C1003.05 936.146 1004.43 937.312 1006.54 937.312C1008.37 937.312 1009.6 936.564 1009.6 935.354C1009.6 932.076 1001.48 934.188 1001.48 929.678C1001.48 927.676 1003.24 926.18 1006.24 926.18C1009.23 926.18 1011.12 927.676 1011.25 930.03H1009.51C1009.43 928.512 1008.19 927.632 1006.24 927.632C1004.32 927.632 1003.33 928.512 1003.33 929.612C1003.33 932.626 1011.43 930.316 1011.43 935.244C1011.43 937.422 1009.51 938.764 1006.57 938.764ZM1030.3 938.5L1028.19 926.4H1029.9L1031.09 933.484L1031.62 936.542L1032.32 933.484L1034.08 926.4H1035.71L1037.52 933.484L1038.22 936.564L1038.7 933.484L1039.91 926.4H1041.54L1039.43 938.5H1037.25L1035.49 931.548L1034.9 928.358L1034.28 931.548L1032.5 938.5H1030.3ZM1043.9 938.5V922.352H1045.73V928.688C1046.72 927.038 1048.28 926.18 1050.04 926.18C1052.77 926.18 1054.53 928.028 1054.53 930.822V938.5H1052.7V930.866C1052.7 928.996 1051.54 927.742 1049.78 927.742C1048.02 927.742 1046.52 928.93 1045.73 931.35V938.5H1043.9ZM1063.6 938.764C1059.88 938.764 1057.64 936.388 1057.64 932.45C1057.64 928.556 1059.88 926.18 1063.65 926.18C1067.39 926.18 1069.37 928.38 1069.17 931.966H1059.49C1059.47 932.142 1059.47 932.318 1059.47 932.494C1059.47 935.354 1060.98 937.224 1063.6 937.224C1065.67 937.224 1067.17 936.168 1067.47 934.474H1069.3C1068.86 937.136 1066.7 938.764 1063.6 938.764ZM1063.65 927.698C1061.62 927.698 1060.26 928.732 1059.73 930.536L1067.3 930.58C1067.19 928.798 1065.74 927.698 1063.65 927.698ZM1073.11 938.5V926.444H1074.79L1074.9 928.798C1075.86 927.082 1077.32 926.18 1079.14 926.18C1081.52 926.18 1083.12 927.61 1083.12 929.964V931.35H1081.3V929.964C1081.3 928.622 1080.44 927.742 1078.92 927.742C1077.21 927.742 1075.8 928.886 1074.94 931.13V938.5H1073.11ZM1092.22 938.764C1088.5 938.764 1086.26 936.388 1086.26 932.45C1086.26 928.556 1088.5 926.18 1092.26 926.18C1096 926.18 1097.98 928.38 1097.79 931.966H1088.11C1088.08 932.142 1088.08 932.318 1088.08 932.494C1088.08 935.354 1089.6 937.224 1092.22 937.224C1094.29 937.224 1095.78 936.168 1096.09 934.474H1097.92C1097.48 937.136 1095.32 938.764 1092.22 938.764ZM1092.26 927.698C1090.24 927.698 1088.88 928.732 1088.35 930.536L1095.92 930.58C1095.81 928.798 1094.35 927.698 1092.26 927.698ZM1121.69 938.5C1119.49 938.5 1118.39 937.202 1118.39 935.046V927.918H1115.38V926.444H1118.39V924.068L1120.2 922.968V926.444H1124.27V927.918H1120.2V935.046C1120.2 936.102 1120.51 937.026 1122.31 937.026H1126.12V938.5H1121.69ZM1129.76 938.5V922.352H1131.58V928.688C1132.57 927.038 1134.13 926.18 1135.89 926.18C1138.62 926.18 1140.38 928.028 1140.38 930.822V938.5H1138.56V930.866C1138.56 928.996 1137.39 927.742 1135.63 927.742C1133.87 927.742 1132.37 928.93 1131.58 931.35V938.5H1129.76ZM1149.45 938.764C1145.74 938.764 1143.49 936.388 1143.49 932.45C1143.49 928.556 1145.74 926.18 1149.5 926.18C1153.24 926.18 1155.22 928.38 1155.02 931.966H1145.34C1145.32 932.142 1145.32 932.318 1145.32 932.494C1145.32 935.354 1146.84 937.224 1149.45 937.224C1151.52 937.224 1153.02 936.168 1153.33 934.474H1155.15C1154.71 937.136 1152.56 938.764 1149.45 938.764ZM1149.5 927.698C1147.47 927.698 1146.11 928.732 1145.58 930.536L1153.15 930.58C1153.04 928.798 1151.59 927.698 1149.5 927.698ZM1172.62 938.5V937.026H1176.58V927.918H1173.56V926.444H1176.58V925.036C1176.58 922.946 1177.65 921.494 1180.03 921.494H1183.59V922.968H1180.47C1179.26 922.968 1178.4 923.364 1178.4 924.948V926.444H1182.47V927.918H1178.4V937.026H1183.35V938.5H1172.62ZM1188.62 926.444V934.1C1188.62 935.948 1189.78 937.202 1191.52 937.202C1193.3 937.202 1194.8 936.014 1195.59 933.594V926.444H1197.4V938.5H1195.7L1195.61 936.234C1194.62 937.884 1193.04 938.764 1191.26 938.764C1188.55 938.764 1186.79 936.916 1186.79 934.144V926.444H1188.62ZM1201.03 938.5V937.026H1205.65V923.848H1202.64V922.374H1207.46V937.026H1212.12V938.5H1201.03ZM1215.34 938.5V937.026H1219.96V923.848H1216.95V922.374H1221.77V937.026H1226.43V938.5H1215.34ZM1231.92 932.494V930.888H1238.43V932.494H1231.92ZM1249.88 938.764C1246.16 938.764 1243.81 936.3 1243.81 932.472C1243.81 928.622 1246.27 926.18 1249.9 926.18C1252.69 926.18 1254.92 927.852 1255.2 930.47H1253.38C1253.11 928.732 1251.75 927.72 1249.9 927.72C1247.33 927.72 1245.63 929.546 1245.63 932.472C1245.63 935.42 1247.3 937.224 1249.88 937.224C1251.53 937.224 1253.05 936.168 1253.44 934.474H1255.27C1254.78 937.114 1252.52 938.764 1249.88 938.764ZM1263.77 938.764C1260.07 938.764 1257.83 936.366 1257.83 932.472C1257.83 928.556 1260.07 926.18 1263.77 926.18C1267.49 926.18 1269.73 928.556 1269.73 932.472C1269.73 936.366 1267.49 938.764 1263.77 938.764ZM1263.77 937.224C1266.34 937.224 1267.9 935.398 1267.9 932.472C1267.9 929.524 1266.34 927.72 1263.77 927.72C1261.19 927.72 1259.65 929.524 1259.65 932.472C1259.65 935.398 1261.19 937.224 1263.77 937.224ZM1272.58 938.5V937.026H1277.2V923.848H1274.18V922.374H1279V937.026H1283.67V938.5H1272.58ZM1292.39 938.764C1288.69 938.764 1286.45 936.366 1286.45 932.472C1286.45 928.556 1288.69 926.18 1292.39 926.18C1296.1 926.18 1298.35 928.556 1298.35 932.472C1298.35 936.366 1296.1 938.764 1292.39 938.764ZM1292.39 937.224C1294.96 937.224 1296.52 935.398 1296.52 932.472C1296.52 929.524 1294.96 927.72 1292.39 927.72C1289.81 927.72 1288.27 929.524 1288.27 932.472C1288.27 935.398 1289.81 937.224 1292.39 937.224ZM1302.05 938.5V926.444H1303.72L1303.83 928.798C1304.8 927.082 1306.25 926.18 1308.08 926.18C1310.46 926.18 1312.06 927.61 1312.06 929.964V931.35H1310.24V929.964C1310.24 928.622 1309.38 927.742 1307.86 927.742C1306.14 927.742 1304.74 928.886 1303.88 931.13V938.5H1302.05ZM1329.81 938.5V937.026H1334.43V923.848H1331.42V922.374H1336.24V937.026H1340.9V938.5H1329.81ZM1349.62 938.764C1345.92 938.764 1343.68 936.366 1343.68 932.472C1343.68 928.556 1345.92 926.18 1349.62 926.18C1353.34 926.18 1355.58 928.556 1355.58 932.472C1355.58 936.366 1353.34 938.764 1349.62 938.764ZM1349.62 937.224C1352.19 937.224 1353.76 935.398 1353.76 932.472C1353.76 929.524 1352.19 927.72 1349.62 927.72C1347.05 927.72 1345.51 929.524 1345.51 932.472C1345.51 935.398 1347.05 937.224 1349.62 937.224ZM1367.54 928.336L1367.6 926.444H1369.3V937.29C1369.3 940.788 1367.38 942.68 1363.66 942.68C1360.56 942.68 1358.6 941.382 1358.38 938.764H1360.28C1360.41 940.26 1361.53 941.14 1363.75 941.14C1366.17 941.14 1367.47 939.842 1367.47 937.532V935.618C1366.66 936.96 1365.16 937.774 1363.38 937.774C1360.21 937.774 1358.03 935.376 1358.03 931.988C1358.03 928.424 1360.28 926.18 1363.44 926.18C1365.23 926.18 1366.74 927.06 1367.54 928.336ZM1363.73 936.322C1365.45 936.322 1366.92 935.288 1367.47 933.594V930.36C1366.92 928.666 1365.45 927.632 1363.73 927.632C1361.4 927.632 1359.86 929.392 1359.86 931.966C1359.86 934.54 1361.4 936.322 1363.73 936.322ZM1378.24 938.764C1374.54 938.764 1372.3 936.366 1372.3 932.472C1372.3 928.556 1374.54 926.18 1378.24 926.18C1381.96 926.18 1384.2 928.556 1384.2 932.472C1384.2 936.366 1381.96 938.764 1378.24 938.764ZM1378.24 937.224C1380.81 937.224 1382.37 935.398 1382.37 932.472C1382.37 929.524 1380.81 927.72 1378.24 927.72C1375.66 927.72 1374.12 929.524 1374.12 932.472C1374.12 935.398 1375.66 937.224 1378.24 937.224ZM862.226 957.222V955.11H864.316V957.222H862.226ZM857.76 971.5V970.026H862.38V960.918H859.388V959.444H864.206V970.026H868.43V971.5H857.76ZM877.789 971.764C874.621 971.764 872.553 970.026 872.509 967.188H874.247C874.269 969.146 875.655 970.312 877.767 970.312C879.593 970.312 880.825 969.564 880.825 968.354C880.825 965.076 872.707 967.188 872.707 962.678C872.707 960.676 874.467 959.18 877.459 959.18C880.451 959.18 882.343 960.676 882.475 963.03H880.737C880.649 961.512 879.417 960.632 877.459 960.632C875.545 960.632 874.555 961.512 874.555 962.612C874.555 965.626 882.651 963.316 882.651 968.244C882.651 970.422 880.737 971.764 877.789 971.764ZM900.818 971.5V955.352H902.644V961.688C903.634 960.038 905.196 959.18 906.956 959.18C909.684 959.18 911.444 961.028 911.444 963.822V971.5H909.618V963.866C909.618 961.996 908.452 960.742 906.692 960.742C904.932 960.742 903.436 961.93 902.644 964.35V971.5H900.818ZM919.284 971.764C916.908 971.764 915.302 970.466 915.302 968.288C915.302 965.802 917.304 964.35 920.758 964.35H923.728V963.69C923.728 961.776 922.43 960.61 920.296 960.61C918.25 960.61 916.82 961.644 916.71 963.294H914.928C915.126 960.72 917.304 959.18 920.34 959.18C923.53 959.18 925.532 960.896 925.532 963.756V971.5H923.816L923.75 969.366C922.87 970.906 921.374 971.764 919.284 971.764ZM917.106 968.2C917.106 969.498 918.074 970.246 919.57 970.246C921.374 970.246 922.804 969.256 923.728 967.562V965.758H920.67C918.426 965.758 917.106 966.66 917.106 968.2ZM930.029 971.5V959.444H931.701L931.811 961.798C932.779 960.082 934.231 959.18 936.057 959.18C938.433 959.18 940.039 960.61 940.039 962.964V964.35H938.213V962.964C938.213 961.622 937.355 960.742 935.837 960.742C934.121 960.742 932.713 961.886 931.855 964.13V971.5H930.029ZM948.43 959.18C950.168 959.18 951.664 959.95 952.522 961.204V955.374H954.326V971.5H952.632L952.566 969.674C951.708 970.928 950.212 971.764 948.43 971.764C945.196 971.764 942.952 969.19 942.952 965.472C942.952 961.732 945.196 959.18 948.43 959.18ZM948.782 970.202C950.454 970.202 951.884 969.234 952.522 967.606V963.316C951.884 961.688 950.454 960.742 948.782 960.742C946.384 960.742 944.8 962.634 944.8 965.472C944.8 968.288 946.384 970.202 948.782 970.202ZM978.609 971.5C976.409 971.5 975.309 970.202 975.309 968.046V960.918H972.295V959.444H975.309V957.068L977.113 955.968V959.444H981.183V960.918H977.113V968.046C977.113 969.102 977.421 970.026 979.225 970.026H983.031V971.5H978.609ZM991.905 971.764C988.209 971.764 985.965 969.366 985.965 965.472C985.965 961.556 988.209 959.18 991.905 959.18C995.623 959.18 997.867 961.556 997.867 965.472C997.867 969.366 995.623 971.764 991.905 971.764ZM991.905 970.224C994.479 970.224 996.041 968.398 996.041 965.472C996.041 962.524 994.479 960.72 991.905 960.72C989.331 960.72 987.791 962.524 987.791 965.472C987.791 968.398 989.331 970.224 991.905 970.224ZM1015.88 971.5V959.444H1017.55L1017.66 961.798C1018.63 960.082 1020.08 959.18 1021.91 959.18C1024.28 959.18 1025.89 960.61 1025.89 962.964V964.35H1024.06V962.964C1024.06 961.622 1023.21 960.742 1021.69 960.742C1019.97 960.742 1018.56 961.886 1017.71 964.13V971.5H1015.88ZM1034.99 971.764C1031.27 971.764 1029.02 969.388 1029.02 965.45C1029.02 961.556 1031.27 959.18 1035.03 959.18C1038.77 959.18 1040.75 961.38 1040.55 964.966H1030.87C1030.85 965.142 1030.85 965.318 1030.85 965.494C1030.85 968.354 1032.37 970.224 1034.99 970.224C1037.05 970.224 1038.55 969.168 1038.86 967.474H1040.68C1040.24 970.136 1038.09 971.764 1034.99 971.764ZM1035.03 960.698C1033.01 960.698 1031.64 961.732 1031.11 963.536L1038.68 963.58C1038.57 961.798 1037.12 960.698 1035.03 960.698ZM1048.06 971.764C1045.69 971.764 1044.08 970.466 1044.08 968.288C1044.08 965.802 1046.08 964.35 1049.54 964.35H1052.51V963.69C1052.51 961.776 1051.21 960.61 1049.07 960.61C1047.03 960.61 1045.6 961.644 1045.49 963.294H1043.71C1043.9 960.72 1046.08 959.18 1049.12 959.18C1052.31 959.18 1054.31 960.896 1054.31 963.756V971.5H1052.59L1052.53 969.366C1051.65 970.906 1050.15 971.764 1048.06 971.764ZM1045.88 968.2C1045.88 969.498 1046.85 970.246 1048.35 970.246C1050.15 970.246 1051.58 969.256 1052.51 967.562V965.758H1049.45C1047.2 965.758 1045.88 966.66 1045.88 968.2ZM1062.9 959.18C1064.64 959.18 1066.13 959.95 1066.99 961.204V955.374H1068.79V971.5H1067.1L1067.03 969.674C1066.18 970.928 1064.68 971.764 1062.9 971.764C1059.66 971.764 1057.42 969.19 1057.42 965.472C1057.42 961.732 1059.66 959.18 1062.9 959.18ZM1063.25 970.202C1064.92 970.202 1066.35 969.234 1066.99 967.606V963.316C1066.35 961.688 1064.92 960.742 1063.25 960.742C1060.85 960.742 1059.27 962.634 1059.27 965.472C1059.27 968.288 1060.85 970.202 1063.25 970.202ZM1076.61 971.5V969.146H1078.94V971.5H1076.61Z" fill="#939393"/>
<g clip-path="url(#clip0_1067_67114)">
<path fill-rule="evenodd" clip-rule="evenodd" d="M1768.99 878C1797.14 878 1819.97 900.828 1819.97 928.986C1819.97 936.868 1818.18 944.332 1814.99 950.994L1822.47 958.48C1824.09 960.093 1824.09 962.708 1822.47 964.322C1820.86 965.935 1818.25 965.935 1816.63 964.322L1810.67 958.355C1809.78 959.612 1808.83 960.827 1807.84 961.997L1815.16 969.316C1816.77 970.929 1816.77 973.545 1815.16 975.157C1813.54 976.771 1810.93 976.771 1809.32 975.157L1802 967.839C1800.83 968.834 1799.61 969.779 1798.35 970.667L1804.32 976.633C1805.93 978.246 1805.93 980.862 1804.32 982.474C1802.71 984.088 1800.09 984.088 1798.48 982.474L1790.99 974.989C1784.33 978.183 1776.87 979.972 1768.99 979.972C1740.83 979.972 1718 957.145 1718 928.986C1718 900.828 1740.83 878 1768.99 878Z" fill="white"/>
<path fill-rule="evenodd" clip-rule="evenodd" d="M1768.98 893.327C1788.68 893.327 1804.64 909.292 1804.64 928.985C1804.64 948.678 1788.68 964.643 1768.98 964.643C1749.29 964.643 1733.33 948.678 1733.33 928.985C1733.33 909.292 1749.29 893.327 1768.98 893.327Z" fill="#090909"/>
<path fill-rule="evenodd" clip-rule="evenodd" d="M1768.99 905.48C1781.97 905.48 1792.5 916.005 1792.5 928.988C1792.5 941.972 1781.97 952.497 1768.99 952.497C1756 952.497 1745.48 941.972 1745.48 928.988C1745.48 916.005 1756 905.48 1768.99 905.48Z" fill="#747985"/>
<path fill-rule="evenodd" clip-rule="evenodd" d="M1755.64 907.859C1759.93 907.859 1763.42 911.342 1763.42 915.639C1763.42 919.935 1759.93 923.418 1755.64 923.418C1751.34 923.418 1747.86 919.935 1747.86 915.639C1747.86 911.342 1751.34 907.859 1755.64 907.859Z" fill="white"/>
<path fill-rule="evenodd" clip-rule="evenodd" d="M1768.99 917.976C1775.07 917.976 1780 922.906 1780 928.989C1780 935.071 1775.07 940.002 1768.99 940.002C1762.9 940.002 1757.97 935.071 1757.97 928.989C1757.97 922.906 1762.9 917.976 1768.99 917.976Z" fill="black"/>
</g>
<defs>
<clipPath id="clip0_1067_67114">
<rect width="106" height="106" fill="white" transform="translate(1718 878)"/>
</clipPath>
</defs>
</svg>
