<svg width="1920" height="1080" viewBox="0 0 1920 1080" fill="none" xmlns="http://www.w3.org/2000/svg">
<rect width="1920" height="1080" fill="#090909"/>
<mask id="path-1-inside-1_1067_67140" fill="white">
<path d="M56 56H1864V1024H56V56Z"/>
</mask>
<path d="M56 56V57H1864V56V55H56V56Z" fill="#222222" mask="url(#path-1-inside-1_1067_67140)"/>
<mask id="path-3-inside-2_1067_67140" fill="white">
<path d="M56 56H817V1024H56V56Z"/>
</mask>
<path d="M56 56V57H817V56V55H56V56Z" fill="#222222" mask="url(#path-3-inside-2_1067_67140)"/>
<path d="M62.78 96.24C59.08 96.24 56.8 93.2 56.8 89C56.8 84.6 59.26 81.8 62.82 81.8C65.72 81.8 67.92 83.6 68.22 86.5H66.3C66.08 84.56 64.74 83.3 62.8 83.3C60.32 83.3 58.62 85.56 58.62 89.02C58.62 92.54 60.38 94.74 62.78 94.74C64.8 94.74 66.2 93.4 66.38 91.36H68.28C68.02 94.3 65.92 96.24 62.78 96.24ZM75.4878 96.24C72.1278 96.24 70.0878 94.06 70.0878 90.52C70.0878 86.96 72.1278 84.8 75.4878 84.8C78.8678 84.8 80.9078 86.96 80.9078 90.52C80.9078 94.06 78.8678 96.24 75.4878 96.24ZM75.4878 94.84C77.8278 94.84 79.2478 93.18 79.2478 90.52C79.2478 87.84 77.8278 86.2 75.4878 86.2C73.1478 86.2 71.7478 87.84 71.7478 90.52C71.7478 93.18 73.1478 94.84 75.4878 94.84ZM83.4956 96V94.66H87.6956V82.68H84.9556V81.34H89.3356V94.66H93.5756V96H83.4956ZM101.503 96.24C98.1434 96.24 96.1034 94.06 96.1034 90.52C96.1034 86.96 98.1434 84.8 101.503 84.8C104.883 84.8 106.923 86.96 106.923 90.52C106.923 94.06 104.883 96.24 101.503 96.24ZM101.503 94.84C103.843 94.84 105.263 93.18 105.263 90.52C105.263 87.84 103.843 86.2 101.503 86.2C99.1634 86.2 97.7634 87.84 97.7634 90.52C97.7634 93.18 99.1634 94.84 101.503 94.84ZM110.291 96V85.04H111.811L111.911 87.18C112.791 85.62 114.111 84.8 115.771 84.8C117.931 84.8 119.391 86.1 119.391 88.24V89.5H117.731V88.24C117.731 87.02 116.951 86.22 115.571 86.22C114.011 86.22 112.731 87.26 111.951 89.3V96H110.291ZM137.247 85.04V92C137.247 93.68 138.307 94.82 139.887 94.82C141.507 94.82 142.867 93.74 143.587 91.54V85.04H145.227V96H143.687L143.607 93.94C142.707 95.44 141.267 96.24 139.647 96.24C137.187 96.24 135.587 94.56 135.587 92.04V85.04H137.247ZM153.855 96.24C150.975 96.24 149.095 94.66 149.055 92.08H150.635C150.655 93.86 151.915 94.92 153.835 94.92C155.495 94.92 156.615 94.24 156.615 93.14C156.615 90.16 149.235 92.08 149.235 87.98C149.235 86.16 150.835 84.8 153.555 84.8C156.275 84.8 157.995 86.16 158.115 88.3H156.535C156.455 86.92 155.335 86.12 153.555 86.12C151.815 86.12 150.915 86.92 150.915 87.92C150.915 90.66 158.275 88.56 158.275 93.04C158.275 95.02 156.535 96.24 153.855 96.24ZM165.563 96.24C163.403 96.24 161.943 95.06 161.943 93.08C161.943 90.82 163.763 89.5 166.903 89.5H169.603V88.9C169.603 87.16 168.423 86.1 166.483 86.1C164.623 86.1 163.323 87.04 163.223 88.54H161.603C161.783 86.2 163.763 84.8 166.523 84.8C169.423 84.8 171.243 86.36 171.243 88.96V96H169.683L169.623 94.06C168.823 95.46 167.463 96.24 165.563 96.24ZM163.583 93C163.583 94.18 164.463 94.86 165.823 94.86C167.463 94.86 168.763 93.96 169.603 92.42V90.78H166.823C164.783 90.78 163.583 91.6 163.583 93ZM182.83 86.76L182.89 85.04H184.43V94.9C184.43 98.08 182.69 99.8 179.31 99.8C176.49 99.8 174.71 98.62 174.51 96.24H176.23C176.35 97.6 177.37 98.4 179.39 98.4C181.59 98.4 182.77 97.22 182.77 95.12V93.38C182.03 94.6 180.67 95.34 179.05 95.34C176.17 95.34 174.19 93.16 174.19 90.08C174.19 86.84 176.23 84.8 179.11 84.8C180.73 84.8 182.11 85.6 182.83 86.76ZM179.37 94.02C180.93 94.02 182.27 93.08 182.77 91.54V88.6C182.27 87.06 180.93 86.12 179.37 86.12C177.25 86.12 175.85 87.72 175.85 90.06C175.85 92.4 177.25 94.02 179.37 94.02ZM192.698 96.24C189.318 96.24 187.278 94.08 187.278 90.5C187.278 86.96 189.318 84.8 192.738 84.8C196.138 84.8 197.938 86.8 197.758 90.06H188.958C188.938 90.22 188.938 90.38 188.938 90.54C188.938 93.14 190.318 94.84 192.698 94.84C194.578 94.84 195.938 93.88 196.218 92.34H197.878C197.478 94.76 195.518 96.24 192.698 96.24ZM192.738 86.18C190.898 86.18 189.658 87.12 189.178 88.76L196.058 88.8C195.958 87.18 194.638 86.18 192.738 86.18Z" fill="#939393"/>
<path d="M56 1008V1024H72" stroke="#939393"/>
<rect x="816.5" y="56.5" width="1047" height="967" stroke="#222222"/>
<g clip-path="url(#clip0_1067_67140)">
<path fill-rule="evenodd" clip-rule="evenodd" d="M1288.96 151C1324.29 151 1352.93 179.638 1352.93 214.964C1352.93 224.852 1350.68 234.216 1346.68 242.574L1356.07 251.965C1358.09 253.989 1358.09 257.27 1356.07 259.294C1354.04 261.317 1350.76 261.317 1348.74 259.294L1341.25 251.809C1340.14 253.386 1338.96 254.91 1337.71 256.378L1346.89 265.559C1348.91 267.583 1348.91 270.864 1346.89 272.887C1344.86 274.912 1341.58 274.912 1339.56 272.887L1330.38 263.707C1328.91 264.955 1327.39 266.14 1325.81 267.254L1333.29 274.739C1335.32 276.762 1335.32 280.044 1333.29 282.067C1331.27 284.092 1327.99 284.092 1325.97 282.067L1316.57 272.676C1308.22 276.683 1298.85 278.927 1288.96 278.927C1253.64 278.927 1225 250.29 1225 214.964C1225 179.638 1253.64 151 1288.96 151Z" fill="white"/>
<path fill-rule="evenodd" clip-rule="evenodd" d="M1288.96 170.229C1313.67 170.229 1333.7 190.257 1333.7 214.963C1333.7 239.669 1313.67 259.697 1288.96 259.697C1264.26 259.697 1244.23 239.669 1244.23 214.963C1244.23 190.257 1264.26 170.229 1288.96 170.229Z" fill="#090909"/>
<path fill-rule="evenodd" clip-rule="evenodd" d="M1288.97 185.475C1305.25 185.475 1318.46 198.679 1318.46 214.967C1318.46 231.255 1305.25 244.459 1288.97 244.459C1272.68 244.459 1259.47 231.255 1259.47 214.967C1259.47 198.679 1272.68 185.475 1288.97 185.475Z" fill="#52B69A"/>
<path fill-rule="evenodd" clip-rule="evenodd" d="M1272.22 188.459C1277.61 188.459 1281.98 192.828 1281.98 198.219C1281.98 203.609 1277.61 207.979 1272.22 207.979C1266.83 207.979 1262.46 203.609 1262.46 198.219C1262.46 192.828 1266.83 188.459 1272.22 188.459Z" fill="white"/>
<path fill-rule="evenodd" clip-rule="evenodd" d="M1288.97 201.151C1296.6 201.151 1302.78 207.337 1302.78 214.968C1302.78 222.599 1296.6 228.784 1288.97 228.784C1281.33 228.784 1275.15 222.599 1275.15 214.968C1275.15 207.337 1281.33 201.151 1288.97 201.151Z" fill="black"/>
<path d="M1776.84 238.074H1757.17V166.733H1776.84V238.074ZM1732.68 204.326C1732.68 201.911 1731.88 200.018 1730.26 198.648C1728.65 197.279 1726.64 196.594 1724.24 196.594C1721.83 196.594 1719.85 197.239 1718.3 198.547C1716.77 199.856 1715.77 201.789 1715.3 204.326H1732.68ZM1752.76 209.239C1752.76 210.79 1752.66 212.32 1752.45 213.871H1715.2C1715.4 216.952 1716.25 219.247 1717.76 220.737C1719.27 222.247 1721.18 223.012 1723.54 223.012C1726.82 223.012 1729.16 221.542 1730.57 218.583H1751.55C1750.68 222.469 1748.99 225.932 1746.47 228.972C1743.98 232.033 1740.82 234.43 1736.99 236.161C1733.16 237.912 1728.96 238.778 1724.35 238.778C1718.79 238.778 1713.83 237.611 1709.53 235.255C1705.2 232.919 1701.83 229.577 1699.38 225.207C1696.94 220.859 1695.71 215.743 1695.71 209.844C1695.71 203.964 1696.92 198.849 1699.34 194.541C1701.73 190.212 1705.12 186.889 1709.42 184.553C1713.73 182.198 1718.71 181.029 1724.35 181.029C1729.9 181.029 1734.82 182.177 1739.1 184.453C1743.39 186.728 1746.74 189.99 1749.13 194.238C1751.55 198.487 1752.76 203.481 1752.76 209.239ZM1670.52 181.231C1677.03 181.231 1682.18 183.385 1685.99 187.715C1689.81 192.024 1691.73 197.863 1691.73 205.232V238.074H1672.03V207.85C1672.03 204.629 1671.19 202.112 1669.52 200.259C1667.84 198.427 1665.61 197.5 1662.79 197.5C1659.85 197.5 1657.53 198.427 1655.86 200.259C1654.19 202.112 1653.35 204.629 1653.35 207.85V238.074H1633.67V181.734H1653.35V189.768C1655.1 187.232 1657.43 185.157 1660.37 183.587C1663.33 182.016 1666.72 181.231 1670.52 181.231ZM1626.06 238.074H1606.37V181.734H1626.06V238.074ZM1616.32 176.519C1612.83 176.519 1610.03 175.553 1607.92 173.64C1605.83 171.747 1604.76 169.351 1604.76 166.471C1604.76 163.531 1605.83 161.075 1607.92 159.142C1610.03 157.189 1612.83 156.222 1616.32 156.222C1619.72 156.222 1622.5 157.189 1624.59 159.142C1626.71 161.075 1627.75 163.531 1627.75 166.471C1627.75 169.351 1626.71 171.747 1624.59 173.64C1622.5 175.553 1619.72 176.519 1616.32 176.519ZM1600.97 221.301V238.074H1592.44C1578.04 238.074 1570.83 230.946 1570.83 216.69V198.104H1563.9V181.734H1570.83V166.733H1590.62V181.734H1600.87V198.104H1590.62V216.972C1590.62 218.522 1590.97 219.63 1591.67 220.295C1592.38 220.959 1593.56 221.301 1595.24 221.301H1600.97ZM1539.32 181.231C1545.82 181.231 1550.98 183.385 1554.78 187.715C1558.61 192.024 1560.52 197.863 1560.52 205.232V238.074H1540.83V207.85C1540.83 204.629 1539.98 202.112 1538.31 200.259C1536.64 198.427 1534.4 197.5 1531.59 197.5C1528.65 197.5 1526.33 198.427 1524.66 200.259C1522.99 202.112 1522.14 204.629 1522.14 207.85V238.074H1502.47V181.734H1522.14V189.768C1523.89 187.232 1526.23 185.157 1529.19 183.587C1532.13 182.016 1535.51 181.231 1539.32 181.231ZM1477.99 204.326C1477.99 201.911 1477.18 200.018 1475.57 198.648C1473.96 197.279 1471.96 196.594 1469.55 196.594C1467.13 196.594 1465.16 197.239 1463.63 198.547C1462.08 199.856 1461.07 201.789 1460.61 204.326H1477.99ZM1498.06 209.239C1498.06 210.79 1497.96 212.32 1497.76 213.871H1460.51C1460.71 216.952 1461.55 219.247 1463.07 220.737C1464.58 222.247 1466.51 223.012 1468.84 223.012C1472.13 223.012 1474.46 221.542 1475.87 218.583H1496.85C1495.99 222.469 1494.3 225.932 1491.8 228.972C1489.28 232.033 1486.12 234.43 1482.29 236.161C1478.49 237.912 1474.26 238.778 1469.65 238.778C1464.09 238.778 1459.16 237.611 1454.83 235.255C1450.52 232.919 1447.14 229.577 1444.68 225.207C1442.24 220.859 1441.02 215.743 1441.02 209.844C1441.02 203.964 1442.22 198.849 1444.64 194.541C1447.06 190.212 1450.42 186.889 1454.73 184.553C1459.06 182.198 1464.03 181.029 1469.65 181.029C1475.21 181.029 1480.12 182.177 1484.41 184.453C1488.7 186.728 1492.04 189.99 1494.46 194.238C1496.85 198.487 1498.06 203.481 1498.06 209.239ZM1412.32 238.778C1404.09 238.778 1397.32 236.806 1392.03 232.9C1386.75 228.972 1383.89 223.375 1383.49 216.086H1404.49C1404.69 218.562 1405.42 220.355 1406.71 221.502C1407.97 222.63 1409.6 223.214 1411.62 223.214C1413.43 223.214 1414.92 222.751 1416.09 221.844C1417.26 220.939 1417.84 219.69 1417.84 218.079C1417.84 216.005 1416.87 214.394 1414.94 213.266C1412.99 212.119 1409.85 210.851 1405.5 209.441C1400.87 207.911 1397.14 206.421 1394.3 204.971C1391.44 203.541 1388.97 201.426 1386.87 198.648C1384.76 195.87 1383.69 192.245 1383.69 187.755C1383.69 183.205 1384.84 179.298 1387.11 176.056C1389.39 172.815 1392.53 170.358 1396.56 168.686C1400.56 166.995 1405.11 166.169 1410.21 166.169C1418.44 166.169 1425.03 168.082 1429.94 171.949C1434.88 175.794 1437.49 181.191 1437.83 188.157H1416.43C1416.37 186.023 1415.73 184.412 1414.48 183.345C1413.25 182.258 1411.66 181.734 1409.7 181.734C1408.24 181.734 1407.03 182.177 1406.1 183.043C1405.15 183.909 1404.69 185.137 1404.69 186.748C1404.69 188.097 1405.21 189.246 1406.24 190.212C1407.29 191.198 1408.58 192.024 1410.11 192.728C1411.66 193.433 1413.93 194.319 1416.93 195.386C1421.42 196.937 1425.13 198.447 1428.03 199.957C1430.95 201.468 1433.47 203.581 1435.56 206.28C1437.67 208.998 1438.74 212.422 1438.74 216.589C1438.74 220.797 1437.67 224.583 1435.56 227.926C1433.47 231.268 1430.4 233.926 1426.44 235.859C1422.45 237.812 1417.74 238.778 1412.32 238.778Z" fill="white"/>
<path d="M1385.75 270.898C1385.75 268.479 1386.29 266.319 1387.37 264.418C1388.47 262.492 1389.96 261.002 1391.84 259.945C1393.74 258.865 1395.87 258.325 1398.22 258.325C1400.96 258.325 1403.37 259.029 1405.44 260.438C1407.5 261.847 1408.95 263.795 1409.77 266.284H1404.1C1403.53 265.11 1402.74 264.23 1401.7 263.643C1400.69 263.056 1399.52 262.762 1398.18 262.762C1396.75 262.762 1395.47 263.103 1394.34 263.784C1393.24 264.441 1392.37 265.38 1391.74 266.601C1391.13 267.822 1390.82 269.254 1390.82 270.898C1390.82 272.518 1391.13 273.95 1391.74 275.194C1392.37 276.415 1393.24 277.366 1394.34 278.047C1395.47 278.704 1396.75 279.033 1398.18 279.033C1399.52 279.033 1400.69 278.74 1401.7 278.153C1402.74 277.542 1403.53 276.65 1404.1 275.476H1409.77C1408.95 277.988 1407.5 279.949 1405.44 281.358C1403.39 282.743 1400.99 283.435 1398.22 283.435C1395.87 283.435 1393.74 282.907 1391.84 281.851C1389.96 280.771 1388.47 279.28 1387.37 277.378C1386.29 275.476 1385.75 273.316 1385.75 270.898ZM1446.17 283.471C1443.87 283.471 1441.76 282.931 1439.83 281.851C1437.9 280.771 1436.38 279.28 1435.25 277.378C1434.12 275.453 1433.56 273.281 1433.56 270.863C1433.56 268.468 1434.12 266.319 1435.25 264.418C1436.38 262.492 1437.9 260.99 1439.83 259.91C1441.76 258.83 1443.87 258.29 1446.17 258.29C1448.49 258.29 1450.61 258.83 1452.51 259.91C1454.43 260.99 1455.95 262.492 1457.05 264.418C1458.18 266.319 1458.74 268.468 1458.74 270.863C1458.74 273.281 1458.18 275.453 1457.05 277.378C1455.95 279.28 1454.43 280.771 1452.51 281.851C1450.58 282.931 1448.47 283.471 1446.17 283.471ZM1446.17 279.068C1447.65 279.068 1448.95 278.74 1450.08 278.082C1451.21 277.401 1452.09 276.439 1452.72 275.194C1453.35 273.95 1453.67 272.506 1453.67 270.863C1453.67 269.219 1453.35 267.787 1452.72 266.566C1452.09 265.322 1451.21 264.371 1450.08 263.713C1448.95 263.056 1447.65 262.727 1446.17 262.727C1444.69 262.727 1443.38 263.056 1442.22 263.713C1441.1 264.371 1440.22 265.322 1439.58 266.566C1438.95 267.787 1438.63 269.219 1438.63 270.863C1438.63 272.506 1438.95 273.95 1439.58 275.194C1440.22 276.439 1441.1 277.401 1442.22 278.082C1443.38 278.74 1444.69 279.068 1446.17 279.068ZM1491.78 258.642C1494.36 258.642 1496.63 259.147 1498.58 260.156C1500.55 261.166 1502.07 262.61 1503.12 264.488C1504.2 266.343 1504.74 268.503 1504.74 270.968C1504.74 273.434 1504.2 275.594 1503.12 277.448C1502.07 279.28 1500.55 280.7 1498.58 281.71C1496.63 282.719 1494.36 283.224 1491.78 283.224H1483.19V258.642H1491.78ZM1491.61 279.033C1494.19 279.033 1496.18 278.329 1497.59 276.92C1499 275.511 1499.71 273.527 1499.71 270.968C1499.71 268.409 1499 266.413 1497.59 264.981C1496.18 263.525 1494.19 262.798 1491.61 262.798H1488.12V279.033H1491.61ZM1534.14 262.622V268.785H1542.42V272.694H1534.14V279.209H1543.47V283.224H1529.21V258.607H1543.47V262.622H1534.14ZM1577.22 283.471C1575.51 283.471 1573.96 283.177 1572.57 282.59C1571.21 282.003 1570.13 281.158 1569.33 280.054C1568.53 278.951 1568.12 277.648 1568.1 276.145H1573.38C1573.45 277.155 1573.81 277.953 1574.44 278.54C1575.1 279.127 1575.99 279.421 1577.12 279.421C1578.27 279.421 1579.17 279.151 1579.83 278.611C1580.49 278.047 1580.81 277.319 1580.81 276.427C1580.81 275.699 1580.59 275.1 1580.14 274.631C1579.7 274.161 1579.14 273.797 1578.45 273.539C1577.8 273.257 1576.88 272.952 1575.71 272.623C1574.11 272.154 1572.81 271.696 1571.8 271.25C1570.81 270.78 1569.96 270.088 1569.23 269.172C1568.52 268.233 1568.17 266.989 1568.17 265.439C1568.17 263.983 1568.53 262.715 1569.26 261.635C1569.99 260.555 1571.01 259.734 1572.33 259.17C1573.64 258.583 1575.14 258.29 1576.83 258.29C1579.37 258.29 1581.42 258.912 1583 260.156C1584.59 261.377 1585.47 263.091 1585.64 265.298H1580.22C1580.17 264.453 1579.8 263.76 1579.12 263.22C1578.47 262.657 1577.59 262.375 1576.48 262.375C1575.52 262.375 1574.74 262.622 1574.16 263.115C1573.59 263.608 1573.31 264.324 1573.31 265.263C1573.31 265.92 1573.52 266.472 1573.95 266.918C1574.39 267.341 1574.93 267.693 1575.57 267.975C1576.22 268.233 1577.14 268.538 1578.31 268.89C1579.91 269.36 1581.21 269.83 1582.22 270.299C1583.23 270.769 1584.1 271.473 1584.83 272.412C1585.56 273.351 1585.92 274.584 1585.92 276.11C1585.92 277.425 1585.58 278.646 1584.9 279.773C1584.22 280.9 1583.22 281.804 1581.91 282.485C1580.59 283.142 1579.03 283.471 1577.22 283.471Z" fill="white"/>
<mask id="path-15-inside-3_1067_67140" fill="white">
<path d="M816 56H1139V379H816V56Z"/>
</mask>
<path d="M1139 56H1138V379H1139H1140V56H1139Z" fill="#222222" mask="url(#path-15-inside-3_1067_67140)"/>
<g clip-path="url(#clip1_1067_67140)">
<path fill-rule="evenodd" clip-rule="evenodd" d="M974.964 151C1010.29 151 1038.93 179.638 1038.93 214.964C1038.93 224.852 1036.68 234.216 1032.68 242.574L1042.07 251.965C1044.09 253.989 1044.09 257.27 1042.07 259.294C1040.04 261.317 1036.76 261.317 1034.74 259.294L1027.25 251.809C1026.14 253.386 1024.95 254.91 1023.71 256.378L1032.89 265.559C1034.91 267.583 1034.91 270.864 1032.89 272.887C1030.86 274.912 1027.58 274.912 1025.56 272.887L1016.38 263.707C1014.91 264.955 1013.39 266.14 1011.81 267.254L1019.29 274.739C1021.32 276.762 1021.32 280.044 1019.29 282.067C1017.27 284.092 1013.99 284.092 1011.96 282.067L1002.57 272.676C994.216 276.683 984.852 278.927 974.964 278.927C939.638 278.927 911 250.29 911 214.964C911 179.638 939.638 151 974.964 151Z" fill="white"/>
<path fill-rule="evenodd" clip-rule="evenodd" d="M974.962 170.229C999.668 170.229 1019.7 190.257 1019.7 214.963C1019.7 239.669 999.668 259.697 974.962 259.697C950.256 259.697 930.227 239.669 930.227 214.963C930.227 190.257 950.256 170.229 974.962 170.229Z" fill="#090909"/>
<path fill-rule="evenodd" clip-rule="evenodd" d="M974.966 185.475C991.254 185.475 1004.46 198.679 1004.46 214.967C1004.46 231.255 991.254 244.459 974.966 244.459C958.677 244.459 945.474 231.255 945.474 214.967C945.474 198.679 958.677 185.475 974.966 185.475Z" fill="#52B69A"/>
<path fill-rule="evenodd" clip-rule="evenodd" d="M958.216 188.459C963.607 188.459 967.977 192.828 967.977 198.219C967.977 203.609 963.607 207.979 958.216 207.979C952.826 207.979 948.456 203.609 948.456 198.219C948.456 192.828 952.826 188.459 958.216 188.459Z" fill="white"/>
<path fill-rule="evenodd" clip-rule="evenodd" d="M974.965 201.151C982.596 201.151 988.782 207.337 988.782 214.968C988.782 222.599 982.596 228.784 974.965 228.784C967.334 228.784 961.148 222.599 961.148 214.968C961.148 207.337 967.334 201.151 974.965 201.151Z" fill="black"/>
</g>
</g>
<g clip-path="url(#clip2_1067_67140)">
<mask id="path-22-inside-4_1067_67140" fill="white">
<path d="M816 378.667H1864V701.333H816V378.667Z"/>
</mask>
<path fill-rule="evenodd" clip-rule="evenodd" d="M1288.96 474C1324.29 474 1352.93 502.638 1352.93 537.964C1352.93 547.852 1350.68 557.217 1346.68 565.575L1356.07 574.965C1358.09 576.989 1358.09 580.27 1356.07 582.295C1354.04 584.318 1350.76 584.318 1348.74 582.295L1341.25 574.809C1340.14 576.386 1338.96 577.911 1337.71 579.378L1346.89 588.56C1348.91 590.584 1348.91 593.865 1346.89 595.888C1344.86 597.912 1341.58 597.912 1339.56 595.888L1330.38 586.707C1328.91 587.955 1327.39 589.14 1325.81 590.255L1333.29 597.74C1335.32 599.763 1335.32 603.045 1333.29 605.068C1331.27 607.092 1327.99 607.092 1325.97 605.068L1316.57 595.677C1308.22 599.684 1298.85 601.928 1288.96 601.928C1253.64 601.928 1225 573.29 1225 537.964C1225 502.638 1253.64 474 1288.96 474Z" fill="white"/>
<path fill-rule="evenodd" clip-rule="evenodd" d="M1288.96 493.229C1313.67 493.229 1333.7 513.257 1333.7 537.963C1333.7 562.669 1313.67 582.697 1288.96 582.697C1264.26 582.697 1244.23 562.669 1244.23 537.963C1244.23 513.257 1264.26 493.229 1288.96 493.229Z" fill="#090909"/>
<path fill-rule="evenodd" clip-rule="evenodd" d="M1288.97 508.476C1305.25 508.476 1318.46 521.679 1318.46 537.968C1318.46 554.256 1305.25 567.459 1288.97 567.459C1272.68 567.459 1259.47 554.256 1259.47 537.968C1259.47 521.679 1272.68 508.476 1288.97 508.476Z" fill="#747985"/>
<path fill-rule="evenodd" clip-rule="evenodd" d="M1272.22 511.46C1277.61 511.46 1281.98 515.829 1281.98 521.22C1281.98 526.61 1277.61 530.979 1272.22 530.979C1266.83 530.979 1262.46 526.61 1262.46 521.22C1262.46 515.829 1266.83 511.46 1272.22 511.46Z" fill="white"/>
<path fill-rule="evenodd" clip-rule="evenodd" d="M1288.97 524.152C1296.6 524.152 1302.78 530.337 1302.78 537.969C1302.78 545.599 1296.6 551.785 1288.97 551.785C1281.33 551.785 1275.15 545.599 1275.15 537.969C1275.15 530.337 1281.33 524.152 1288.97 524.152Z" fill="black"/>
<path d="M1776.84 561.074H1757.17V489.733H1776.84V561.074ZM1732.68 527.326C1732.68 524.911 1731.88 523.018 1730.27 521.648C1728.65 520.279 1726.64 519.594 1724.24 519.594C1721.83 519.594 1719.86 520.239 1718.3 521.547C1716.77 522.856 1715.77 524.789 1715.3 527.326H1732.68ZM1752.76 532.239C1752.76 533.79 1752.66 535.32 1752.45 536.871H1715.2C1715.4 539.952 1716.25 542.247 1717.76 543.737C1719.27 545.247 1721.18 546.012 1723.54 546.012C1726.82 546.012 1729.16 544.542 1730.57 541.583H1751.55C1750.68 545.469 1748.99 548.932 1746.47 551.972C1743.98 555.033 1740.82 557.43 1736.99 559.161C1733.16 560.912 1728.96 561.778 1724.35 561.778C1718.79 561.778 1713.83 560.611 1709.53 558.255C1705.2 555.919 1701.83 552.577 1699.38 548.207C1696.94 543.859 1695.71 538.743 1695.71 532.844C1695.71 526.964 1696.92 521.849 1699.34 517.541C1701.73 513.212 1705.12 509.889 1709.42 507.553C1713.73 505.198 1718.71 504.029 1724.35 504.029C1729.9 504.029 1734.82 505.177 1739.1 507.453C1743.39 509.728 1746.74 512.99 1749.13 517.238C1751.55 521.487 1752.76 526.481 1752.76 532.239ZM1670.52 504.231C1677.03 504.231 1682.18 506.385 1685.99 510.715C1689.81 515.024 1691.73 520.863 1691.73 528.232V561.074H1672.03V530.85C1672.03 527.629 1671.19 525.112 1669.52 523.259C1667.84 521.427 1665.61 520.5 1662.79 520.5C1659.85 520.5 1657.53 521.427 1655.86 523.259C1654.19 525.112 1653.35 527.629 1653.35 530.85V561.074H1633.67V504.734H1653.35V512.768C1655.1 510.232 1657.43 508.157 1660.37 506.587C1663.33 505.016 1666.72 504.231 1670.52 504.231ZM1626.06 561.074H1606.37V504.734H1626.06V561.074ZM1616.32 499.519C1612.83 499.519 1610.03 498.553 1607.92 496.64C1605.83 494.747 1604.76 492.351 1604.76 489.471C1604.76 486.531 1605.83 484.075 1607.92 482.142C1610.03 480.189 1612.83 479.222 1616.32 479.222C1619.72 479.222 1622.5 480.189 1624.59 482.142C1626.71 484.075 1627.75 486.531 1627.75 489.471C1627.75 492.351 1626.71 494.747 1624.59 496.64C1622.5 498.553 1619.72 499.519 1616.32 499.519ZM1600.97 544.301V561.074H1592.44C1578.04 561.074 1570.83 553.946 1570.83 539.69V521.104H1563.9V504.734H1570.83V489.733H1590.62V504.734H1600.87V521.104H1590.62V539.972C1590.62 541.522 1590.97 542.63 1591.67 543.295C1592.38 543.959 1593.56 544.301 1595.24 544.301H1600.97ZM1539.32 504.231C1545.82 504.231 1550.98 506.385 1554.78 510.715C1558.61 515.024 1560.52 520.863 1560.52 528.232V561.074H1540.83V530.85C1540.83 527.629 1539.98 525.112 1538.31 523.259C1536.64 521.427 1534.4 520.5 1531.59 520.5C1528.65 520.5 1526.33 521.427 1524.66 523.259C1522.99 525.112 1522.14 527.629 1522.14 530.85V561.074H1502.47V504.734H1522.14V512.768C1523.89 510.232 1526.23 508.157 1529.19 506.587C1532.13 505.016 1535.51 504.231 1539.32 504.231ZM1477.99 527.326C1477.99 524.911 1477.18 523.018 1475.57 521.648C1473.96 520.279 1471.96 519.594 1469.55 519.594C1467.13 519.594 1465.16 520.239 1463.63 521.547C1462.08 522.856 1461.07 524.789 1460.61 527.326H1477.99ZM1498.06 532.239C1498.06 533.79 1497.96 535.32 1497.76 536.871H1460.51C1460.71 539.952 1461.55 542.247 1463.07 543.737C1464.58 545.247 1466.51 546.012 1468.84 546.012C1472.13 546.012 1474.46 544.542 1475.87 541.583H1496.85C1495.99 545.469 1494.3 548.932 1491.8 551.972C1489.28 555.033 1486.12 557.43 1482.29 559.161C1478.49 560.912 1474.26 561.778 1469.65 561.778C1464.09 561.778 1459.16 560.611 1454.83 558.255C1450.52 555.919 1447.14 552.577 1444.68 548.207C1442.24 543.859 1441.02 538.743 1441.02 532.844C1441.02 526.964 1442.22 521.849 1444.64 517.541C1447.06 513.212 1450.42 509.889 1454.73 507.553C1459.06 505.198 1464.03 504.029 1469.65 504.029C1475.21 504.029 1480.12 505.177 1484.41 507.453C1488.7 509.728 1492.04 512.99 1494.46 517.238C1496.85 521.487 1498.06 526.481 1498.06 532.239ZM1412.32 561.778C1404.09 561.778 1397.32 559.806 1392.03 555.9C1386.75 551.972 1383.89 546.375 1383.49 539.086H1404.49C1404.69 541.562 1405.42 543.355 1406.71 544.502C1407.97 545.63 1409.6 546.214 1411.62 546.214C1413.43 546.214 1414.92 545.751 1416.09 544.844C1417.26 543.939 1417.84 542.69 1417.84 541.079C1417.84 539.005 1416.87 537.394 1414.94 536.266C1412.99 535.119 1409.85 533.851 1405.5 532.441C1400.87 530.911 1397.14 529.421 1394.3 527.971C1391.44 526.541 1388.97 524.426 1386.87 521.648C1384.76 518.87 1383.69 515.245 1383.69 510.755C1383.69 506.205 1384.84 502.298 1387.11 499.056C1389.39 495.815 1392.53 493.358 1396.56 491.686C1400.56 489.995 1405.11 489.169 1410.21 489.169C1418.44 489.169 1425.03 491.082 1429.94 494.949C1434.88 498.794 1437.49 504.191 1437.83 511.157H1416.43C1416.37 509.023 1415.73 507.412 1414.48 506.345C1413.25 505.258 1411.66 504.734 1409.71 504.734C1408.24 504.734 1407.03 505.177 1406.1 506.043C1405.15 506.909 1404.69 508.137 1404.69 509.748C1404.69 511.097 1405.21 512.246 1406.24 513.212C1407.29 514.198 1408.58 515.024 1410.11 515.728C1411.66 516.433 1413.93 517.319 1416.93 518.386C1421.42 519.937 1425.13 521.447 1428.03 522.957C1430.95 524.468 1433.47 526.581 1435.56 529.28C1437.67 531.998 1438.74 535.422 1438.74 539.589C1438.74 543.797 1437.67 547.583 1435.56 550.926C1433.47 554.268 1430.41 556.926 1426.44 558.859C1422.45 560.812 1417.74 561.778 1412.32 561.778Z" fill="white"/>
<path d="M1385.75 594.708C1385.75 592.29 1386.29 590.13 1387.37 588.228C1388.47 586.302 1389.96 584.812 1391.84 583.755C1393.74 582.675 1395.87 582.135 1398.22 582.135C1400.96 582.135 1403.37 582.839 1405.44 584.248C1407.5 585.657 1408.95 587.606 1409.77 590.094H1404.1C1403.53 588.92 1402.74 588.04 1401.7 587.453C1400.69 586.866 1399.52 586.572 1398.18 586.572C1396.75 586.572 1395.47 586.913 1394.34 587.594C1393.24 588.251 1392.37 589.19 1391.74 590.411C1391.13 591.632 1390.82 593.064 1390.82 594.708C1390.82 596.328 1391.13 597.76 1391.74 599.004C1392.37 600.225 1393.24 601.176 1394.34 601.857C1395.47 602.515 1396.75 602.843 1398.18 602.843C1399.52 602.843 1400.69 602.55 1401.7 601.963C1402.74 601.352 1403.53 600.46 1404.1 599.286H1409.77C1408.95 601.798 1407.5 603.759 1405.44 605.168C1403.39 606.553 1400.99 607.245 1398.22 607.245C1395.87 607.245 1393.74 606.717 1391.84 605.661C1389.96 604.581 1388.47 603.09 1387.37 601.188C1386.29 599.286 1385.75 597.126 1385.75 594.708ZM1446.17 607.281C1443.87 607.281 1441.76 606.741 1439.83 605.661C1437.9 604.581 1436.38 603.09 1435.25 601.188C1434.12 599.263 1433.56 597.091 1433.56 594.673C1433.56 592.278 1434.12 590.13 1435.25 588.228C1436.38 586.302 1437.9 584.8 1439.83 583.72C1441.76 582.64 1443.87 582.1 1446.17 582.1C1448.49 582.1 1450.61 582.64 1452.51 583.72C1454.43 584.8 1455.95 586.302 1457.05 588.228C1458.18 590.13 1458.74 592.278 1458.74 594.673C1458.74 597.091 1458.18 599.263 1457.05 601.188C1455.95 603.09 1454.43 604.581 1452.51 605.661C1450.58 606.741 1448.47 607.281 1446.17 607.281ZM1446.17 602.878C1447.65 602.878 1448.95 602.55 1450.08 601.892C1451.21 601.211 1452.09 600.249 1452.72 599.004C1453.35 597.76 1453.67 596.316 1453.67 594.673C1453.67 593.029 1453.35 591.597 1452.72 590.376C1452.09 589.132 1451.21 588.181 1450.08 587.523C1448.95 586.866 1447.65 586.537 1446.17 586.537C1444.69 586.537 1443.38 586.866 1442.22 587.523C1441.1 588.181 1440.22 589.132 1439.58 590.376C1438.95 591.597 1438.63 593.029 1438.63 594.673C1438.63 596.316 1438.95 597.76 1439.58 599.004C1440.22 600.249 1441.1 601.211 1442.22 601.892C1443.38 602.55 1444.69 602.878 1446.17 602.878ZM1491.78 582.452C1494.36 582.452 1496.63 582.957 1498.58 583.966C1500.55 584.976 1502.07 586.42 1503.12 588.298C1504.2 590.153 1504.74 592.313 1504.74 594.778C1504.74 597.244 1504.2 599.404 1503.12 601.258C1502.07 603.09 1500.55 604.51 1498.58 605.52C1496.63 606.529 1494.36 607.034 1491.78 607.034H1483.19V582.452H1491.78ZM1491.61 602.843C1494.19 602.843 1496.18 602.139 1497.59 600.73C1499 599.321 1499.71 597.337 1499.71 594.778C1499.71 592.219 1499 590.223 1497.59 588.791C1496.18 587.336 1494.19 586.608 1491.61 586.608H1488.12V602.843H1491.61ZM1534.14 586.432V592.595H1542.42V596.504H1534.14V603.019H1543.47V607.034H1529.21V582.417H1543.47V586.432H1534.14ZM1577.22 607.281C1575.51 607.281 1573.96 606.987 1572.57 606.4C1571.21 605.813 1570.13 604.968 1569.33 603.865C1568.53 602.761 1568.12 601.458 1568.1 599.955H1573.38C1573.45 600.965 1573.81 601.763 1574.44 602.35C1575.1 602.937 1575.99 603.231 1577.12 603.231C1578.27 603.231 1579.17 602.961 1579.83 602.421C1580.49 601.857 1580.81 601.129 1580.81 600.237C1580.81 599.509 1580.59 598.911 1580.14 598.441C1579.7 597.971 1579.14 597.607 1578.45 597.349C1577.8 597.067 1576.88 596.762 1575.71 596.434C1574.11 595.964 1572.81 595.506 1571.8 595.06C1570.81 594.59 1569.96 593.898 1569.23 592.982C1568.52 592.043 1568.17 590.799 1568.17 589.249C1568.17 587.793 1568.53 586.526 1569.26 585.446C1569.99 584.365 1571.01 583.544 1572.33 582.98C1573.64 582.393 1575.14 582.1 1576.83 582.1C1579.37 582.1 1581.42 582.722 1583 583.966C1584.59 585.187 1585.47 586.901 1585.64 589.108H1580.22C1580.17 588.263 1579.8 587.57 1579.12 587.03C1578.47 586.467 1577.59 586.185 1576.48 586.185C1575.52 586.185 1574.74 586.432 1574.16 586.925C1573.59 587.418 1573.31 588.134 1573.31 589.073C1573.31 589.73 1573.52 590.282 1573.95 590.728C1574.39 591.151 1574.93 591.503 1575.57 591.785C1576.22 592.043 1577.14 592.348 1578.31 592.7C1579.91 593.17 1581.21 593.64 1582.22 594.109C1583.23 594.579 1584.1 595.283 1584.83 596.222C1585.56 597.161 1585.92 598.394 1585.92 599.92C1585.92 601.235 1585.58 602.456 1584.9 603.583C1584.22 604.71 1583.22 605.614 1581.91 606.295C1580.59 606.952 1579.03 607.281 1577.22 607.281Z" fill="white"/>
<mask id="path-31-inside-5_1067_67140" fill="white">
<path d="M816 379H1139V702H816V379Z"/>
</mask>
<path d="M1139 379H1138V702H1139H1140V379H1139Z" fill="#222222" mask="url(#path-31-inside-5_1067_67140)"/>
<g clip-path="url(#clip3_1067_67140)">
<path fill-rule="evenodd" clip-rule="evenodd" d="M974.964 474C1010.29 474 1038.93 502.638 1038.93 537.964C1038.93 547.852 1036.68 557.216 1032.68 565.574L1042.07 574.965C1044.09 576.989 1044.09 580.27 1042.07 582.294C1040.04 584.317 1036.76 584.317 1034.74 582.294L1027.25 574.809C1026.14 576.386 1024.95 577.91 1023.71 579.378L1032.89 588.559C1034.91 590.583 1034.91 593.864 1032.89 595.887C1030.86 597.912 1027.58 597.912 1025.56 595.887L1016.38 586.707C1014.91 587.955 1013.39 589.14 1011.81 590.254L1019.29 597.739C1021.32 599.762 1021.32 603.044 1019.29 605.067C1017.27 607.092 1013.99 607.092 1011.96 605.067L1002.57 595.676C994.216 599.683 984.852 601.927 974.964 601.927C939.638 601.927 911 573.29 911 537.964C911 502.638 939.638 474 974.964 474Z" fill="white"/>
<path fill-rule="evenodd" clip-rule="evenodd" d="M974.962 493.229C999.668 493.229 1019.7 513.257 1019.7 537.963C1019.7 562.669 999.668 582.697 974.962 582.697C950.256 582.697 930.227 562.669 930.227 537.963C930.227 513.257 950.256 493.229 974.962 493.229Z" fill="#090909"/>
<path fill-rule="evenodd" clip-rule="evenodd" d="M974.966 508.475C991.254 508.475 1004.46 521.679 1004.46 537.967C1004.46 554.255 991.254 567.459 974.966 567.459C958.677 567.459 945.474 554.255 945.474 537.967C945.474 521.679 958.677 508.475 974.966 508.475Z" fill="#747985"/>
<path fill-rule="evenodd" clip-rule="evenodd" d="M958.216 511.459C963.607 511.459 967.977 515.828 967.977 521.219C967.977 526.609 963.607 530.979 958.216 530.979C952.826 530.979 948.456 526.609 948.456 521.219C948.456 515.828 952.826 511.459 958.216 511.459Z" fill="white"/>
<path fill-rule="evenodd" clip-rule="evenodd" d="M974.965 524.151C982.596 524.151 988.782 530.337 988.782 537.968C988.782 545.599 982.596 551.784 974.965 551.784C967.334 551.784 961.148 545.599 961.148 537.968C961.148 530.337 967.334 524.151 974.965 524.151Z" fill="black"/>
</g>
</g>
<path d="M816 378.667V379.667H1864V378.667V377.667H816V378.667Z" fill="#222222" mask="url(#path-22-inside-4_1067_67140)"/>
<g clip-path="url(#clip4_1067_67140)">
<rect width="1048" height="322.667" transform="translate(816 701.333)" fill="white"/>
<path fill-rule="evenodd" clip-rule="evenodd" d="M1288.96 796C1324.29 796 1352.93 824.638 1352.93 859.964C1352.93 869.852 1350.68 879.216 1346.68 887.574L1356.07 896.965C1358.09 898.989 1358.09 902.27 1356.07 904.294C1354.04 906.317 1350.76 906.317 1348.74 904.294L1341.25 896.809C1340.14 898.386 1338.95 899.91 1337.71 901.378L1346.89 910.559C1348.91 912.583 1348.91 915.864 1346.89 917.887C1344.86 919.912 1341.58 919.912 1339.56 917.887L1330.38 908.707C1328.91 909.955 1327.39 911.14 1325.81 912.254L1333.29 919.739C1335.32 921.762 1335.32 925.044 1333.29 927.067C1331.27 929.092 1327.99 929.092 1325.96 927.067L1316.57 917.676C1308.22 921.683 1298.85 923.927 1288.96 923.927C1253.64 923.927 1225 895.29 1225 859.964C1225 824.638 1253.64 796 1288.96 796Z" fill="black"/>
<path fill-rule="evenodd" clip-rule="evenodd" d="M1288.96 815.23C1313.67 815.23 1333.7 835.258 1333.7 859.964C1333.7 884.67 1313.67 904.698 1288.96 904.698C1264.26 904.698 1244.23 884.67 1244.23 859.964C1244.23 835.258 1264.26 815.23 1288.96 815.23Z" fill="white"/>
<path fill-rule="evenodd" clip-rule="evenodd" d="M1288.96 830.472C1305.25 830.472 1318.46 843.676 1318.46 859.964C1318.46 876.252 1305.25 889.456 1288.96 889.456C1272.68 889.456 1259.47 876.252 1259.47 859.964C1259.47 843.676 1272.68 830.472 1288.96 830.472Z" fill="#52B69A"/>
<path fill-rule="evenodd" clip-rule="evenodd" d="M1272.22 833.456C1277.61 833.456 1281.98 837.825 1281.98 843.216C1281.98 848.606 1277.61 852.976 1272.22 852.976C1266.83 852.976 1262.46 848.606 1262.46 843.216C1262.46 837.825 1266.83 833.456 1272.22 833.456Z" fill="white"/>
<path fill-rule="evenodd" clip-rule="evenodd" d="M1288.96 846.147C1296.59 846.147 1302.78 852.332 1302.78 859.964C1302.78 867.594 1296.59 873.78 1288.96 873.78C1281.33 873.78 1275.15 867.594 1275.15 859.964C1275.15 852.332 1281.33 846.147 1288.96 846.147Z" fill="black"/>
<path d="M1776.84 883.078H1757.17V811.737H1776.84V883.078ZM1732.68 849.33C1732.68 846.915 1731.88 845.022 1730.26 843.652C1728.65 842.283 1726.64 841.598 1724.24 841.598C1721.83 841.598 1719.85 842.243 1718.3 843.551C1716.77 844.86 1715.77 846.793 1715.3 849.33H1732.68ZM1752.76 854.243C1752.76 855.794 1752.66 857.324 1752.45 858.875H1715.2C1715.4 861.956 1716.25 864.251 1717.76 865.741C1719.27 867.251 1721.18 868.016 1723.54 868.016C1726.82 868.016 1729.16 866.546 1730.57 863.586H1751.55C1750.68 867.473 1748.99 870.936 1746.47 873.976C1743.98 877.037 1740.82 879.434 1736.99 881.165C1733.16 882.916 1728.96 883.782 1724.34 883.782C1718.79 883.782 1713.83 882.615 1709.53 880.259C1705.2 877.923 1701.83 874.58 1699.38 870.211C1696.94 865.862 1695.71 860.747 1695.71 854.848C1695.71 848.968 1696.92 843.853 1699.34 839.545C1701.73 835.215 1705.12 831.893 1709.42 829.557C1713.73 827.201 1718.71 826.033 1724.34 826.033C1729.9 826.033 1734.82 827.181 1739.1 829.457C1743.39 831.732 1746.74 834.994 1749.13 839.242C1751.55 843.491 1752.76 848.485 1752.76 854.243ZM1670.52 826.235C1677.03 826.235 1682.18 828.389 1685.99 832.719C1689.81 837.028 1691.73 842.867 1691.73 850.236V883.078H1672.03V852.854C1672.03 849.633 1671.19 847.116 1669.52 845.263C1667.84 843.431 1665.61 842.504 1662.79 842.504C1659.85 842.504 1657.53 843.431 1655.86 845.263C1654.19 847.116 1653.35 849.633 1653.35 852.854V883.078H1633.67V826.738H1653.35V834.772C1655.1 832.236 1657.43 830.161 1660.37 828.591C1663.33 827.02 1666.72 826.235 1670.52 826.235ZM1626.06 883.078H1606.37V826.738H1626.06V883.078ZM1616.32 821.523C1612.83 821.523 1610.03 820.557 1607.92 818.644C1605.83 816.751 1604.76 814.355 1604.76 811.475C1604.76 808.535 1605.83 806.079 1607.92 804.146C1610.03 802.193 1612.83 801.226 1616.32 801.226C1619.72 801.226 1622.5 802.193 1624.59 804.146C1626.71 806.079 1627.75 808.535 1627.75 811.475C1627.75 814.355 1626.71 816.751 1624.59 818.644C1622.5 820.557 1619.72 821.523 1616.32 821.523ZM1600.97 866.305V883.078H1592.44C1578.04 883.078 1570.83 875.95 1570.83 861.693V843.108H1563.9V826.738H1570.83V811.737H1590.62V826.738H1600.87V843.108H1590.62V861.976C1590.62 863.525 1590.97 864.634 1591.67 865.298C1592.38 865.963 1593.56 866.305 1595.24 866.305H1600.97ZM1539.32 826.235C1545.82 826.235 1550.98 828.389 1554.78 832.719C1558.61 837.028 1560.52 842.867 1560.52 850.236V883.078H1540.83V852.854C1540.83 849.633 1539.98 847.116 1538.31 845.263C1536.64 843.431 1534.4 842.504 1531.59 842.504C1528.65 842.504 1526.33 843.431 1524.66 845.263C1522.99 847.116 1522.14 849.633 1522.14 852.854V883.078H1502.47V826.738H1522.14V834.772C1523.89 832.236 1526.23 830.161 1529.19 828.591C1532.13 827.02 1535.51 826.235 1539.32 826.235ZM1477.99 849.33C1477.99 846.915 1477.18 845.022 1475.57 843.652C1473.96 842.283 1471.96 841.598 1469.55 841.598C1467.13 841.598 1465.16 842.243 1463.63 843.551C1462.08 844.86 1461.07 846.793 1460.61 849.33H1477.99ZM1498.06 854.243C1498.06 855.794 1497.96 857.324 1497.76 858.875H1460.51C1460.71 861.956 1461.55 864.251 1463.06 865.741C1464.58 867.251 1466.51 868.016 1468.84 868.016C1472.13 868.016 1474.46 866.546 1475.87 863.586H1496.85C1495.99 867.473 1494.3 870.936 1491.8 873.976C1489.28 877.037 1486.12 879.434 1482.29 881.165C1478.49 882.916 1474.26 883.782 1469.65 883.782C1464.09 883.782 1459.16 882.615 1454.83 880.259C1450.52 877.923 1447.14 874.58 1444.68 870.211C1442.24 865.862 1441.02 860.747 1441.02 854.848C1441.02 848.968 1442.22 843.853 1444.64 839.545C1447.06 835.215 1450.42 831.893 1454.73 829.557C1459.06 827.201 1464.03 826.033 1469.65 826.033C1475.21 826.033 1480.12 827.181 1484.41 829.457C1488.7 831.732 1492.04 834.994 1494.46 839.242C1496.85 843.491 1498.06 848.485 1498.06 854.243ZM1412.32 883.782C1404.09 883.782 1397.32 881.81 1392.03 877.903C1386.75 873.976 1383.89 868.378 1383.49 861.09H1404.49C1404.69 863.566 1405.42 865.359 1406.71 866.506C1407.97 867.634 1409.6 868.218 1411.62 868.218C1413.43 868.218 1414.92 867.755 1416.09 866.848C1417.26 865.943 1417.84 864.694 1417.84 863.083C1417.84 861.009 1416.87 859.398 1414.94 858.27C1412.99 857.123 1409.85 855.854 1405.5 854.445C1400.87 852.915 1397.14 851.425 1394.3 849.975C1391.44 848.545 1388.97 846.43 1386.87 843.652C1384.76 840.874 1383.69 837.248 1383.69 832.759C1383.69 828.209 1384.84 824.302 1387.11 821.06C1389.39 817.818 1392.53 815.361 1396.56 813.69C1400.56 811.999 1405.11 811.173 1410.21 811.173C1418.44 811.173 1425.03 813.086 1429.94 816.953C1434.88 820.798 1437.49 826.195 1437.83 833.161H1416.43C1416.37 831.027 1415.73 829.416 1414.48 828.349C1413.25 827.262 1411.66 826.738 1409.7 826.738C1408.24 826.738 1407.03 827.181 1406.1 828.047C1405.15 828.913 1404.69 830.141 1404.69 831.752C1404.69 833.101 1405.21 834.249 1406.24 835.215C1407.29 836.202 1408.58 837.028 1410.11 837.732C1411.66 838.437 1413.93 839.323 1416.93 840.39C1421.42 841.941 1425.13 843.45 1428.03 844.961C1430.95 846.472 1433.47 848.585 1435.56 851.283C1437.67 854.002 1438.74 857.426 1438.74 861.593C1438.74 865.801 1437.67 869.587 1435.56 872.93C1433.47 876.272 1430.4 878.93 1426.44 880.863C1422.45 882.816 1417.74 883.782 1412.32 883.782Z" fill="black"/>
<path d="M1385.75 915.898C1385.75 913.479 1386.29 911.319 1387.37 909.418C1388.47 907.492 1389.96 906.002 1391.84 904.945C1393.74 903.865 1395.87 903.325 1398.22 903.325C1400.96 903.325 1403.37 904.029 1405.44 905.438C1407.5 906.847 1408.95 908.795 1409.77 911.284H1404.1C1403.53 910.11 1402.74 909.23 1401.7 908.643C1400.69 908.056 1399.52 907.762 1398.18 907.762C1396.75 907.762 1395.47 908.103 1394.34 908.784C1393.24 909.441 1392.37 910.38 1391.74 911.601C1391.13 912.822 1390.82 914.254 1390.82 915.898C1390.82 917.518 1391.13 918.95 1391.74 920.194C1392.37 921.415 1393.24 922.366 1394.34 923.047C1395.47 923.704 1396.75 924.033 1398.18 924.033C1399.52 924.033 1400.69 923.74 1401.7 923.153C1402.74 922.542 1403.53 921.65 1404.1 920.476H1409.77C1408.95 922.988 1407.5 924.949 1405.44 926.358C1403.39 927.743 1400.99 928.435 1398.22 928.435C1395.87 928.435 1393.74 927.907 1391.84 926.851C1389.96 925.771 1388.47 924.28 1387.37 922.378C1386.29 920.476 1385.75 918.316 1385.75 915.898ZM1446.17 928.471C1443.87 928.471 1441.75 927.931 1439.83 926.851C1437.9 925.771 1436.38 924.28 1435.25 922.378C1434.12 920.453 1433.56 918.281 1433.56 915.863C1433.56 913.468 1434.12 911.319 1435.25 909.418C1436.38 907.492 1437.9 905.99 1439.83 904.91C1441.75 903.83 1443.87 903.29 1446.17 903.29C1448.49 903.29 1450.61 903.83 1452.51 904.91C1454.43 905.99 1455.95 907.492 1457.05 909.418C1458.18 911.319 1458.74 913.468 1458.74 915.863C1458.74 918.281 1458.18 920.453 1457.05 922.378C1455.95 924.28 1454.43 925.771 1452.51 926.851C1450.58 927.931 1448.47 928.471 1446.17 928.471ZM1446.17 924.068C1447.65 924.068 1448.95 923.74 1450.08 923.082C1451.2 922.401 1452.09 921.439 1452.72 920.194C1453.35 918.95 1453.67 917.506 1453.67 915.863C1453.67 914.219 1453.35 912.787 1452.72 911.566C1452.09 910.322 1451.2 909.371 1450.08 908.713C1448.95 908.056 1447.65 907.727 1446.17 907.727C1444.69 907.727 1443.37 908.056 1442.22 908.713C1441.1 909.371 1440.22 910.322 1439.58 911.566C1438.95 912.787 1438.63 914.219 1438.63 915.863C1438.63 917.506 1438.95 918.95 1439.58 920.194C1440.22 921.439 1441.1 922.401 1442.22 923.082C1443.37 923.74 1444.69 924.068 1446.17 924.068ZM1491.78 903.642C1494.36 903.642 1496.63 904.147 1498.58 905.156C1500.55 906.166 1502.07 907.61 1503.12 909.488C1504.2 911.343 1504.74 913.503 1504.74 915.968C1504.74 918.434 1504.2 920.594 1503.12 922.448C1502.07 924.28 1500.55 925.7 1498.58 926.71C1496.63 927.719 1494.36 928.224 1491.78 928.224H1483.19V903.642H1491.78ZM1491.61 924.033C1494.19 924.033 1496.18 923.329 1497.59 921.92C1499 920.511 1499.71 918.527 1499.71 915.968C1499.71 913.409 1499 911.413 1497.59 909.981C1496.18 908.525 1494.19 907.798 1491.61 907.798H1488.12V924.033H1491.61ZM1534.14 907.622V913.785H1542.42V917.694H1534.14V924.209H1543.47V928.224H1529.21V903.607H1543.47V907.622H1534.14ZM1577.22 928.471C1575.51 928.471 1573.96 928.177 1572.57 927.59C1571.21 927.003 1570.13 926.158 1569.33 925.054C1568.53 923.951 1568.12 922.648 1568.1 921.145H1573.38C1573.45 922.155 1573.81 922.953 1574.44 923.54C1575.1 924.127 1575.99 924.421 1577.12 924.421C1578.27 924.421 1579.17 924.151 1579.83 923.611C1580.48 923.047 1580.81 922.319 1580.81 921.427C1580.81 920.699 1580.59 920.1 1580.14 919.631C1579.7 919.161 1579.13 918.797 1578.45 918.539C1577.8 918.257 1576.88 917.952 1575.71 917.623C1574.11 917.154 1572.81 916.696 1571.8 916.25C1570.81 915.78 1569.95 915.088 1569.23 914.172C1568.52 913.233 1568.17 911.989 1568.17 910.439C1568.17 908.983 1568.53 907.715 1569.26 906.635C1569.99 905.555 1571.01 904.734 1572.33 904.17C1573.64 903.583 1575.14 903.29 1576.83 903.29C1579.37 903.29 1581.42 903.912 1583 905.156C1584.59 906.377 1585.47 908.091 1585.64 910.298H1580.21C1580.17 909.453 1579.8 908.76 1579.12 908.22C1578.47 907.657 1577.59 907.375 1576.48 907.375C1575.52 907.375 1574.74 907.622 1574.16 908.115C1573.59 908.608 1573.31 909.324 1573.31 910.263C1573.31 910.92 1573.52 911.472 1573.95 911.918C1574.39 912.341 1574.93 912.693 1575.57 912.975C1576.22 913.233 1577.14 913.538 1578.31 913.89C1579.91 914.36 1581.21 914.83 1582.22 915.299C1583.23 915.769 1584.1 916.473 1584.83 917.412C1585.56 918.351 1585.92 919.584 1585.92 921.11C1585.92 922.425 1585.58 923.646 1584.9 924.773C1584.22 925.9 1583.22 926.804 1581.91 927.485C1580.59 928.142 1579.03 928.471 1577.22 928.471Z" fill="black"/>
<mask id="path-45-inside-6_1067_67140" fill="white">
<path d="M816 702H1139V1025H816V702Z"/>
</mask>
<path d="M1139 702H1138V1025H1139H1140V702H1139Z" fill="#222222" mask="url(#path-45-inside-6_1067_67140)"/>
<g clip-path="url(#clip5_1067_67140)">
<path fill-rule="evenodd" clip-rule="evenodd" d="M974.963 797C1010.29 797 1038.93 825.638 1038.93 860.964C1038.93 870.852 1036.68 880.216 1032.68 888.574L1042.07 897.965C1044.09 899.989 1044.09 903.27 1042.07 905.294C1040.04 907.317 1036.76 907.317 1034.74 905.294L1027.25 897.809C1026.14 899.386 1024.95 900.91 1023.71 902.378L1032.89 911.559C1034.91 913.583 1034.91 916.864 1032.89 918.887C1030.86 920.912 1027.58 920.912 1025.56 918.887L1016.38 909.707C1014.91 910.955 1013.39 912.14 1011.81 913.254L1019.29 920.739C1021.32 922.762 1021.32 926.044 1019.29 928.067C1017.27 930.092 1013.99 930.092 1011.96 928.067L1002.57 918.676C994.215 922.683 984.851 924.927 974.963 924.927C939.637 924.927 910.999 896.29 910.999 860.964C910.999 825.638 939.637 797 974.963 797Z" fill="black"/>
<path fill-rule="evenodd" clip-rule="evenodd" d="M974.964 816.23C999.669 816.23 1019.7 836.258 1019.7 860.964C1019.7 885.67 999.669 905.698 974.964 905.698C950.258 905.698 930.229 885.67 930.229 860.964C930.229 836.258 950.258 816.23 974.964 816.23Z" fill="white"/>
<path fill-rule="evenodd" clip-rule="evenodd" d="M974.964 831.472C991.252 831.472 1004.46 844.676 1004.46 860.964C1004.46 877.252 991.252 890.456 974.964 890.456C958.676 890.456 945.472 877.252 945.472 860.964C945.472 844.676 958.676 831.472 974.964 831.472Z" fill="#52B69A"/>
<path fill-rule="evenodd" clip-rule="evenodd" d="M958.216 834.456C963.606 834.456 967.976 838.825 967.976 844.216C967.976 849.606 963.606 853.976 958.216 853.976C952.826 853.976 948.456 849.606 948.456 844.216C948.456 838.825 952.826 834.456 958.216 834.456Z" fill="white"/>
<path fill-rule="evenodd" clip-rule="evenodd" d="M974.964 847.147C982.594 847.147 988.78 853.332 988.78 860.964C988.78 868.594 982.594 874.78 974.964 874.78C967.332 874.78 961.147 868.594 961.147 860.964C961.147 853.332 967.332 847.147 974.964 847.147Z" fill="black"/>
</g>
</g>
<defs>
<clipPath id="clip0_1067_67140">
<rect width="1048" height="322.667" fill="white" transform="translate(816 56)"/>
</clipPath>
<clipPath id="clip1_1067_67140">
<rect width="133" height="133" fill="white" transform="translate(911 151)"/>
</clipPath>
<clipPath id="clip2_1067_67140">
<path d="M816 378.667H1864V701.333H816V378.667Z" fill="white"/>
</clipPath>
<clipPath id="clip3_1067_67140">
<rect width="133" height="133" fill="white" transform="translate(911 474)"/>
</clipPath>
<clipPath id="clip4_1067_67140">
<rect width="1048" height="322.667" fill="white" transform="translate(816 701.333)"/>
</clipPath>
<clipPath id="clip5_1067_67140">
<rect width="133" height="133" fill="white" transform="translate(911 797)"/>
</clipPath>
</defs>
</svg>
